<mxfile host="app.diagrams.net" modified="2020-11-20T03:37:06.783Z" agent="5.0 (Windows NT 10.0; Win64; x64) AppleWebKit/537.36 (KHTML, like Gecko) Chrome/86.0.4240.198 Safari/537.36 Edg/86.0.622.69" etag="O-0fzgpazuXaxKuRXsZz" version="13.8.8" type="github">
  <diagram id="C5RBs43oDa-KdzZeNtuy" name="Page-1">
    <mxGraphModel dx="1422" dy="1932" grid="1" gridSize="10" guides="1" tooltips="1" connect="1" arrows="1" fold="1" page="1" pageScale="1" pageWidth="827" pageHeight="1169" math="0" shadow="0">
      <root>
        <mxCell id="WIyWlLk6GJQsqaUBKTNV-0" />
        <mxCell id="WIyWlLk6GJQsqaUBKTNV-1" parent="WIyWlLk6GJQsqaUBKTNV-0" />
        <mxCell id="uDt04_MFJMx3Z47wcWQL-17" value="提交审核" style="edgeStyle=none;rounded=0;orthogonalLoop=1;jettySize=auto;html=1;exitX=0.25;exitY=0;exitDx=0;exitDy=0;entryX=0;entryY=0.25;entryDx=0;entryDy=0;" edge="1" parent="WIyWlLk6GJQsqaUBKTNV-1" source="uDt04_MFJMx3Z47wcWQL-0" target="uDt04_MFJMx3Z47wcWQL-1">
          <mxGeometry relative="1" as="geometry" />
        </mxCell>
        <mxCell id="uDt04_MFJMx3Z47wcWQL-0" value="内容" style="rounded=1;whiteSpace=wrap;html=1;" vertex="1" parent="WIyWlLk6GJQsqaUBKTNV-1">
          <mxGeometry x="200" y="220" width="120" height="60" as="geometry" />
        </mxCell>
        <mxCell id="uDt04_MFJMx3Z47wcWQL-16" value="审核失败打回" style="edgeStyle=none;rounded=0;orthogonalLoop=1;jettySize=auto;html=1;exitX=0;exitY=1;exitDx=0;exitDy=0;entryX=0.75;entryY=0;entryDx=0;entryDy=0;" edge="1" parent="WIyWlLk6GJQsqaUBKTNV-1" source="uDt04_MFJMx3Z47wcWQL-1" target="uDt04_MFJMx3Z47wcWQL-0">
          <mxGeometry relative="1" as="geometry" />
        </mxCell>
        <mxCell id="uDt04_MFJMx3Z47wcWQL-21" value="投递内容" style="edgeStyle=none;rounded=0;orthogonalLoop=1;jettySize=auto;html=1;exitX=0.25;exitY=0;exitDx=0;exitDy=0;" edge="1" parent="WIyWlLk6GJQsqaUBKTNV-1" source="uDt04_MFJMx3Z47wcWQL-1">
          <mxGeometry relative="1" as="geometry">
            <mxPoint x="366.66666666666674" y="-30" as="targetPoint" />
          </mxGeometry>
        </mxCell>
        <mxCell id="uDt04_MFJMx3Z47wcWQL-25" value="审核通过，发布内容" style="edgeStyle=none;rounded=0;orthogonalLoop=1;jettySize=auto;html=1;exitX=1;exitY=0.5;exitDx=0;exitDy=0;entryX=0.5;entryY=0;entryDx=0;entryDy=0;" edge="1" parent="WIyWlLk6GJQsqaUBKTNV-1" source="uDt04_MFJMx3Z47wcWQL-1" target="uDt04_MFJMx3Z47wcWQL-2">
          <mxGeometry relative="1" as="geometry" />
        </mxCell>
        <mxCell id="uDt04_MFJMx3Z47wcWQL-1" value="审核系统" style="rounded=1;whiteSpace=wrap;html=1;" vertex="1" parent="WIyWlLk6GJQsqaUBKTNV-1">
          <mxGeometry x="380" y="60" width="120" height="60" as="geometry" />
        </mxCell>
        <mxCell id="uDt04_MFJMx3Z47wcWQL-32" style="edgeStyle=none;rounded=0;orthogonalLoop=1;jettySize=auto;html=1;exitX=0.5;exitY=1;exitDx=0;exitDy=0;" edge="1" parent="WIyWlLk6GJQsqaUBKTNV-1" source="uDt04_MFJMx3Z47wcWQL-2" target="uDt04_MFJMx3Z47wcWQL-4">
          <mxGeometry relative="1" as="geometry" />
        </mxCell>
        <mxCell id="uDt04_MFJMx3Z47wcWQL-2" value="推荐系统" style="rounded=1;whiteSpace=wrap;html=1;" vertex="1" parent="WIyWlLk6GJQsqaUBKTNV-1">
          <mxGeometry x="550" y="220" width="120" height="60" as="geometry" />
        </mxCell>
        <mxCell id="uDt04_MFJMx3Z47wcWQL-41" value="交易" style="edgeStyle=none;rounded=0;orthogonalLoop=1;jettySize=auto;html=1;exitX=0;exitY=0.5;exitDx=0;exitDy=0;" edge="1" parent="WIyWlLk6GJQsqaUBKTNV-1" source="uDt04_MFJMx3Z47wcWQL-4" target="uDt04_MFJMx3Z47wcWQL-5">
          <mxGeometry relative="1" as="geometry" />
        </mxCell>
        <mxCell id="uDt04_MFJMx3Z47wcWQL-44" value="查看、点赞等" style="edgeStyle=none;rounded=0;orthogonalLoop=1;jettySize=auto;html=1;entryX=1;entryY=0.5;entryDx=0;entryDy=0;" edge="1" parent="WIyWlLk6GJQsqaUBKTNV-1" target="uDt04_MFJMx3Z47wcWQL-0">
          <mxGeometry relative="1" as="geometry">
            <mxPoint x="560" y="390" as="sourcePoint" />
          </mxGeometry>
        </mxCell>
        <mxCell id="uDt04_MFJMx3Z47wcWQL-4" value="用户" style="rounded=1;whiteSpace=wrap;html=1;" vertex="1" parent="WIyWlLk6GJQsqaUBKTNV-1">
          <mxGeometry x="550" y="390" width="120" height="60" as="geometry" />
        </mxCell>
        <mxCell id="uDt04_MFJMx3Z47wcWQL-13" value="关联商品" style="edgeStyle=none;rounded=0;orthogonalLoop=1;jettySize=auto;html=1;entryX=0.5;entryY=1;entryDx=0;entryDy=0;" edge="1" parent="WIyWlLk6GJQsqaUBKTNV-1" source="uDt04_MFJMx3Z47wcWQL-5" target="uDt04_MFJMx3Z47wcWQL-0">
          <mxGeometry relative="1" as="geometry" />
        </mxCell>
        <mxCell id="uDt04_MFJMx3Z47wcWQL-42" value="结算" style="edgeStyle=none;rounded=0;orthogonalLoop=1;jettySize=auto;html=1;exitX=0.5;exitY=1;exitDx=0;exitDy=0;entryX=0;entryY=0.25;entryDx=0;entryDy=0;" edge="1" parent="WIyWlLk6GJQsqaUBKTNV-1" source="uDt04_MFJMx3Z47wcWQL-5" target="uDt04_MFJMx3Z47wcWQL-6">
          <mxGeometry relative="1" as="geometry" />
        </mxCell>
        <mxCell id="uDt04_MFJMx3Z47wcWQL-5" value="商品" style="rounded=1;whiteSpace=wrap;html=1;" vertex="1" parent="WIyWlLk6GJQsqaUBKTNV-1">
          <mxGeometry x="200" y="390" width="120" height="60" as="geometry" />
        </mxCell>
        <mxCell id="uDt04_MFJMx3Z47wcWQL-43" value="返利" style="edgeStyle=none;rounded=0;orthogonalLoop=1;jettySize=auto;html=1;exitX=1;exitY=0.25;exitDx=0;exitDy=0;entryX=0.5;entryY=1;entryDx=0;entryDy=0;" edge="1" parent="WIyWlLk6GJQsqaUBKTNV-1" source="uDt04_MFJMx3Z47wcWQL-6" target="uDt04_MFJMx3Z47wcWQL-4">
          <mxGeometry relative="1" as="geometry" />
        </mxCell>
        <mxCell id="uDt04_MFJMx3Z47wcWQL-6" value="返利平台" style="rounded=1;whiteSpace=wrap;html=1;" vertex="1" parent="WIyWlLk6GJQsqaUBKTNV-1">
          <mxGeometry x="370" y="540" width="120" height="60" as="geometry" />
        </mxCell>
        <mxCell id="uDt04_MFJMx3Z47wcWQL-10" value="数据爬取" style="rounded=0;orthogonalLoop=1;jettySize=auto;html=1;exitX=1;exitY=0.5;exitDx=0;exitDy=0;entryX=0;entryY=0.5;entryDx=0;entryDy=0;" edge="1" parent="WIyWlLk6GJQsqaUBKTNV-1" source="uDt04_MFJMx3Z47wcWQL-7" target="uDt04_MFJMx3Z47wcWQL-0">
          <mxGeometry relative="1" as="geometry" />
        </mxCell>
        <mxCell id="uDt04_MFJMx3Z47wcWQL-7" value="爬虫" style="shape=image;html=1;verticalAlign=top;verticalLabelPosition=bottom;labelBackgroundColor=#ffffff;imageAspect=0;aspect=fixed;image=https://cdn2.iconfinder.com/data/icons/free-solid-halloween-icons/24/Spider-128.png" vertex="1" parent="WIyWlLk6GJQsqaUBKTNV-1">
          <mxGeometry x="30" y="160" width="40" height="40" as="geometry" />
        </mxCell>
        <mxCell id="uDt04_MFJMx3Z47wcWQL-12" value="人工加工" style="edgeStyle=none;rounded=0;orthogonalLoop=1;jettySize=auto;html=1;" edge="1" parent="WIyWlLk6GJQsqaUBKTNV-1" source="uDt04_MFJMx3Z47wcWQL-8" target="uDt04_MFJMx3Z47wcWQL-0">
          <mxGeometry relative="1" as="geometry" />
        </mxCell>
        <mxCell id="uDt04_MFJMx3Z47wcWQL-8" value="运营人员" style="html=1;verticalLabelPosition=bottom;align=center;labelBackgroundColor=#ffffff;verticalAlign=top;strokeWidth=2;strokeColor=#0080F0;shadow=0;dashed=0;shape=mxgraph.ios7.icons.user;" vertex="1" parent="WIyWlLk6GJQsqaUBKTNV-1">
          <mxGeometry x="35" y="280" width="30" height="30" as="geometry" />
        </mxCell>
        <mxCell id="uDt04_MFJMx3Z47wcWQL-22" value="机器初审&lt;br&gt;敏感词、视频审核" style="edgeStyle=none;rounded=0;orthogonalLoop=1;jettySize=auto;html=1;entryX=0;entryY=0.833;entryDx=0;entryDy=0;entryPerimeter=0;" edge="1" parent="WIyWlLk6GJQsqaUBKTNV-1" target="uDt04_MFJMx3Z47wcWQL-20">
          <mxGeometry relative="1" as="geometry">
            <mxPoint x="390" y="-75" as="sourcePoint" />
            <Array as="points">
              <mxPoint x="450" y="-75" />
            </Array>
          </mxGeometry>
        </mxCell>
        <mxCell id="uDt04_MFJMx3Z47wcWQL-24" value="人工复审" style="edgeStyle=none;rounded=0;orthogonalLoop=1;jettySize=auto;html=1;entryX=0.65;entryY=0.025;entryDx=0;entryDy=0;entryPerimeter=0;" edge="1" parent="WIyWlLk6GJQsqaUBKTNV-1" source="uDt04_MFJMx3Z47wcWQL-20" target="uDt04_MFJMx3Z47wcWQL-1">
          <mxGeometry relative="1" as="geometry" />
        </mxCell>
        <mxCell id="uDt04_MFJMx3Z47wcWQL-20" value="运营人员" style="html=1;verticalLabelPosition=bottom;align=center;labelBackgroundColor=#ffffff;verticalAlign=top;strokeWidth=2;strokeColor=#0080F0;shadow=0;dashed=0;shape=mxgraph.ios7.icons.user;" vertex="1" parent="WIyWlLk6GJQsqaUBKTNV-1">
          <mxGeometry x="510" y="-100" width="30" height="30" as="geometry" />
        </mxCell>
        <mxCell id="uDt04_MFJMx3Z47wcWQL-31" value="" style="shape=image;verticalLabelPosition=bottom;labelBackgroundColor=#ffffff;verticalAlign=top;aspect=fixed;imageAspect=0;image=data:image/png,iVBORw0KGgoAAAANSUhEUgAAA0QAAAOACAYAAAAaYLOMAAAgAElEQVR4AeydB5gV1f3+Y+/RRI0aNSbGqIlJ1JhYY0lM7/pLr//0YmKhCiIoKgLSERtWFBAQEQREepPee1nYZdmlsyywvfD5P+89XkVcYC/c3b33zjvPcx+W3bkzcz7nzJnzzrd9BG8mYAImYAImYAImYAImYAImEFECH4lou91sEzABEzABEzABEzABEzABE8CCyIPABEzABEzABEzABEzABEwgsgQsiCLb9W64CZiACZiACZiACZiACZiABZHHgAmYgAmYgAmYgAmYgAmYQGQJWBBFtuvdcBMwARMwARMwARMwARMwAQsijwETMAETMAETMAETMAETMIHIErAgimzXu+EmYAImYAImYAImYAImYAIWRB4DJmACJmACJmACJmACJmACkSVgQRTZrnfDTcAETMAETMAETMAETMAELIg8BkzABEzABEzABEzABEzABCJLwIIosl3vhpuACZiACZiACZiACZiACVgQeQyYgAmYgAmYgAmYgAmYgAlEloAFUWS73g03ARMwgcQJ7AGq90BFFZRWwM5S2LIbNuyE9TtgXQFkb4esrbB8EyzZCIvyYf56mLUOZuTA9GyYlg1T18KUNeEzOQsmrYaJq2FCDR/9flIWaD99Z+oaeGdtOI6OOXsdzM8L51qyAZZtglVbYM02yNkerk3XuLUIdpVCSQWUV0FVNexRo7yZgAmYgAlEloAFUWS73g03ARMwgcQJSAxJSEgISWBIeEiovLkEXlsA/ebACzOh1xRoPwZaj4R7h8Gdr8Gf+8JvXoJfvwg/fx5+0ht++HT4fP9J+Nbj8I2ecEuPD3++2RO+8wRovx88BT9+Bm57Fn7xPPz2JfhrP7hzMDQfBvePgEdGQ/eJ8Mw06DMLBs2HEUuDkJJQyy+EgpIgjCSKvJmACZiACUSXgAVRdPveLTcBE4gQgbhVR5aRHSVBzMiKI2vKvPXBciPrS03Wmb1/N24VvL0chi6GfnPhiSnQ9i1o8gb87zX4x6vwp1fgly8E8XJzD7i2C3y5PXzmQTjnfji7FZzREj7aDE5qGj4nNIaj74Yj7oKP3Pnhz5F3wbH3gPY7sQmc0gw+di+c2RLOvR8+2xYu7wDXdIYbu8F3egXB9Ls+8Jd+cMcgaDoUHn4bnpwKfefAkIUwchmMXXnwdouNLFtzc2HxBli9FTbuDCyLy4PFTIy9mYAJmIAJpB8BC6L06zNfsQmYgAkkTEAubrLqyK1NrmWylvSaHKwpEjISDrK+1GSd2ft3Ejg3dYcbusE1XeArHeGydnDJw3DRQ3Dhg/DpB+D81kH4SLCc3gJObQ4nNYHjG4fPcY3gmHuCCJIQOuoAYkgC6Yg7QaJI++lz9D1BIOk4EkknN4XTmsPH74UzWsBZ9wWh9Kk2QYhd1DZc4xcfha88FoTT9V3hxu6gNu3dxpp+/t6TwbL17wHQ8k14fHIQUwvygpugRKYYezMBEzABE0g/AhZE6ddnvmITMAET2C+BymrYVRZiZfIKQxzN3PUhNkdubS/Phq4TgrVE7maypnzpUTivdRAWNVln/Ds4vhGcfR98/hGQkJLLX7Oh0G1icMkbughkPVMs08rNQXgqtkrxSpUWSvsdr/6DCZiACaQCAQuiVOgFX4MJmIAJJImAxNDKLSHxwJBF0H0S/Hsg/OQZuKUnXN0ZrugQrCUSQbKmnNosiCFZXix+amYgNhJFcvOTxUvsZBUTSzGV1UxWJLnndRoXYpaUCGLFpiCKktS9PowJmIAJmEAdELAgqgOoPqQJmIAJ1DUBZUZTMgAJoNwdIbmBYoHGrIBnp8NDb8Ndg0McjawacieTi5oFT90wkGBSbJNcBn/0dIhZeuAt6D0NRq8IcVpLNwb3Orkuyr3OMUd1fZf4+CZgAiZQOwIWRLXj5L1MwARMIKUISAwpmF/WoFfnhWQB/x0EP38uxPcoVuZzD4U4Glk1JIYUg2NBVDcMlAxCokhxUue0AsUsKbbqBrnXPQd3DIQH34JXZoOEUVwUpdSg8sWYgAmYQEQJWBBFtOPdbBMwgdQkEM8GpyB9ZTJT/I/q7cj9au8aPcqMpsQIT78TXOK+1QskghTnItcuC5/UYBCPPZI4Ukrxv/UPySyGLQ7WvL0z+Kl/VV9pdm6IQ9peDOWVtiSl5p3qqzIBE8gkAhZEmdSbbosJmEDaE5ArVWFpcLFSJrP/DAxub7fuU6NHmdG+3g2ueiyknFZWNcUCaQHuWKDUEEMSpXvHHn2iZch4p8x8ytKnuKP3Mtr1BNVaUqyXRFPn8TAzB7YVBVGU9gPbDTABEzCBFCZgQZTCneNLMwETyHwCpRWhns3qLbAwP1gIlA2uy4SQyewL7UK9HS2s91ejx9ag1BFAh9oX8bTicm+Uq6OEUYexoMQYKnyrVOnKXqdiuKol5c0ETMAETCB5BCyIksfSRzIBEzCBhAmouOeoZdBjEjR9I9QDkvubiowqk5kWyCpIajGU/qLnYGJJokixXqqp9Mn7QzHbbz4Ov3oR7n49WI2GL4H8QlBSDW8mYAImYALJIWBBlByOPooJmIAJ1EigrBJUj2btNliUH9ygpqyBeOzIq3Ph3mFw+7PwtU6hoOmJjTN/8X8wceC/hzGgQrbn3A9XdIQfPwNN3oB+c2DCqjCGJmfB9GxQgVjFnG3aBaWVNQ5F/9IETMAETGA/BCyI9gPGvzYBEzCBZBCQGJLLk9IvtxgGf3wZfvDU+7Ej13aBSx8J2eA+fi9IDDkGyIIwLghjMUiNQ9p0WY1U++iazu+PH9U++vWL0GgI9JwcEjVIFHkzARMwAROoPQELotqz8p4mYAImcEACcmNSVjBliMsrhOWbgjvcI6ODK9x1XeBTbUK9mviC1/9a/BzOGIhZkFqBEjUovXebkSH74LJNsH4HFBSDrJR2sTvgres/moAJRJyABVHEB4CbbwImkBwC8UKp24tCAPzrC6H9GPhzX5AVSELo9BZBDNkCZBF0OCJo7+/GLUgfax5izuR2+YeXQ12qgfNhTi5s3Q2V1RZFybnTfRQTMIFMJGBBlIm96jaZgAnUOYHdZbBmW0iPPXUtjF8Fqg00eAF0mwh3Dga5M136MJzS1AJg70W8f6678aCEDMpSp8Qc/xkEncbDoPnBlU5jVPFrs9fBqi2wqwycm6HOpwqfwARMIA0IWBClQSf5Ek3ABFKLgKxBWVvhmXfgjkHw095wS09QbaDru8IVHcKi9OxWQQwdfXfdLYAtLsx27zGgsSZRpLpUn20bshXKVVM1jzQ+f/g0/KUfdJ8U0nirELBFUWrNL74aEzCB+idgQVT/zH1GEzCBNCSgOIytRe9bhV6eDb/vA5e1g1ObOy323oty/5y6Iu2kpnBh21Dj6oUZwaVO2emU/ENj3JsJmIAJRJGABVEUe91tNgETSJiAxJDcjZ6ZFtzhvvsEXPRQqBOk2jEWAWaQDmNAFiSJos88CN/uBf8dBL2mhBTeEkXeTMAETCCKBCyIotjrbrMJmMBBCcgtToHoihXasDOIIcVj/Pal4IakBAnHNrIISAcR4Gv88DhVsV+lef/So/DLF+DRMUEU5e6AwlIorwK503kzARMwgSgQsCCKQi+7jSZgAgkTkBgqKg+xQsOXwIOjQqC6ssWd1jyIoSPv+vBC04tvM0mHMaCxK1F0arNQDFjxRc2HwavzYPGGkK5bosibCZiACUSBgAVRFHrZbTQBE9gvAb0F18KvsARytsOifHhnLYxZCcOXwrPTockbIWOckiSkw2LX1+h+SnQMnNkyJF7494BQ4FVp40evCPfCgjxYuw22F0NpBVRV7/d28h9MwARMIC0JWBClZbf5ok3ABJJFQGJIxSsX5sNLs8Jb8tufg5t6wNe7wVc7wSUPg8SQimAmutD0/maWDmPguEYgUaTMdFd2DNkSlZnutmeh8RDoPQ1m5sDGnUEUJev+83FMwARMIBUIWBClQi/4GkzABOqdgCxDFVWQXxhqCPWYFNIRX9M5xFakwyLW12ixVddj4GP3wlWPwe/6QIexMGIp5BSEjHSOMar3acsnNAETqCMCFkR1BNaHNQETSG0CEkM7S2HiavjXgLDoU+YtBZortqKuF5o+vhmnwxjQvSBRdEEb+HJ7+HM/GLXcabpTe3bz1ZmACSRKwIIoUWLe3wRMIK0IKFGW3mTH3eImZQURNGYFDF0MbUeFhd5Rd7uWUDos0H2NDSckj7gLPt8O7hsOA+cHYaQXCrqnFGekGCPFFylDozcTMAETSCcCFkTp1Fu+VhMwgYQJxF3j5uSG5AjfeQK+2TMEkN/QDS571IVVLTIaTmSkG/uPNoPPPwLXdYEbu8M3eobsi/cMgRk5UOKkCwnPUf6CCZhAwxOwIGr4PvAVmIAJ1AGBeLIEZceatQ4UI3R15+AO53TZFgDpJkRS9XplNTr6HvjKY/DYuFCva+VmUCHjsso6uLF9SBMwAROoAwIWRHUA1Yc0ARNoeAJykZubC31mwf9eA9VZOes+kBg64k4LglRdYPu60m9sShSd0QKUkOQv/aDXFJi8Joiihp8JfAUmYAImcHACFkQHZ+Q9TMAE0oBAcXmoI6RYBtURGrIQOo+Hv/aDyzuEYqrHOFmCk0VYDNfJGFAM3olN4HMPwS9fCLF5g+bD1LUwPw+yt4dCx2kwlfgSTcAEIkjAgiiCne4mm0AmElBRVVmDGg0JtVOu7xqEkDLHndYcJIbsKpd+1gdbjNKjz2Qlkig6uSmc3zrE5inO6Ke94c7B8PyMIIoyce5xm0zABNKfgAVR+vehW2ACkSagOAXFK4xbCf8dFNJnK02wF9Jm4DHQ8GNALyMubw//fBVGLYNNu0LiBWeii/S07cabQMoRsCBKuS7xBZmACdSWgBZVW3cHt5yO40LWK4kh1xFq+IWwxYj7QGNAllmJomu7QJuR8PbyUAzZ6blrO8t5PxMwgfogYEFUH5R9DhMwgaQR0EKqtCIUhly+CUYuhfZj4BfPw3mtvQi1EPEYSMUxcE4r+MFT0Go4vL4QFubDxp2g2D/d095MwARMoCEJWBA1JH2f2wRMIGECEkNaSE3OCkLoty+F7FYSQyc09mI4FRfDviaPy+Mbg0TRlR3hZ73h/hGhsGtOQRBFCU8E/oIJmIAJJJGABVESYfpQJmACySdQWR2yU0kELd4A41fBgPkhi9X3ngQlTTipiRecFh0eA+kwBuLC6Kbu0OLNkAhl9ApQdsi8HbCrFCqrkj+P+IgmYAImcCACFkQHouO/mYAJNDiBovKQnWrkMmj5Jtz+XKgpdNmjcHarIIaOvtuL4XRYDPsaPU6ViU6i6MyWcOkjcENX+PHT0HgIDF4AcoOVKPJmAiZgAvVJwIKoPmn7XCZgAgkRUNIEvTUesgiaDwOl0tZC6rhGXlhaXHgMZMIYiCdduOqxUEC5/9xQT6x6D+xJaLbwziZgAiZw6AQsiA6dnb9pAiZQhwQkhhRsPTMH/t4fPv8InNEiiCHXE7IYyAQx4DaE2mASRcoOedFD8P/6hsLK5VUgUeTNBEzABOqDgAVRfVD2OUzABGpNYEdJiCeYuDrUFuo8Hq7oACr86AWkGXgMZPYY+HJ76DgWRi8P8YLz86CgGFy3qNZTqHc0ARM4BAIWRIcAzV8xAROoGwJa9GgBpHiCWx+HW3rA5R1CHRMvhDN7Iez+df9qDJzaHCSKlHThGz3h7tdhbm6wFlsU1c2866OagAmABZFHgQmYQIMSkFtMRVV4C7xyMzw7PRRxVKIEW4W8SLZQiuYYOOLO4E731U7w1FRYuhG2FYFd6Rp0uvbJTSBjCVgQZWzXumEmkB4EJIZ2lsK89dBtIvzyBfhUG4shC4FoCgH3+/v9LlF07v3w097QfizMyAkvTiSKvJmACZhAMglYECWTpo9lAiZQawKqNaL0utnbYVIW9JgUUmpf/BCc0vT9RZEXiGbhMRDdMXBiE/j0A/DDp6HT+BBXmLU1vETRyxRvJmACJpAMAhZEyaDoY5iACSRMQGJoxSYYOB/+MxBu6AYXPBDEkOsKRXcBbPHjvt97DKhukUTRea3hmi7w91eh7xxYsiGIooQnHn/BBEzABGogYEFUAxT/ygRMIPkEFBBdWQ3KIrd6C0xYHeKF/jsoBFGf3BQshLwY3nsx7J89HuJjIC6MVJD5nwPgyakwZkUo5Lq92LFFyZ+xfUQTiBYBC6Jo9bdbawINRkBiaHdZSKkt97i/9IObe8BFbUMWOSdR8OI3vvj1vx4L+44BJViRKPpoM7iwbbAo/+ZFaD/GsUUNNqn7xCaQQQQsiDKoM90UE0hlAnqLqyKrT0yBnz8PFz/sWKF9F33+v4WAx0DtxoDc6JR85ftPgWqVTV4DW4tSeQb0tZmACaQyAQuiVO4dX5sJZBCBxRvgvuGhttBnHnSskBe+tVv4mpM51TQG4i50ii26vis0GwYL8zNownRTTMAE6pWABVG94vbJTCAaBPYAJRWQVxjqh0zLhl5Tghg6rTkcc48XeTUt8vw7jwuPgcTGgFxtFX/49W7w+GSYthYW5UNuARSVg4u5RuOZ41aawOESsCA6XIL+vgmYwAcISAyp2Or6HTBkETzwFvziefhKRzizZRBDR96V2KLHi0Tz8hjwGKhpDCi2SKLojBZwZUf4v+egxTDoPzek9K+qtij6wATt/5iACdRIwIKoRiz+pQmYwKESUOIE1QkZuhiavAG39AxCqKbFjH/nRa7HgMdAMsfA6S3gui5wx6CQ0n/5plDv7FDnM3/PBEwgGgQsiKLRz26lCdQbgTXb4Ol34M994arHghg6rpEXfclc9PlYHk8eAzWPgWMbgUTRl9vDr16AbhNh1ZZ6m/58IhMwgTQlYEGUph3nyzaBVCEglxTFC23aFYKa+8yC3/eBL7QLKXK9cKt54WYu5uIxUHdj4KQmcOGDwYXu+RkwPw827AxxRSoB4M0ETMAE9iZgQbQ3Df9sAiaQMIF48oS3l0PTN+DWx+GzbYMYcvKEulvweTFtth4D+x8DiiuSKLqgDdzcHe5+Hd5cEuKKlGzBmwmYgAnsTcCCaG8a/tkETCBhAht3wlvLoNVwuLqThZAXqftfpJqN2dT3GIgLIyVcaDo0xDbmFyY8zfkLJmACGU7AgijDO9jNM4G6JiBXlDsHwxUdQqYnWYWcRc4L3/pe+Pp8HnM1jYF4FrqP3wtffBT+MxDmrq/rWdHHNwETSDcCFkTp1mO+XhNIEQLlVVBQHN64fvNxOL4RqFhiTYsS/85cPAY8BhpyDOgljV7W3NQdBi+ArUVQVpkik6kvwwRMoMEJWBA1eBf4AkwgPQlIDM3NhS4TQo0hiaEj7vSiryEXfT63x5/HQM1jQHOTRJGyzz3yNkxdE0RRes6+vmoTMIFkE7AgSjZRH88EMpzAjpKQsWnIQug8Hv7wMlzwQM2LEC/OzMVjwGMglcbAea3h58/Dw2/Da/PDXKY5zZsJmEC0CVgQRbv/3XoTSJiAYobuHgzXd4XLOwQxdGITL/pSadHna/F49BioeQyc0BgkihRPpAKudw2G+ethz56Ep0J/wQRMIIMIWBBlUGe6KSZQlwSUXjt/J/SbA9d0rnmx4UWYuXgMeAyk0xi4ujOodlpuARQ7HXddPkJ8bBNIaQIWRCndPb44E0gdAhJDw5ZA4yFw8cNe9KXTos/X6vHqMVDzGFDNNGWeGzgviCJbilLnmeMrMYH6JGBBVJ+0fS4TSCMCsgit3wGLN8C0tcEyJDGkwqufuK/mxYUXXeZS2zGgAPdj7wnZCZWh8PjGIHemExuHgponNwV9TtKnCcgtU/to3+MahYxhTu/u8Vbb8ba//U5vEdx/JYpkKVKyhQV5kLPdFqM0elz5Uk3gsAlYEB02Qh/ABDKTgMTQwPnQ8k34v+eCm5wsQxJDWpDub4Hh35tNbcaAxNDH7oWz7gufs1vBJ++H81vDZx4EvbnX58K24f+fagPn3B/2/URLOK15EEW1OZf38Zjc3xg4thFIFGmsyX3uZ89CoyFBHEkUeTMBE4gGAQuiaPSzW2kCCROQZUhiSMkTtGDY34LCv482G9V2OaVpGCMSyzFR0yYsML/QLiTe+EpH+FonuK4rfL1bqAXz7V5w27PwqxfD59cvwm9fClkL/9wX/tovfP7SD/T/P74Mv3kJfvkC/OIF+Flv0DFu7gE3dg/H/monuKIjfKk9fP6RcA3nS0i1gjNbBgEmi9PRrpfl+3k/JQIk0q96LIgiWYq8mYAJRIOABVE0+tmtNIGECMiP/p21wTIkMaS3qBY+ZrDvGDjiLvhoM7jk4ZCxS+6UP34GJG7+NQBajwip2XtNgRdmwmsLYMRSGLMCJq0OY2x6NsQ/M3JgZg7MWgez9/ro//q9/q59p2XD1LUwKQvGroSRy8Kxn5sB3SdB+7Fw3/BwDbqWHz0Nt/QACSZZnCSK9m2L/28mGgNxy6UsRXKfc0xRQo8O72wCaUvAgihtu84XbgJ1Q0CxQ3k74JXZzibnRXJwS5N7mlza5Lb2uYfgig5hbNzYLYiNf7wKLYbBQ6OCAHpyKrw6F8athDm5sHQjZG8PhTCVyauyOnkLzapq0JjdVgRrtsHC/CCcRq8I1/DUO9BpPDzwFjR5A2Rx+sFTcEO34CKlQp1ylzr3fpArngSerF7u+2gzcPa5unm++KgmkKoELIhStWd8XSbQQATyCuH1haE+hxa/XhhGm4HEkOpNfe/J4LJ29+vQZQL0nQ1vLoGJq4M1Z1E+LNsIKzdD1taQsWvzLigohp2lUFQOZZUgAZPMt+46lo5ZXhnOUVgC24th065wDRJJuiaJMoklWZomrIJhi+Hl2fDYuJBlTO573+gJl7ULosjjPtrjXiLZ2eca6CHk05pAAxCwIGoA6D6lCaQiAVVrV9HVV+YEMaTYDMVdeGGYGQyOuBNimd0ahQW/LCJa/F/dKcT1qL/lVrbvR7E6Kl756Bh4+h14YxHMWw8SzrvLkmvtqY/7onoPVFQFkZa7I7jnDZgfXO0efCssgn/yzIc5iM9N3UNMnWJM5CaomCllv3NMUmbcI3vPdftmn1PxVs2R3kzABDKTgAVRZvarW2UCCROQGLp7cHCFkmVIYsjZ5DJnoScxJFcwLfQuezQkJZAb2UszYfgSGL8qWE4mrIa9P4rV0dhYvim4pOUXhoWh3NSS6fqW8IA9xC/sAeKiqLgiWJMkjFZtCVakuetD7MjeDPTzuFUwejkMXhCEYdOh8M3H4YIHQlpwxVPtvaD2z+nNY9/sc3opoPvAmwmYQGYSsCDKzH51q0yg1gTkaqT4CwW8KwuYF3KZwSBe50dZsy5qGzJn3dw9ZHaTK1DXCcHdbV0BFJUFkSCx4K1mAhJR5VVBQMkFT8kh2o4KWfG++2R4kaDsdhJIyrp31N0gq5zvp8xgcF2XUIZgy+7g+lnzKPFvTcAE0pWABVG69pyv2wSSREBiSJm75BKlBZ0XcJnBIJ4t66uPwX8HQa/JITZMMT9KdCCLiBZ37yU5SNJ4ytTDxC1LEkW7ymDDzmBRUsa7UctDPFL7MfDHV0D1ulRAVqLI91NmMJB7qSyqshbqvvFmAiaQWQQsiDKrP90aEzgoAbk5ySKgGBC5BymBgsTQr14IRTG9gEuPBZxctBS7IguQ4lmUFUs1fuIxQN95IliDGr8RrH9LNgRLoOJnZO3wlhwCsfupHOR2Nz0Hnp8ByrqnJBRyqVPskT6q53Vlx1Bk9uSmYBe79LjP4vOhYu6UiluiaND88FIhtyDEoume8mYCJpDeBCyI0rv/fPUmkDABiaE1W4MQ+vfAECiu1MPnt4YTG6fXIiW+WInivxJDWlh/5TFoNhRemhXcuOKxL6rRo1pSC/Jh/Y6wcJN7pMSQ9VDCt81+v6AsdxJFikfaVhzSi8sCNzkruCQqNku1kvTiocck+Fv/4MIYc6lz3FHaWNBOaBxSsyv+Tinb/94f+s8NmRWVRdGbCZhAehOwIErv/vPVm0DCBBQUr0xhjYbAF9rB0ff4bXU6CColRFCNHNUDUtILFRmVFeieIUEIKRZI7m/eUotAPC24UoErNfnLs+DPfUMh2y8+Gmo7ycp3fGO72KXDfSjLnsSs7sF/Dwi1rmQp8mYCJpDeBCyI0rv/fPUmkDABpY+98zX4cofgbmXXnfSwikkMfb4dfP+pkAZb1oahi4Pbo+JZJIZUj8db6hGQKFLskWokqS6SrEcSRnK/+l2fIG7PaRVEUTqIgqhfo+ZM3Y9yVf3nq8F9LvVGna/IBEwgEQIWRInQ8r4mkIYE4sHgcutQdqznpsON3UP9FAd9p54YUp/IWnD2fSHmRLVvFIPy42dALo4dxsKQhbAgD7YXJb/QaRoO8bS6ZIlWiVdZ9JTgovc0aPIG/PrFEHek/pZLlqxHH7/33Wx1dq1LOde6eBr7a7vAM9NCWnoJXrukptXt6Is1gfcIWBC9h8I/mEBmEtADWkG/SzdC5/Gh/sz5bbzQStW33BJDshZ89wnoOQnGrAg1gqauCdagFZtDQgwViVRMkKwP3tKHQNyFTqJI2crWboOF+SHToyxH6u9hi+GR0fC1Tn5xkar3abzQsZIt/PBpUIZB9WPZu3F66TMifaUmYAIiYEHkcWACGU5gdxlkbYV+c+D/noML2oRFVqouNKJ2XfHkCGfdF1xwZB34+fPw6GhYvCGIWYlab9EgoJcXsuZKADceAt/oCUp68qk2cGqzUFxX1omo3Sep2t54sgVZcF+cGSxFu5xkIRo3q1uZUQQsiDKqO90YE/gwgZzt8NLMkN1KtTRObOLg7VRaXClT3GfbhgQJcp2SC9XoFbBsU4g5sQvOh8d0Jv8mbtGV9Wj2OhgwLxSA/c2LwY3utOZBFKXSGI7ytcjFVaJI8US/7wNPvxPixDJ5jLptJpCJBCyIMrFX3SYT2IuAYk2UUe6qx0IShWzjuSgAACAASURBVCgvXlKp7XHL0KWPwK9ehHajYfhSkEucLAR2hdtrEEfwRwkjJWJQVkilUH9qKtwxMFiMzmsNxzUCW4pSx1KmJAtKyX3HIJi3PoID1k02gTQnYEGU5h3oyzeBgxFQLZrbng1i6Nh7UmcBkUripCGuRZahi9qGYHrVM1m+CZQtbldZcJM7WL/675lNIJ4MpaQixBrJ7VUWo6fegW/1gjNaBFHUEGPX5/zwPBpPi/+TZ4K7Y2aPTrfOBDKPgAVR5vWpWxRxAnqzrMDezbtCJjKlZ76y44cf4F7U1A+TWNa4RnB6iyCA1Bc3dIUfPQ1/6wePT4bVWyM+aN38gxKIJ2NYtCG40CkeUHWolOVM9cQU3H9SUydLaeh57YoO0H1isBJt3AkStE6Hf9Dh7R1MoMEJWBA1eBf4AkwguQQkhhR/MG4l3PN6WDBpMd7QC4Wonv/4RiGF9nVdgjtNz8kwdBFMWRPe+EsMKfGFNxM4GAGJosLSkDFy2trgSqcYo/tHwM+ehQvbusBrQ88zSpWu7ID/HQRvLQsujxJF3kzABFKbgAVRavePr84EEiYgMaSYg0feDgUflcbZ9YbqXxCqeKPihBTv8b0n4d5hMGh+yBynRa03E0gGAVmC9fKj6wT40ythMa5FudJCN7Q4iOL54/WJlBmw9UgYuzJY65PR1z6GCZhA3RGwIKo7tj6yCTQIgSUboc3IEHx9diu70DTUoiyeNOGmHiHzlJJb5O4Ib/iVWtmbCSSDQNw9VjFoehGiwr2XdwgJFyyK6l8UxusTndkyFNi9b3h4CZKMvvYxTMAE6o6ABVHdsfWRTaBeCWhhtLUI3lwSiq+qro3ctRpKEETtvKc0Dal3r+kMN3YPge8/ega0IFLBRqfPrtfbIXInU5yKir1Oy4Y7B4cXIrf0hOu7BoH06Qdcf6w+5yRlAVTiC8UKvr4QNu2C0srIDUs32ATShoAFUdp0lS/UBA5MQGJIcSlK36wU2xJDR7mAY70JQtUhafoG9J0DI5eFt/XqDxVXLSwB11Y98Pj1Xw+PQDzpwrYimJ8HE1fDhNUwZBF0mQB/fAUkiupTFET5XHKdkyiStU4vRd5eHkTR4fWyv20CJlBXBCyI6oqsj2sC9URAb4YVtLsoP2Q3+vnzIW4lyouR+mh73DVG6bM/1QbEXW+CVTfGQdT1NPh9moMS2FESMp71mgK3Ph6yHR5ry3G9CUO5LX//KXhkNMzJhaIyqKw+aLd5BxMwgXomYEFUz8B9OhNINgEtvtfvCIvxXz4PF7Sxa0x9CKL4G2DVEvrNS6DscbIGqT+cZjfZo9zHO1QCileTKJqcBU3egOu6BlFUH/eIzxGy/p3TClSfSNbjNVuDKDrU/vT3TMAE6oaABVHdcPVRTaDOCRRXhCD9metg4PzgrqV6JMoopwxnXowkl4EsQmKrWCGJTtUb+UZP+Fv/kDRBsRtyV/JmAqlIQAk9lKK7xZugGkZXdw51sVzgNbnzRE3zrubjzz0E/3sN+swKrs3Z26GoPBVHiq/JBKJJwIIomv3uVmcAgdgCZz40HwY/eCoE9H+0mcVQTQuSZPwuXmD14ofg932g41h4YxHMzoU124IYKnfQdAbcWZnZhPgLFBV2VQ2jl2eHulhf7xaC/5Nxj/gY+xdXcq296CH41uPwn4Hw/AyQKPJmAiaQGgQsiFKjH3wVJpAwAblntXwzZJFy4dX9L0SStUj7WHP4SsdQ6+WZd2BmDmwvTrjb/AUTSAkCcrNVXazmQ+E7T8Bn24IW7cm6X3ycmlme2hxUo0iZAJX8wpsJmEBqELAgSo1+8FWYQMIE9JZXri8SQw6SrnnxkcxF2WXt4IG3YPQKWLE5iKFy1xNKeNz6C6lBIB57qHlE1op/DQiiKJn3jI/14XnpmHtAouinvWHq2tQYC74KEzABsCDyKDCBNCOgejYKlNbC/KbuH37gehGSXCbHNwbVdLrtWRix1EIozW4XX+5BCOwqhRWb4NnpoLpFcrvVot3zSN0yUK2yUctCbaIq5+Q/yCj1n02g7glYENU9Y5/BBJJKQGKosBSGLoIbutbtQzvqiyIFQyttrlyKHnobFuSDrEISpd5MIBMIVFaBRJHqFv29Pygxi0RR1O/9um7/tV1CkgsXbM2Eu8htyAQCFkSZ0ItuQyQIlFWCiq8u2xSsQw++BXLjqusHd9SOr8XgZY+Cgs1v7gG/fjEUu5V1aMPOSAw1NzKCBJQY5Ol34N8DQ4pojf+vdQrZ0RxblPx59tJHQsa/oYtDDbnNu0BzvDcTMIGGIWBB1DDcfVYTSJiAxNCUNdBjEvzqhSCG/CY3+QsViaG2o2DYYhizAqZnw/JNQQyVViTcbf6CCaQFAaWAliiaux6mrgnuoS/MhLteD6Ioai9G6rq9pzQDiaLbn4PHxsG4lSBR5M0ETKBhCFgQNQx3n9UEEiaQtRWemAK/fAHOb518IVDXC4BUP/5xjeDMlvCz3vD2cthZGmK1Eu4of8EEMoCABJLSQis9t+ptyUp09N2ed5I9j33y/pBgoesEWLUlAwaOm2ACaUrAgihNO86XHT0Cs9fBX/s5PW6yFyTx40kMKUlFqxEhHa5itRwrFL37zC0OBCqrQ+FQxRb96RXPO/F5Itn/ntgEPtUG/vhySOXv8WcCJtAwBCyIGoa7z2oCtSagIH7Vu1ERUL2plSXjyLv8pvZwFyZKmKA33kpbfmVH+Pnz0HokDF4IeYW17h7vaAIZTWD1luCmq5cxP3warugApzX3/HO480/8+/F5SDFbqgvlWKKMvp3cuBQmYEGUwp3jSzMBEZAYmrUu+Jlr4S4xdMSdXpDEFxSH+q/E0ElNQmHbnpNhWjYs2RjEkGq0eDMBE4DdZSBRJAu1Yhi7TQwvELSQP9R7z9/7IDuxVIKc1iMcS+R7zgQaioAFUUOR93lN4CAE9uwBua3Ir1w1Qv74ClzwwAcfpF5YJM5DglJWNqXTvrozNH4jpNM+SHf4zyZgAgRhJGvRRQ+F9NxH3e0XNMmYh+OxRJ3Hw5INTu/vm80E6puABVF9E/f5TKCWBCSGdpWF+iB/6x8yEikzUTIevlE+Rjx5wi09Qjrt8ath8+5adop3M4GIE8gtgP5z4T8DQ82i4xuBRFGU55RktF2xRBe0gd+8GAq2yjNA7tLeTMAE6oeABVH9cPZZTCBhAoUloT6FMsupAKsemF54HPrCK+4i95kHQ6HV+4bDpKxQ28n1PxIenv5CRAko+6JqofWbC3/uG2KKzmgBR98DdqM79PlJlutj7oGvPgayEs3OhYLiiA4yN9sEGoCABVEDQPcpTaA2BNZug97T4Pd94MIHgxjyguPQFxyKFxLH256Fp6aGuKyN7xZDdDa52oxI72MCIRW9RJFced9cAq2GhwKusl5LFCXDWhLFYyguVKJIGed+8Tw8PhlWb/WIMwETqC8CFkT1RdrnMYEECCh+aN56uGuwszod7uJIb12VFUsFV1XQtsuEEDNUXA5V1Ql0inc1ARN4j4ASj+QXhppdTd4IGTC1mLcl+/BEoYptf6Ed/HtgiNfSy5o971H3DyZgAnVFwIKorsj6uCZwiAQkhrRQn5wVCvZpMa9F/eEKg6h+X/yUnU9xWEpru3IL7CgJjMXamwmYQOIENEdJFG3aBQvz4fkZYb46/11RFNX55nDbrbleouhHT4eMc3LntQU78fHpb5hAogQsiBIl5v1NoI4JlFbAhp0hcPnaLhZCh7rAOLZRqDF01WPwz1fhxZmQvb2OO8+HN4GIElixGTqOg588E4q42lJ0eHP31zoFkSnX6aLyiA4qN9sE6pGABVE9wvapTKA2BFSYb9xKuH9EcJ04VEEQ9e+p4Or1XYPb4dDF4IVFbUaf9zGBQyMgq+uCvBD3+NPeIRZGoijq89Chtv9zD4W5a4gLRR/agPS3TCBBAhZECQLz7iZQVwQU07KuAMasgIffDm9aVZviUB+oUf1e3DJ0TWe4+3UYMC9wtS9+XY1cH9cEgguqrNtyn3tsHNz+HFz8MJzcFJThMarz0aG2+xMtQ1xWs6EwfIlf6PgeM4G6JmBBVNeEfXwTqCUBiaFXZsP/XoMbuoHE0AmNvZBIdEERtwzd8zqMXAa5O0Bi0+FCtRyI3s0EDoFAPPZR5QLkPtdvDvz6RZClQ6Io0fs46vurXppE0Vc7wV/7h+LcsnJ7MwETqBsCFkR1w9VHNYFaE1ABVvmIT1sbLBp6AH7sXi8gEl0QxS1DV79rGRo4D9bvqHU3eEcTMIEkElBa7u6TQgppiSLHFB3anH5qM/jio/CvASHRzu4y0DPDmwmYQHIJWBAll6ePZgIJE5AY0ps/WYe+80QQQ8c6q1zCb5RlGbquK9w9GEYshdyCYBlKuEP8BRMwgcMmUFgKizfAc9ND9rl4Su5EX3REfX9lnZMouvXxkBhGtYkkiryZgAkkl4AFUXJ5+mgmkDCBvEJQ4KxqDulNatQXAIm2X/EJpzQN9ZrkbqiYIYkhp9ROeCj6CyaQNAJKy713TNHPnoXPPAhyBVMB0kTv86jvf1FbuGMQDFpgy3fSBqkPZAJ7EbAg2guGfzSBhiAwJxf+3t++9oe64JEYUvD271+GIYvejxlqiL70OU3ABAKBfWOKlPb+e0/CmS2DKDrU+z2q31MclkSR6qnNzvUoMwETSDYBC6JkE/XxTCBBAhNWwy09/MY00YXOUXfDiY2DkPzVi9BzMsidxJsJmEDqEViyEVqPDHPdOa3g6HvgCFuKEraU3dwDxq8KxVqdKCb1xrmvKH0JWBClb9/5yjOAgN6i6uGmh1yigiDq+0sMnd8aftI7FDBcuhF2lmbAoHATTCADCWwtgqlroP2YEOt3SrMgiqI+jyXa/pu6w+gVUFEVRFEGDhU3yQQahIAFUYNg90lNAMorYVsRvLYgLBASfTBGdX/FHyij3AVt4IdPQbvRsCAfyiq9QPB9ZQKpSiA+3+kF0J2D4Wud4IwWIEvvEXf6hVBt53PVV+s7B/ILoaQiVXvb12UC6UfAgij9+sxXnCEEthfDrHXQcRx8ub0XBLVdEMTTa3+zJzw+GRSDJWHpwqsZcmO4GRlJQPenRJHqrb21DFoND4lQjm8URFFt7/+o7/eFdtBmZPAs2Lw7I4eKG2UCDULAgqhBsPukUSYgS8aW3TAzJ8S9/K4PKCVt1B/0tW3/WfeFFLRaFEhQui5HlO8mtz3dCMiqocyaEkWyFF3bBZQyv7b3f9T3O/d+UMa+DmODC+KmXVBamW6jwNdrAqlHwIIo9frEV5ThBCSGJmXBY+Pg+08FMaSihVF/0Nem/QrCvuoxeGIKKEhbVjYVKXSK7Qy/ady8jCGgdNwSRRt3wvw86DEJruzo+a8285/2OaExSBR9qxc8MhrGrASJIm8mYAKHR8CC6PD4+dsmkDCBrK3Qawr84gU4r7UXAoksBMTr932CdS1h8P6CCZhAyhGYthb+77kQT6QaRbWdD6K+3ydlKeoNXSfCqi0p162+IBNIOwIWRGnXZb7gdCcwNxf+NQAufQSUaSnqD/batv/c1nD7c+GN8movANL9NvD1m0CMwOINcN9wuKFbEEW1nQ+ivl+sLtFDrkvk28gEkkXAgihZJH0cE6gFAdWNmLIGfvxMEEOqxRH1B/vB2n9q85B04rcvQfdJMDkLtjqYuBajzbuYQOoTWL8DBs2HFm/CT3vDZY/CR/2i6KDPhaPvhpOawA+eCi7YTiqT+mPdV5jaBCyIUrt/fHUZREBiSA8tpZ299XEXJjyYEIr/XRn4FG+lGiYrNwcxpMQU3kzABNKfgOKJJIoUT/T2cmg7Koii+P3vf2t+aaZ4SokiZdtUHJHrEqX/veAWNCwBC6KG5e+zR4iAFvEqTqi3odd1qfkh54f/+1z0wFeNkm/0hLEuRBihO8VNjSIBJUfZVQZvLoGvdwPd/54PD85AdYn6zYENO6HUdYmieOu4zUkiYEGUJJA+jAkcjIAyoinVttKluu7QwR/0EkPHN4bvPQmTVrvO0MHGl/9uAulMQJkiJYrGrgwvQWIFWy2KDioKL2sHD74V3OaUwdSbCZjAoRGwIDo0bv6WCdSagFwZdpTAvPXQazIoFsZ1h/YviJRpShXsL3kYbu4B9w6DRfm1xu0dTcAE0pjAgjxoNARk+bigTYgnOsaxlvsVRsq8qSx9nceHumwFxVBelcYDwJduAg1EwIKogcD7tNEhIDG0IB96T4OfPOO6Qwdzg5EYurEb/O816Dc3iKHCkuiMF7fUBKJMIDZf5sHz08PLoy+0c5KFA82ZqkskUaTkCirnMCcXJIq8mYAJJEbAgigxXt7bBBImoIDhgfPhjkFwUdv9W0YO9NCL0t/ESKwUayV23kzABKJFQO5zSq3vem21f15c+CD8vT+8MhvWFURrvLi1JpAMAhZEyaDoY5jAAQgs2QCtR8BN3eHMlrV/wEVJBO3d1q91ghdmwNptUFR+ALD+kwmYQMYSkFV4YX5ItX9FR8+be8+RNf18egu4tktwMRY3iUpvJmACtSdgQVR7Vt7TBBIiUFUNxeUwYfX7cUMnNvGDvaaHefx3yiyluKHRziqX0FjzziaQaQSUYGH3Xlnn4nOE/635GaIENOfcD794PsyfO0tDKu5MGxdujwnUFQELoroi6+NGnoDEkFwX5MJwSw+QGFLmJD/Qa2YQT7P9zcdDrSYXGoz8LWQAESYQzzo3ZkWwrnverHnejHOJZ+W8oVuIV12xOaQxj/AQctNNICECFkQJ4fLOJlB7AvmFMGxxyJh08cMHfpjFH2pR/FcPconFT94PcpdThillmvJmAiZgAsrOqQQrV3QILsfH3gNHOh33fl+sfbYt/HsgDJgHuY7B9A1kArUmYEFUa1Te0QQSIzA3F/41AC59BE5pZkG0P7EnMXR+G/jxM/DUOyE9uTJNeTMBEzAB1W+bkQNdJwRL+8fvBYmi/c0nUf/9yU1D8p6/9YfZuR4/JmACtSVgQVRbUt7PBBIkMHE13Pp4cJNz1fWaFzBH3Aln3wff7gUPvw1LNroAa4LDzLubQEYTkOtsWWWosdN4CFzdGSSKoi58DtR+PW++0RP0DPJmAiZQOwIWRLXj5L1MIGECehjpoWQxVPPiRWJIri9fehQeeCskn9i8G5wcKeGh5i+YQMYS0HwgUaQU/EMX2QX5QEJo778pblUJfbyZgAnUjoAFUe04eS8TqDWBiiqQy9eQRXB915rFwN4Prqj+fFpzuLJDcCscuRQUc1VSUWvM3tEETCBCBJRxLmtrqE/2577hRcqpdkXer6VMz57BC0Euh+VVERoobqoJHCIBC6JDBOevmcD+CEgMzc+DrhNDIHBUBc/B2n15e+g0DmbmvC+GlKrcmwmYgAnsSyCehjtnO0zOgnajgyg62DwT1b9/uT10HBtcDSWKvJmACRyYgAXRgfn4ryaQMIG8HTB4QciMdNFDthDtb0GiQrVKqSuLmlxivJmACZjAwQjE67vJqnxjN8+v+5tfL3wQ/v4q9J0Tyj8cjKv/bgJRJ2BBFPUR4PYnncDyTdB+DHzvSTi7lR/Y+3tgqwDr+FVOopD0AegDmkAGE1B9IomisStDEef9zS9R//2ZLeGWniE+c+nGDB4QbpoJJImABVGSQPowJiArh6wdM7LhH6863fb+FiTH3APy/f9pb5i61uPGBEzABBInMGUN/OhpUJrpo13w+kOxRCc1hQvbwv/rG+ZZZeqzJT7xceZvRIeABVF0+totrWMCEkOFpTBiKXz/SfhoM9Dif3/CIKq/lxj64qPw39dCzaE67hYf3gRMIAMJzF4Hf+0HKkQqURTV+XR/7ZZIlChSSQMl+NlaFNKXZ+BQcJNMICkELIiSgtEHMQHYVgTTs4O7nAJanW77g4uU4xvBWffB1zqBigY+Ox3WbvPIMQETMIHECazeCj0nw29fgss7wOkt4NhGH5xz9icWovT7yx6FtqNgUhZs2Z04Z3/DBKJCwIIoKj3tdtY5Aflpq56Oag99oqUfzPsuOiSGvtULWrwZrGgSQ0Xldd4tPoEJmEAGElAabomi1xeGBDbXdQ2iaN95J+r/P6MF3NANWg6HxRsycCC4SSaQJAIWREkC6cOYgKxDv3whiKHj/KbyQy4sFz8ciioOXRzSbHvEmIAJmMDhElhXEDKp/b0/KLNa1AXQvu0/9h742L1w27PwjmM2D3e4+fsZTMCCKIM7102rXwKqjfHdJ0Bi6Mi7/GDe98EsV7kXZkL2dluG6ndk+mwmkLkEdpbCso3wxBT4SkfPu/vOu3oWSRR954ngNpe5I8EtM4HDI2BBdHj8/G0TiBFQKlilkFYq6X0fSFH/vx7ISi5x6+MwekUI7HW2I984JmACySAQL9g6fAnc0iNknHP85oefQ2IzYXUyiPsYJpCZBCyIMrNf3ap6JOC6GB9++O4tAiWGTmse0mzLiiYx5Dqs9ThAfSoTyGACmn8lirTY/8FTTsO999y7988WRBl8E7hpSSFgQZQUjD5IlAko3faOEhiyEK7vemBxsPcDKio/n9oclHXvztdg/voojxS33QRMoK4IzMmFf74KlzwMp6RgGm5ZypUKWy7VJzYOZRmU8EDJZs5pBee2hk+1gc88EGKhLnootOXSh+FAH7X3cw/BRW3D9z7zIFzwAJzfBj55fygOruPf/pxjiOpq7Pm4mUHAgigz+tGtaEAC9mE/sAjUw/mPr8DzM0L8UAN2lU9tAiaQoQSytkKvKfCL5+G81geek+r7ZZRc+GQpl1A7syWc3xq+0A5u6Bpie374dBAsv+sDf+kbhN3/XoMmb0DzoQf+NH0D7hoMdwwM3/tLvzDf/upF+PEzoSaeLGfNh8Gi/AztfDfLBJJAwIIoCRB9iOgSkOtX7g4YOB/uGBTe0tX3wzZVz6e3oHrw//Ap6DEJZuTA9uLojhW33ARMoO4IqMaOau10HBtExrn3wwmND10YxZMRnNQEPtY8WHFktVFRaSVvuKYzfL1biBtV7Khc0vb76RlKDvzoGfj58/CHl+HfA+G+4dBuNDw2LsyRvadBn1nQfy4MXgCKi3pr2YE/2kfeCXoG9ZsTvq+XT09Ohc7jof1Y6DA2HDO3oO74+8gmkO4ELIjSvQd9/Q1GQGJI8TBzc0MdDLmFyT0sVQVKfV+XxNCvXoDuE2HWuiCGyqsarLt8YhMwgQwmUFYZCo8qtbQEwM+eBYmiQ533lJnt4/cGFzYJIFlxZLV5ZHSwRPWdEwTL2JUhoY5imA70kVibsgamZcPMHJi7PtQFWr4JVmyG1VtCoeqc7SDhkrcDNuyEjQf5aJ+8Qli/A5SCXN9XJk9ZzFZuhuWbw/F1zGLXfcvgO8BNO1wCFkSHS9DfjywBxQ7JXW7k0pBu++SmwUf8UB/AmfK9eFY5LSLaj4Fpa2FbUWSHiRtuAiZQjwQ27w4C5YGRIXZRcTsHyjp3tFzZmgVXNrnafbZtcGe7tktwOft/faHR68GK89qCEIejItz5hVBUBlXVoMQO3kzABNKbgAVRevefr74BCcQqpW+B56aDHp4He/BmiuA5WDvkK39qM/jek6GKvBYoenvrzQRMwATqmkBJRRArA+bBN3uCXN40N+9v3pIYuvQRuKVniD+SK1vrEfDU1OCqJuv2grxgZZEVRi939CJM51F2O4uhuu5RH98E6oeABVH9cPZZMpCAfNYnroYH3oLL2u3/gbu/B3Gm/v6jzcIb1n8PCK5yfoOagYPfTTKBFCUgN2ZZ7+Wa9td+IQObrPeyEkkYKbGB3Hk//whc2RG+3Qv+8WqYx3tNBgmpcatAViAJH28mYALRIGBBFI1+divrgID8tF+cCX/uC59+wIIoLvDkdqJMT1pcyC/eb1DrYPD5kCZgAjUSiMd2Ki6n20S47d1YIokhWYuUpvqXL4SEBj0nw95ucIq7UZIcWbUlhiSsvJmACUSDgAVRNPrZrawDAos3QKsRcGM3UD2JuCCI+r+ylslqJuuZrGjeTMAETKC+CWzeBeNWhkxrv3kJbn08ZLxUraInpsLoFSGpgZIWlFbU99X5fCZgAqlGwIIo1XrE15M2BOSSoRSqEkMqthd1IRRv/3VdQgpYiSHHDqXNcPaFmkBGEdDcI1GkTGtK+a8XNMrypgKusgRt2gWFpUEMya3XmwmYQLQJWBBFu//d+sMgoBSrqjsRFwL+N7AQE7HxZgImYAImYAImYALpQMCCKB16ydeYkgQsiD4sBhW4/I2e4W1sSnaaL8oETMAETMAETMAE9iFgQbQPEP/XBA5GIB60K/90VSi3ZSgwUCYnVXL/W3+YnXswiv67CZiACZiACZiACaQGAQui1OgHX0UaEVBaV/mnj1oON3a3IIoLQhU0/M/AED+keh3eTMAETMAETMAETCAdCFgQpUMv+RpTioDEkBIGDJwPSiAQFwRR/ffIu+DYRnBdV+g9LQQx7ypLqS7zxZiACZiACZiACZjAfglYEO0Xjf9gAjUTKCyBhfnQY1Io7BdVIRRvt8TQ6S3gJ88Eq9muUqh0/Y6aB49/awImYAImYAImkHIELIhSrkt8QalOYOOusPBvMQwufcQWoo82A9UeumMgzM11IdZUH7++PhMwARMwARMwgQ8SsCD6IA//zwQOSiB7Ozw/A/70Cnz6AQuiT94PP+0NXScEd7mDAvQOJmACJmACJmACJpBCBCyIUqgzfCmpTUDJFCqqYH4e3Dc8JFQ4o6UFkaxk9w6DUctAVd+9mYAJmIAJmIAJmEA6EbAgSqfe8rU2KAGJoZ2lwV3uZ71BYui4RhZE13aBV+cGMVRa0aBd5JObgAmYgAmYgAmYQMIELIgSRuYvRJVAcTmsK4A+s+DqzhZC8aQKt/QAFan1ZgImYAImYAImYALpSMCCKB17zdfcIAQKimFOLnQaD5d3sCCyIGqQYeiTmoAJ/8ErnQAAIABJREFUmIAJmIAJJJmABVGSgfpwmUtAxUYHzYc7BsFFbS2Ijr4bTmkKP34Gpq7J3H53y0zABEzABEzABDKbgAVRZvevW5dEAks2Qpu3QC5iZzqZQkwMXfow/GtASLedRNQ+lAmYgAmYgAmYgAnUGwELonpD7ROlK4E9gDLMzcyB/6dU2w/CSU1sITrrPvh2L3jkbVi2KV1719dtAiZgAiZgAiYQdQIWRFEfAW7/QQnE021PWAU/ehpOaQZH32NBdOGD8PdXoe+ckGzioCC9gwmYgAmYgAmYgAmkIAELohTsFF9SahEoqYC8Qug3B67vCkfdDUfcFV1BpNihk5vCdV3gsXEwPRu2FaVWn/lqTMAETMAETMAETKC2BCyIakvK+0WWwKZdMGYFtBoOX2gXbTGkzHISQ59tC394OdRkkhgqr4zs8HDDTcAETMAETMAE0pyABVGad6Avv+4JrN0Gz00PAuCCB6JrGYqn2T6jBdzYDVqNgMUb6p6/z2ACJmACJmACJmACdUnAgqgu6frYGUFgxWboOBZ+8BSc08qC6PzW8KsX4MmpkLU1I7rYjTABEzABEzABE4gwAQuiCHe+m147Aovy4d5hcG0XOL2FBdHFD0OjITBsMeQX1o6h9zIBEzABEzABEzCBVCVgQZSqPePrShkCc3LhH6/CJQ+HQqRx17Go/nt5B+g0HsSloDhluskXYgImYAImYAImYAKHRMCC6JCw+UtRIqAsar98AT5xHxzXyBaiqzvDy7Nh/Q5QBj5vJmACJmACJmACJpDOBCyI0rn3fO31QmByFnz3ySCGjoxwuu24RUwJFUYuDWKoqrpeusAnMQETMAETMAETMIE6I2BBVGdofeBMITBhNdzSw5ahuCASCzHxZgImYAImYAImYAKZQMCCKBN60W2oUwIWRB8UgxZEdTrcfHATMAETMAETMIF6JmBBVM/Afbr0IzBxNXzzcTjmHji+yR5ObLaHk+/dwyktqznl/kpOalPBCQ+Uc+yDZRzZtoSPPFTMRx5uuM8RD5VwVNtSjnmwjOMeLOeENhWcfH8lp9xXzSktqmPXf0wjkPvfEXd+UOzErUA1/XvEXXD03XDr4yAm3kzABEwgigT2AFV7oKwadlbAxhLIKYLVu2BpIczbDjO3wjtbYMpmmLgJJjTwZ/JmmL4V5myDBQWwvBCyd0N+CWwuhYJy2FUBpVWhbVHsV7c52gQsiKLd/259LQjEY4g+eu8ezm5TzQXtqvhcp0ou6VnGxc8WcWGfQs57pYDT+2/h2EH5fOT1XD4yJJePvNEwn6NeX88JgzZw6qub+US/bZzXZwcX9S7i0l5lXNKtggsereK0lns49l1RVJP4qel3EkMnNYEfPgVT1tQCnHcxARMwgQwjIDFUvScIh61lsKwQRuVDnzXw+Apouwj+Nwv+MBVunwg/GAe3joFb3m7Yz/fGwq8nwz+nQ+M50G4xvJAFw9bD+E0wexus3AkbS0PbMqzb3BwTOCgBC6KDIvIOmU4gvO3bQ2n1HnZWVbOpooo1pRUsKS5jXlEpvVeWcv0rJXy0SzFn9yrigmd38bk+O7lkQAEXD9vChaM2ct7oPE4ft45jJ63mI1NX8pF3VvCRaQ3zOWrqSk6YlMWp47P5xNhczhu1gYuGbuXSQQVc0q+QC57bxWndijju0RKOeriEox4s5bgHyjmxdSUntazmpGZ7YpYwWcT2TiJxQmP4ZCv47UswIyfTR4XbZwImEGUClXugqBK2lwUL0JrdsLAAZmwFWVskgl5bB0+uhBbz4K/T4OeTgvj50ptw/mA4fQCc2A+Oehk+0qdhP8f3hXMGwSVvwFdHwHfGwp/egUZzoM0CeGwpPL0KBuUEi5asXEt2gNotC5IsYXHrkZ6Z3kwg0whYEGVaj7o9CROo2rOH4moJoUqWlZQzprCYpzYV0jp3K/9bu4kfLdrAuePWc8ybuRw/ch0njlrHyaNzOGVsNqdMWMtJk9ZwwuQsjp2ymiMbWAxJhB3xzgokio6ZsorjpqzmhElrOHnCWk4Zl80pY3Ji13/M8HUc9cZ6jh6Uz4mvbuITfbfxqed2cWH3Mj79aBVntalGFjGJori16LTmcEUHuGswzM9LGLO/YAImYAJpQ0BiaO3u4Po2Mg+eWQVN5sBvp8CPxsM3RsP1b8FXhsOlQ+Ezr8N5r8EnBsKprwYhdOwrQQwd0cBiSGJMokyi6JT+8LFX4axB8OnX4eI34AtD4ctvwlUjQrtkSZKVq/WCIJLGbgyWsE2lUFxpl7q0GcS+0IQIWBAlhMs7pxOB8j17KKisIq+8ktWl5SwoKuOdXSVM2Fn8gc/YwmJGFBQxYNsunti0g1a5W/nNqg3ctCSXLy3I5tw5WZwwY2WDWXzqytJ0xNSVHDVpNSfKkjRmPZ96cxMX9i/g08/t4qxeRTGL2DGPvh8LdWqnYr74XDF/eruE/jmlMZ4rS8rZUF5JSfUe/NYwne4OX6sJRItA3NVNQmd9cVjgywqiuBpZfPaN8RmeB8+vhg5LoNncIIRkWTn3NTi5Pxz9ChyRApafZFueTugb2igr101vw2+mQKv5wRI2IBtG5MHYDR/mpXgpxSYpjiqvOMQklbssQ7RusjRvrQVRmnegL3//BCSG5haV8vr2XfTYUEDj7C3ctiKPW5bkfuBz85Jcvr54HdcuXsdXFubw+flr+dTcNZw5ezWnzlwVE0NHTW8Y97e6EkOx476zgpgokiVpchYnTlzDSWOzOWnUupglTBaxI4e+Hwel/586KpdLp6zntiUbYjy75BcwvKAoJjqr91gU7X80+i8mYAINSUBxPxXVweozMAceXgT/nRXiahRfs2+Mz9dHwddGBMuJ3Mw+NThYViQYMlUMxS1JaqOsXGcODO3+/NBgCbt2JIjLzTXEQ902IcQm9VgOr+fC3O1BFDVkn/vcJpAIAQuiRGh535QkoGw/slBIAOWXV5JVWsHi4jJG7yii+4YC7szezO0r8rlqYQ4fm7U64yw9dSqaaoiDkrXsvDlZMZ4/XZ5H05wt9N+6M2Z9kxUuu6yCXVXVscBjW41S8pbxRZlAxhOIC6Ad5ZC1KyzQJ22CF7PgjpnwrTHwxWFw9qDgSpZsS0vUjic3PLncKZHEnbOg+3IYvQEW7wj889+1GpU4i13G33vp2kALonTtOV/3ewQkhuQWJ2vQ0ILd9Nq0g5brtvK7VRu4fvE6PjdvbcztTWLo2OmZ5/pW34JI1jKJIvH85JwsvjB/LTcvWcevV+bTOHszz28uRK50ZdV7YqLovY7yDyZgAiZQTwRkDVIiALlxKfHB/2aGxbrifj43BM5SrE//IIZSIelBugsoxUtJFMmlUHzF+XdToeV86LUChspqtC2400kUeTOBVCNgQZRqPeLrOSgBWYSUEU4WofXvCqHXtu2ic34B92Rv5hcr82NC6DNz13DSjFW2CNVg5UmmiJJAOn7GSs6ZncVXF+bwp9UbeGbTjliclkSqxJEEa0FlNYrr8mYCJmACySageJVtZaEekGoBTd8S4l26LYNfTYIvD4MzBsAxr8CRGRj7k2qC6qR+IdGEhNEvJsE9s6HzUngtJ1jrFMel2kfxzHXJHg8+ngkkSsCCKFFi3r/BCUgMKZBfi+1B23bx4Ppt/Hh5HpcvyObieWtj7lynz1odE0NH2yJU54LwiGkriIsiWY0kRK9ZlBOL17ore3NMqA7etpu5RWUxUdTgA8gXYAImkHEEJIambQn1gB5YCH+ZBooNulIpsF8L1qDj3hVDqZD1LdUETLKv5+iXQaJIqceVfU/Z7C5/E348Hh5cGNJ7K85oQ4nrHmXczZimDbIgStOOy/TLlh2h7N0scYpJmbW79L3McG/tKKLf1p2xhfYdazfzraXrOWt2Vp0v/JNpVcnkY0kgSYieMWs1VyzIjonV/63djBIwDNm++71+nL67hBUl5WysqGR3VTWVTsqQ6be122cCh0xAMUFl1VBYHrLExa1A8exwqgmkYqMSQt94Gy4aAqf0A4ufhq1/tK/Qkqui4rcUx9V5GfTLhrfy389aN2sbZO8GxX7J6mefgkO+ZfzFBAlYECUIzLvXPQFNgKoNtPXdLHEvbCnkT6s3vpcZ7sYl62IWCFmELpq3NiaG5LKVySIj3domUXTc9JWcNnNVLM5I/aT+UkxXPMvfr1fl0zF/OyN3FMUSYcRFUd2PMJ/BBEwg3QhIDG0tC8VRVTy07UL45aT3s8Nd9xZ8aVhw01ItoJP7gawU+y7I/f+GZaJaSBJFEqyyGF0zEm4c9X4/qljsC1mglOiy+slF3qIo3e7W9LxeC6L07LeMvOq4K5yKo87YXcobBbvpuqEgJoY+PXeNBU8dxwLVt+g6Z04WP1i+nmbrtvDc5kJG7yiOuUHmlFXECuVm5CB3o0zABBIisLsi1LZRnZshuSF7mawL3xwdiqBa4DSswEk2fxWLlSjquiwkYpixNdSMsmtdQreNdz4EAhZEhwDNX6kbAooLUk2b9nnb+UvWRr6zbD1fXZSDxJCTI2ReHaRYIoY5WVw6fy3XLFrHz1bk0ThnCy9v3YlEkTcTMIFoE1AOllU74fEV8Ndp8O0xcMXwYF2QFei4vpklBpItLtLxeIo7kihSEdzvjAkukO0Xw/D1Id4o2neEW1+XBCyI6pKuj10jgYo9eyisqo4teveODVJcUJOcLXxv2fqYK9wpM1fFYlHq23Lh89Wv+ApJGVZy5qzVfG1RDn/L2shLW3a+F2s0c3dpzKVuW2VVLJW33SdqvK38SxNISwLBRRqKKsOCd/lOmL41xJSM3wi9V4UsZUrlLDe4dFzk+5oT7ze5OyoGTK51So7RZE6IN4rHjCnWaF0RFFaEgrtpOfh90SlFwIIopboj8y9GD78dVdWxwqmyBPw56/3YIGUmu2T+Ws6encXJ74ohLZYtUDKfQTzm6OPvZqm7elHOe7FGf1i9gSc37WDarhI2V1TF4sssijJ/rnALo0EgVli7CtbuDmmy2y+BX08OMSU3vx0sBcpS5pigxEVFOgsxJcOQKFK/q3juJW+EeKNb3g5j48/vwCtrQ+FXiSI/E6IxX9RlKy2I6pKujx0joNoz2yurULa4BcVlKEvcE5t2xCwBStFswZP5gudw+vj8uVkoAUP7/O28vn13bAypBpUfgJ5gTCB9Cej+lRjaUgqKE3lpDTSbC98fGxbA6byY97XXvXj7zOvwt+nwxEoYlR8K8OYUwfaykJ0ufe8MX3lDEbAgaijyETqvxJBc417aUhhzibt9RR7XLV4Xq1fj2CCLoYOJpRNnrESi6CsLc2LulK1yt8ZEkTIRWhRFaCJxUzOKQKzAdhXM3AqNZodMY18YGsSQMpFZVJjBgcZAvPCrsgvePhGazg2ietbWIIoy6mZxY+qFgAVRvWCO5knisULzikrptbEglihBMSJnzV6N02RbCB1MCO3792Omr+TUmatirnRyoZtTVMrasoqY9bGs2uIomrOMW50uBPTyQrWEiithUwksL4Qpm6HLsuAKJRF0lNNkWwj2SUwIxtN4f20E/OUd6LUipOxWvaqK6nS5O3ydqUDAgigVeiEDr0EPP8UKLSwuo/fmHfxkRV7MIqQYEYmho6ZbEOy74Pf/Dzwmjpy2Aomic+dk8c2ludyZvRnVqJqxu4StFVVU22KUgTOJm5QpBOKFVXOL4O38IIQUB6I3/GcODGLIRVQTEwMHsqBE5W8S0RJFH3811KD66Xh4dlWoV6XirvYiyJQZpO7bYUFU94wz/gwx14fqPbFF6cqScmYXlTJlVwlDtu+m+8aCWOIE1xE68GLfYqj2fI6dvhIJ6ysWZvOnrA2x2KJB23YxaWdxzDVzRUk5WyqqKKneE4tRyPgb0A00gRQkUFkNuyogvzgEvquO0JgN0GcNtJgHP5sQMojJ9ckFVC2EkiXgFFskS1H35aFulayQs7fByp2hsG9pVYhdS8FbxpfUwAQsiBq4AzLh9PGCqpN3ltApfzt/W7ORHy3P4/rF62KLVtcRqv1i38Lo4KxkKZIoOm3WqliNqi8tyI7FpP1w+Xr+mrWRjvnbmbizhLzyypgoyoR7zG0wgXQjIDGkRejQXGg1P2SOU12Zq0fCpUPhk3tljrNlyIIoWYIoHlukelXXvwU/Gh+SL3RaCpM3h9TuEkXeTGBfAhZE+xLx/2tNQKZoBbZr4TliRxEPrd8WE0Kfm7c2ljbbi/uDL+7NKHmMlKr9s/PW8oNleTyQu403C3aTW1ZBpV3pan1Pe0cTOFwCco0rr4asXdA/OyRM+PooOGdQcG1K1sLXx7GIqs0YUNpu1bCSMHpoUUjtnlccrER2pzvcuz2zvm9BlFn9Wa+tkRgqrq6Oucf9Y81G9Kb+k3PeryHkxX7yFvtmeXCWR09fGRPi58zO4rL52TFr0YSdxeyqqo6Jonq9OXwyE4goAYmhbWUhFfIfpsLFb8AZA4IYctIEi5jaiJhk7hOvZfTJQfClYfCP6SGZR7Fd5yI6Q+2/2RZE+2fjv+xDQAtLxQjN3F2K3OPGFhYzsqCIdnnb+PKCbI6cvgIXUj34wt3ipu4ZaRx+cUF2zGo5rGA3YwqLYlnpNrzrRqe4N28mYAKHT0CxQrsrYH1xiNVQwoTB6+D+BaA02slc3PpY5nmoY0BumUe+DF9+E9othpF5MHZjcKNT6ne5d8rN01t0CVgQRbfvE265xFCn/AJ+v2oD31+2npuX5HLj4nUxy5DSIVsM1f1C32Kq9ow1JiWKbli8jpuWrOOfazYxvKDIsUUJ3/n+ggnsn4DE0KqdMCgH/joNbhoVYjckhj7a3wv4Q13A+3vJHzsSRae+GixFN46Cm9+G748DWTI7Lw2iaP8j3X/JdAIWRJnew4fZPr1IV7aujeWVDN2+m5+vzOf8OVmoWKYX57VfnJtVw7O6ZP5amuZs4bVtu2LWovzyypjLp0pV2GB0mBOFvx4ZArpXFCe0uxJyi2H61lAQ846ZIWucF/LJX8ibad0xPbEfnD8YfjEpJADZWAIlVX4mRGZC26uhFkR7wfCPHySgB188aYJc41qu28KVC7NjYsh1hBp+gW+RlVgfnDJzFZfOXxuridUmdytvbN/NurIKVEDY9fs+eO/7fyawPwLxekJZu2FADjSfB98dG8SQAti9eDeDdBoDimuTKLpyOLScF1zpnHRhf3d/Zv/egiiz+zfh1gWLUDV6e760pCyWMOGVrTtplrOF7y5bz9mzs2wZmpbYQtzCJTV4yaVTcW5nz14dK+x6d/ZmXtqyMxYPt7i4LOZKpyQhthglPG34CxlMIG4RKnrXIrSwACZsgudWw79ngjLIKWlCOi2Cfa3ur33HwNmDgrBvNhdeWRsSLywthHxbjDJ4dvtg0yyIPsgj0v+LW4TWl1egQHSl0f7FynyuWZSD3I0kho63q5wFYRoLQokijeFPzF6N0sNfvSgn5gb6wPptsULCObYYRXoOdOM/TCCeRnvNuxah++bDbRPhqyPgs0OCGDruFS+w911g+//pNSaO7wsSRZe8AdeMDC50StM9bH1IGKJEPFojectcAhZEmdu3CbdMWeSWl5QzePuumEXo1qW5sYWjLRypYeFwP9RNP0gcfWNpLo1ytjBg2y5kLSqsshNdwhOIv5CRBHaUw4IC6LsW/jvLFiELnfQSOofaX58YCLeOAVmMlDVxeaGz0GXkBLdXoyyI9oIR9R+VRa5L/vaYVeiKhdkxMXScLUK2CKWxRag2IlJjXKJIdbR+siKPR/O2x14MRH0+cPtNQASWFcLDi+CH4+GyYbYIHeoC299LLyF1XF+QKLpieLAWdVnmLHSZPiNaEGV6D9eifeV79lBQWcXbO4r4zap8LpjrLHK1WUh7n7qx2DQUV7nSnTMni9tX5MfSc2+tqKJM/kLeTCCCBMqqYEtpcBn66YSwONQi0Qt7M4jSGFDChQsGw28mg2psFZSDig97yzwCFkSZ16cJt0hiaE5RKd02FHDd4nXOIpfhFpGGEhypfl5lTpQo+uqiHNrlbWfKzhIkiiyJEp5S/IU0J6AxLzE0aVOwDl01AiSGVNgySotht9X9Hc9Cd91b0G0ZzNkWRFGa3+K+/BoIWBDVACXTf6VYoRUl5czYXRrLsPX69t10zt/OH1Zv4IK5a+wiZkEU6TFw3pysWKIFJRUZtG0XE3cWM3VXCUuKy9jp2KJMnx4j276dFaCsWu9sCUJoYA60XQi3T4RzX/PC2OIo2mNAVqJ4AdfXc2HyZpixFVbsdGxRpkyaFkSZ0pMJtENiqEP+dn6zagPfW7ae6xev4/IF2TExdOKMVZFeDKe6FcPXV/dueifMWIlE0RcXZMcspt9emstPV+Sh2kUSRd5MIBMJSAw9sBBumwDfHgN6I66YIYmhE+wqZ8tYn2gLorjr3OVvwvVvwffGBje6DkuCKMrEOSFqbbIgilCPV+7Zg6xDYwqLYokTFC/hNNp1v8C2iElvxsdMX8lpM1fx/WXrY8VcHVsUoUkzAk1VPMT2shAr9INx8LFX4Vin0bYAirgAOphFUGm6zxkUEi6M2RCsRJWOLUrrGdOCKK27L7GLj7vK9d60gxsWr4uJIcVNeMFuBh4D+x8DR05bgUTRlQuzeThvG5N3FsdiixK7+7y3CaQmAYkhuf50XAKKFZIYcqxQtK0hBxMD/jsotkii6IZR8OzqkIFuV0Vq3uO+qtoRsCCqHae03UvBsUqaML+oLFZs9alNO/jXmk18dp5jhSwC9i8CzObDbM5VBrqVebR9N7ZoblEpGysqKa3eg4r2eTOBdCCwZw/oTfbWMpi3PdRYab8Yfj0Zzh9sIeDFvsdAImNAxYn/PQOeXhWsrPO3h6QLfiSkw2z4wWu0IPogj4z6n27Iqj17Yhnk7szeHLMKXbUwJyaGTp7pWCEv+j+86DeT/TNRbJFE0WXvxhbpxcKoHUVsqqiKiaKMmjzcmIwlIDGkN9kKCr9jZoiH+NKwIIYUJ5HIYtD7mlfUx8DJ/UCiSNZVWYvunBUy0eklmUVRek2jFkTp1V+1utoghGBHVXWswKSsQhJCXuzuf7FrNmaT6Bj4/Py13Je7lRE7ilhZWk5hVTUVev3uzQRSkIAWaCVVsL44ZJJrvwS+9KYX9FFf0Lv9yb0HrhoOT62E5YWwo1wvpS2MUnA6rPGSLIhqxJLev9QNKDeeRcVlsdpC/7ciP5Y1K9EFn/e3SPAY2P8YOG3WKi5fmM3/y9pIny07WVxcFhNF6T17+OozlUBcDI3Kh0Zz4Ouj4IwByV0MenFtnlEfA+e9Bv838f+z9x7gsVVV+/gfLnCp0kF67116lS6IokhRVAQBBVERRETAggof/FT4lGZBAbm9995req+TydRkkslMMskk0yfJ+3/es+983Mu9yU2Zds5Z53nuk5vJzCnvXnvPevda612qZ1F1NxDtV6TIqOuKkZ5LCJGBRpM9UigLvCEY0VJ53mnvxj2NHpxeboekyA3t2IrTL9iMxQb2LGjExEILzq6w4wfNXjASy55F9mhCU3MckJ1BA62u+n2UWD/QEQUqA8BsF/BiOXDlUuCQ6cDeoiYnKYKiJpdWG2AK3enzlHz9O43A8jZgQwdQ2w2w15cc+YuAEKL8HZtR3xnJEHul3N3Qipvr3LikyqnVPJAM7VVgkZQ5abgqNpBGG9hjayNIig4qasKpZTbcWOvGj2xefODt0RofxwYGQVIkhyCQSwRIhla3A+yX8vV1wNkLgMNmKDIkanIS0TF7RCfdz7/XJICkiP27LlkM3LwSuHsd8LtKRYpyuRbItYdHQAjR8Pjo4q/sLxQaGMCK7hDuamjBwUVNmkzwWHa95TMSLREbGJsNcN5dWOnA96zt+NgX1JQdOxL9iAsx0sU6aqSbJA8PJQF3CFjdBvyxGvjKWtU3Jd0OoJxPSJXYwNA2wCjswdOBu9YAKzxqXiZloywvl1shRHk5LKO7KZIheyyBj309uKbGpZEh9k4Rx1YwEBvIng2wVxFJ0VkVdtzV0IpX3J3YHIygcxspGt2slncLAmNDgL4W60gdfcA0B/BsiaoXYhNJ9k0R51UwEBvIng0wCktSdM0y4ONmwN6nSNHYZrd8KpMICCHKJLoZPjcjQ6lmq7M6e/GMowNnlNuFCAkZFBvIoQ3sW2jBMaXNuKXOjTdau7AuGIYv0Z/h1UBOLwgoBCipbQmqeiHKal+1FDhcxBOECEqtUE5t4Ix5wDPFwCwn0BhU0veUwJcjfxAQQpQ/YzHqOyEZotzvNH8vHrK24dwKOz4n/YWEDOSQDEhEqhETChqRIkVXVDvxnNOHynBs1PNbPiAIjAWB5l7gvUbgO5uAixYpMrSPiCfk1BmWiEz2IjL5ivXnpgHnLgAe2qwit9y04OaFHPmDgBCi/BmLEd8Je52w5wlFFKb4g/ix3aspXTFlR1LlspciJc6/YD2cDUwosGD/wiYtjfWd9gC29ka0OdsaTyIiagsjXu/kjcMjoLVZ2KYkVx0A/msDvrUROHM+cNA0cUTz1UGW+zKXbaZS5yhqwsjtFLsSWehJAAmJFA2/yGXpr0KIsgR0Oi9DMsSeJx/5enCfhbLaNk3pimSIylfDOWnyN8FHbCA7NsC5SFJ0eLEVl1Q5tLn6G7cfczr7QFIkhyCQDgTY56Q9osQTXigDblkFnDpXkaG9JDIkkSFJlcsLG9jjE4CkiJsUlOW+bwPwUTNQ0w2QFMmRewSEEOV+DEZ8B4wMsdcQyRAFFB63teOUcpsQICGBYgM6sIEjiq24vsaNX7v9qArHpIP5iFc+eeNwCHgjwEqPkvVlvRAVraS/kLmiDxJt0t94nzIXeLwA+NimSBHT56SmaLiVLvN/E0KUeYzTdgWSofpIHJN8QTygRYak4apEO7IT7RCcx4/zxAILSIrYLHltMIzowKBGitK2QMiJTIkF0cmWAAAgAElEQVRARZcq1v7CYuDImdJfSMiB/siBGccs1cD1gY3AJDvQ0CM1RblewIUQ5XoERnD9/sFBhAcGtGaPk/xBPGnzampyTMeRFLnxO6ri7AuG2bSBCyodeL21C8u7Q1gfDGsRX6bByiEIjASB2ADgjwHWXqDID7zToJTkKKk9YZI4w2Z0ruWZ9Wf3TKHjfD1jPvBkITDZrtTnwkklmz+StUDek14EhBClF8+MnI1kyBVLYE5XL77V5MFp5TYcWNQkZEgHaVLZdLTlWvogduxVRFJ0Y60bd9a34CWXXyNFGVk85KSGQ4BkaGMH8E4j8N3NACNDlNWmc0UnS5xjwUBsQB82wPl64DTgtHlKCGWOC3CFAJIiObKPgBCi7GM+4itSiCo2MAhHLIFFgT487/RpTR/F8dWH4yvjJOM0nA3sVWDBAYVNuK2uBQsDfQgk+xEflBbmI14gTfpGRobebgTu3QCcMAfYQ6JCQgKFCOveBs6aDzxfBixqARwh+n6AiJFmd5EXQpRdvEd1NZIhNnRc1RPCUzavplR1SHGTFNBLZEhswAA2wHRXkqIvVDnxpieAkr6oRopGtUjIm02FAOlyoV/1GDp+NrD/VH3shEvEQsZJbGB4GzhkOnDJYuCpImBVG+CLKVJkqgUuxw8rhCjHA7Cry7OagIpynnhS63L/amsn2OCRu8l0oIbbdZa/SVRCbEBfNnBSmQ3fbWrDO+3dWq+i9kRSE1zY1dogr5kTARKhUBJwhlSfoSuWDu9cifMp+IgN6MsG9poEHDAV4Nx+tQZY5wU8EdWjSCJF2Vn3hRBlB+dRXSUlr72lN4JfOn24rsaFo0uaNTIkIgr6cnaFnMh47c4G2LyVpOj2+hb8vqUTy7pDaEskIclzo1o2Dftm2gGbr9r7VOH1DwpUnyFxePXl8Mp4yXgNZwOsJyIpOnoWcN1y4JdlwBYfEJTGrVlb24UQZQ3qkV2IX35Mk9sQDGtKVNfXuHBYsRX7SGRIImMGSBPbHTkw898/X9KML9W34AWnD9P8QZSFovAn+0GVSSFHI1s/jfSuvqRSkivuBNZ7gQ+bVd+Sy5cCh80Q53I451L+JvahVxvYZ7Ka39cvB16vATZ4AV8U8h2QhcVdCFEWQB7pJej0MDRa2hfFU3avpkTFviUkQ3uKMyyESGzA0Dawb6EFJEVnV9hxVbUTP7F7wSgxVSZJiuQwFwIUT3i3UZGgu9YAly8B2MyRZIhOk14dPrlvGTuxgaFtYM9Jan4fMQO4YKGqKSrtVL6hfAtk9jtACFFm8R3V2SMDg2iJJ7XGq6wZMvNuuTy7pJqZ3QYuqnTgL54uFPdFwboiiqxILvmollRdvpnclx3rC/zAY1uBM+YBbOIoTqRgIDZgPhtgTREbt7aEgUi/Lpc03dy0EKI8GiqKKMzv6sMzjg6t8arZHUJ5fiFFZraBo0qsuLnWjZddfi2F1p/o10hRHi1ZcisZQIBkqC8BLPMAd6xWZIi1BeIMCwZiA+azATZufaYEmO8GPOEMLDhyyv9DQAjR/0GRu/909w+gMhzDVH8Qzzo6cFOdG3SGzOwMyrMLGTK7DUwssODIYituqHXjDy2dWNrdB0skju7kgKZCmbsVS66cCQRYPF3Xo2oGlrQCr1YD5y80nwMoTr+MudjApzZw1EzgppXAsyXAVAdQGQC645lYgeScQojywAZIhp5z+nBtjUtrvEoyNLFQ5LXN7hDL85ubFLJuUCNFJVacV+nAg00efNjRg8pQTCNFebB0yS2kEQGSoT9UAV9fB9y8UpGhg6d96hiJkyhYiA2YzwYmTgFIiti49drlwHOlihSlcemRU21DQAhRDk2BBXLJwUGs6Qnj5jq3yGqLaIBEBcUGhrSBk8tseMTajn96u7W6IqpRsq5IDn0jQEntaD+wph342joRTRCn33xOv4z57sd8j0nAXpOBW1aqtYLrhqz+6V37hRClF89RnY1kKDQwgCXdIVxf64L0GDJ3REAiQjL+w9kAGzOfUmbDXQ0t+LOnS2vaTFIkh74RIBlqiwDTHQCldqkgR6UpcRIFA7EBsYHtbYCk6IblwNJWIJxU/cn0vfrl190LIcrBeEQHBuFNJFEXiWnRoddaO3F+pWPIneHhnCT5W+6c6L0KLDigqEnrE/X50macUm7TpNKpEMj0R9Z+fLHWjRuz+I/Xu7rGBSqUnVluB6MKTMGkpLMQ7tzZSrrmKcfwuNJmfL2xFa+0dGJmZy8qQjF0JfsxANkxzMFyPupLpkQTqBpV1gUs96jaADZiZFrM9g6Q/F8/eLCx5oRJwAFTgWNnA6fPA85dAHxhsUp1unEFkM1/X1wB3LBCXZtKZRcsUrLtn5+lopC8TxHr0I99pdYC1hW+Vq2iREyz9UZVhHnUC5F8YCcEhBDtBEnmXyAZWtkTwv/zdOF+i0cjQwcXNQkh0lm6FMnQqeU2XFnjxJ0NLXjc5sUbni584gtiQaAPK3vCWNsT1nby1wUz/3NtMKwR7NmdvZpc888dHXjY2oabat1af5sJBUKK0kVMcnme/QotGiliXRHJ79OODi2FLjE4qJGizK9gcoXxIEAFuaYgMNsFPFmo6oWuXqbI0EFSM6RbQkgytP8U4NR5wN3rgJ8WA7+rBN63AAtagHXe7P5b2w6sbFPX/sQGvFGrelrduQa4cilw6lxF3lKOtvzUBzliXSFJ0f0bgP9Xq8aYpEiO8SMghGj8GI74DKkUOXagf721U0t9Oaa0WYhQnhMhRoIOKmrSIi0nltlwZoUdF1Y6NKJBwvGCy6eR28n+IAr7onDHkgj2KyUw7tpn62A+8cDgIDqT/SgNRbEw0IePOnrwituPByweXF/jwmVVTu3+jyyxgo71hAL9R01ySU7y4dpfqHLivfZu1IbjWqSI64zklmdr1o3+OowMkQw9XQycswDYW1LkdEeCGA3iuJHAHjtLOajXLgNuXw08uhV4q16N8VqvUg6kgmC2D5YXJgYAXtsdAgr9wGS7cqJfKAMe3qzUyy5cBJw5Hzhxjire5zOxVkUIUn5jcMws4K61wOu1KtIcSrImPdtWZqzrCSHK4niyXsgeS2CaP4ivNbZqu7x0SvPBqZJ7GJoYkAydXWHXhC++09SG55wd+JOnC5N9QawPhlEdjqExEocrltAc0vDAoCaLnIsUJq6H8cFBBJL9YF8rRyyBmnAMm4IRzOvq0wryqWh4Q61L7C/PifhI5+Sxpc3aesK6IqbPcZ0hKZIjPxFgmhwjQyRD3O1lvRAdbHFA9YFBKjXukOkqqvfVtcAfq4FpDrVbX9wJWIKqkWZHVBESEpNsH1wBUqSI9SZdMcAVAhqDQHUAWO9VBOlPtUq57DubVLTy7AWK6Ik95rc97jcFOG62EmKh7dn7AJIiOcaOgBCisWM36k+2xZNYHAjhF06f5mDvWdAodR156JRS6viIYitOKrNp48S6nMea27VeMB909GBRoE9LUSLZoPOZ7wfvkOlUgeSARtx4/791+zUZ51vq3Li0yolzKuxCkPLQFkdCilJiC6wr+ru3W4sOkhDLkV8I0CnuiQMLW1QtiUSG8tvh3J4QsJj9wKnAyXOBixepuhwSoR8WAG/WAZs6lDBGpF8/dXx0nh0hgARuUQvwQZOSfX9sK8D6IxKjk+YAR8wAJkrEKO82LEjMuZnCcfpFKbC4Rdlgfq16+robIURZHK+qcAzPO31g0f1hxVYhQ3nqgJIMXVfjwkPWNrzo8mlRFdbn1EXiWoSPxJZF7HrZidd2CrdFjnr7B8D7r90WNVrQ1Yd/ebvxssuPexpbcXxps9hlntrlUORIE/fYpkB3e32LRtxpq3LkFwIkQ1UB4O0GVWgvkSF9EKKU3DFFEh7eAvylDpjhBFijk4oG+WOqsJ1SyHo5mF5FUtQVV440Iwws0udz/bMJeLEceGgzcN1yRYq2J4jy//ywXZKiw2YAFM14vkytL3qxv3y8TyFEWRgV7s6zpmRZdwhfaWjFocVW7FMgqXJDOXiZfj3lQDLV6JIqh5Y+tr0a3H0WD152+/Gfjh4s7w5p5IHjZ7QjlVpnicSxqieEv7UFwJTAlCoeSSFrjpguSKwo/LG32G3epriymTMVBUmK2KuIdWTu+Kf1bEazX708D7vKs7v8fLciQ49uUWpf4lTmj1NJcrrvFOCImWpsWFdD4QHKoN+0Erh1FfD4VuCjZqCkUyl7xQZUSppe7HCk98mao9pupX74HyvwcgVw34ZPFfI09brlwCWLVf2UqNXl1o4p03/odOAra4FlntylaI7UvvL5fUKIsjA6dKbrwnEtneXKapdGhtiFPtOOv5x/1xgzxYhy1Hc3tuLd9oCm+MfmuCkluK29Ea3uhvVe7QnjOpSkeCRFjBpR+bApGtdEIVI4MLXuA28PXnT58fWG1v9TQxT57l3bVa7nG1NwSYoo1HJVtQtP2LyY3tmL+khc25DJwlInl9gFAiRDz5aonXY6kaeIuldepR+RDNGpPGY2cP0KgCljf6pTUuh0MFlrs8GriJCjDwjEVTSI9Tk6CgjtwjJ3/VJKiKE9oupSarqBrb5PFfLYQHilB3i3Ebh7rUojJCkSgp8bDFL2SwL/d0vuRDx2bU36elUIUQbHi4sli5tZazLd34unbF6cVm4TIpQDMkgnnuIIZ1XYcVOdW0uHe6stgNpITCMFxov/jN+w+/oHNJK0ojuE/20LaPZ7Z30Lzquw45CiJpDUCznKP3LEcWEEmpG9H9m8mOoPaoIf47cIOcNoEGAEgalUVJS7ZhnA1CtxGvMHA6YbsQ/PkTOBS5cAD2wAfl0BTLKrVDg2y2XTXDl2RIBEMD6gokhU02NaHaNo7KFFhTriKnaefQxOmwc8VaQaPJO4MyXSiIR9R2tM729CiNKL5w5nIxlincnm3gh+bO/QmmXSkcz1TrLZrk+nnbvndBApaDHN34sNwQgsUbVzTjIkC8cOpqv9QvslKdo+ekQp79+5/bi40iGRzhwQ+5HMXc3etzbic0VNOL3cpgmClPRJo4qdLTyzr5AMsdj+1WolyyxOYvadxOEwJxmiUAJ7QP25TjW6ZDTPGVJ1NSRDeqoJyqw1f3p2fleSFDG1jmp6jJ5R5YyF/Szwl9q43Ng5VQ8vWgT8uAjY3KHqw0iK5Bg5AkKIRo7VqN/pT/ZrZIgNWNlAkREK1q+MxKmR94xt553OINOGKIzAaBwFLFgTw6jQkzavpvLXEk8iwhVdjlEhwPQ69jhiSt0zjg7cXteiSZFfWe3EGeV2rX5l30Jp/ppPc5fzgXVyf20LYEtvBBR2cW5TR5QZMCrzH/GbWTNUEQBmORUZum89cPzs3DhJwxECs/yNEQs2TWVa17Gzldz5VUtVXRDrLn5VDhT5xYEcsYF/5o1U1mNvrcWtSk6e0aIbV6hCf0YtNJW6KRI5yvR8I8E/aBvBZ8PWzT4Vof7McMmvwyAghGgYcMb7p/JQFD+xe7UmnocXWzUyRAclnxwmI90LsZ1QwMLyZlxb48JTdi8m+YKaA89+QWyIS4U1kiHZ+Ru9dadqjnyJfq3fDaNsxHWKP6gRpJvr3Fr9Ckm/2Hn+zPNDiptwcZVDUxGkyuUkfxC2WAL90sB19JNgBJ8gGXqmREUe2FGeZIg9QzLtEMn5d40xyRDxP3We6tnCtLgZDhXZYASvulv16JEUoxEY9y7ewu9SkiKmGLLHFmuu1nmBSTaVwnXtctXwleMg6XS7ttF0zN1UCujhMwCKgvykCCjv2sWAyUtDIiCEaEhoxv4HLaQMgIX6VC8zEunIx2eh8hmdvhPLbLikygn2Y/mVy48Znb2aytbYR1I+ORIE2AB2fqAPr7R04l6LR9sAkNTQ/CFEqTlLqf/Lq51apHRWZ6+WMkpBDTnSgwCdQk8EmGpXCmXpcHLkHON3IClLfPkS4HubVc+gVW1KJS49oy5nGQoBd1jJk1O+++vrlNT8iXMApnaxB5fYdmYxoBogBTCMKv4xlN2N53UhRONBb4jPpnbSV/aENEnnlEMiPzPjJJIMXVTlwLea2vCmJ4BFgdD/SQ6HJTVuCCtN38uMuJEUVYRiWNod0mqMKLwgUaLM2PtY1xEKLZAUXVjp0OTV32vvRnM0kT5DMPmZSIbYdPW5UuDM+Zl1dsSZHBm+FLLgbvnrNcC6dqC+R5EhEUvI/GQN9wMkRYwaMZ3uzXrgwY2qzoWkSGw4sxjcsFypAVIAQ9ygkdm7EKKR4TSqd4UHBrQ8/Y99PdqO7FgdGPnc8A7lhIJGsGaFYgnfb27HP9h7pS+KzkQ/4rICjMpm0/HmVF8j9jR6xNqOcypUXdH+hRZwrMSe8wMDTW2x3I4fNHs1mXX2SZM40dhnAB0/1lCsbFPNLG9ZqVKExOHLrMM3FL4psYRjZikxi8cLVHpcXwJIiqGP3dDH+Ek65J0xoLQT+IcF+P4W4Oz5qu8T0+iGGkd5fXzYMCr6cTPg7APCyTEOnsk+JoQoAwPO3fIFgT486+jAmeV2cQQzVDdFMsSeK3c3tGrKcbZoAoGkIkPChzJg2Ls5ZSoySpn5eV19eNnl10QXTihtBkmREKL8IESs8SIpuqO+RYvosU8aSZEco0eAqHEXfJZLRYYor33UTGCi1AzlzNGlchyL+e9aA/yhSkUnSFhJhsTMR2/j4/0Ev4tJiti/ydarFOnYv4iElc1whfhkBgNGqdn/bIEb8ITHO4rm+LwQojSOMyWKrdEEKE38gsuHW+rcmvKWOILpcQTpyB1Y1ITjS5txWbVTc+gebGoDVfwaI/E0jqScajwIMELqiiWwsieMP7R04rtNbWD/ItavsCEuUxxZ9yXzIj3zYqw4nlfp0MaHDXjXBsNaM+IeqSkakemTCNHBY9Ey+9ZQ6va65UpRSxy8zDh4Q+HKepSDpwMnzVG1QlSO05qr1qrIEJ1B1nfJkR8INAYBqqAxfe6O1cBlS5TwCIkso3tDjbO8PjpsuDHDaPULZSqV19oL9EmkaNhJIIRoWHhG90eSoXfau7X8/C9UOTUyRAnosTos8rkdHUaSIUpp32tpxQcdPdgYjGgpPyRDUhw+OlvN5LupXkZS5E30oy4SR1FfVBurj3w9eNjartV7kRSJfe9o39nGg32KSIoo/ELCyoheTTiWSdMwxLk10ZxBVRvxs2IlL3x6Sl5YisWz7tCSDLFOiKIJHzWr3k8lnQAdb19UkSFRFc2fqdebUGNT6Ac2dgAfWIF716uoHkmREJ/0YMAoNUnRFxYD39kEvNMIkBTJMTQCQoiGxmbUf2Hzw8ea23FauV2LZGTbwTHq9fYrtODY0mYtwvCdpja83R6ANSoRoVEbaI4/wFQ6kiLKobM3FKNFBxQKMcr1vGXklePAvlJLAiFICt3QE4VkKJQE7H3K+WaevjhwucFg/6nAyXMAqmk9WQh82Aw4+oYeO/lLfiJAJ53O+nc3qQjfsbNEpj6da0oqhZRRU24UyDE0AkKIhsZm1H/Z1BvBVxpaNTJEJyPXjo5Rrk8y9NWGVk3WeXEghKZoHExPlENfCIQGBkBSxMauVDij8AJJkVHsVK/PQTVArldsYvx3bzfqI3GNFOnLujJ/t6nIEMnQf23Ao1uBU+bmhgyk02HS67lIhhgVojO9tl2RIZJVOfSFANO4mnpVrdfvq4CvrgVIivRql/l23ymREaaSsu+WHEMjIIRoaGxG/JfYwCD8iX6wt8fVNS5x8MYposD6koOLVF8hph5+0+LBXzxdWN0T1tKw6JjIoV8EupMDmkR3KoWOc4apW6wN27+wSeS6xzl/xkrMTi234Yc2L973dmt1kIV9Ea02z5tIImpylRKuOV1xlSbHtCySoUuXAIeKfHDWHFc2V2Uh/jkLgKuWAg9vBj60qjqubkkY0O8XAgDOL28UWN0O/KUO+OZG4NLFqi5M+halhxxevQyY5QT8USAmNXW7nC9CiHYJy+heJBnaGFQF5HTsxuqQyOdUTQXJUKpXCnes1wfD2q51R6Lf9I7Z6CwzP99NRTOSIkaLWF80s7NXK+5nU9eTymyYUGARUpQDUnRAURNIirgJcW2NCw82efBnTxcoo05SZNaDzhprUCgb/HSxSuthZIhkaB+pGcoKIWI/oWNnA3etBV6qUEplrEFhtI5kKCEJA7qfnuwN1RFVvaLWe5VEN9PoLlqkmrnmW+RFb/dz3kKlurjRq0iR7g0mAw8ghGgcoKa+KC3RuJYC9IDFA0oMC7EZW7F4Skb7qhqXtlP9gbcHDZE4GIEz+Qb1OKw0vz/KOeRL9GNDMIy/tgVwv8WDcyscYMG/zKOxzaN04UZJ+7saWjRSROESjpWZDj4v152ebUXg/2xSUSG9OUJ6v1/WQJwxD6BUMxusst9TW0SNjdls0gzzj3OOEYyGHuDfVuCJAuCqZSLTPd55fMJs4IENwHuNgCWoNnlk/uw4o4QQ7YjHqH7jriFTSTb3RvB4czvOKrdr/T3S5ZCY7TwpB+yVFj+WdYfAvkJUj+MCKRN3VKapqzeT8JIUVYdjmNvVh186fTirQvp35Xr+pzYovtXkwdbeiOnmIdcd9k+p7wHebVRpPCfMSU/6ynidGzN9ngp+lDWfZFNROqZWMZog3wm6WuZHfLMcV849qtHZ+oBlHuCVKhUdZMqkmWw/nc960DTgrPnA41uBzT41h0R9cUezFEK0Ix4j+o0TNjk4CKZwFfZF8aYngKurXZpSk4gpjHxXO1XMfWixFWdX2PG1xla83tqJldtSdOQLb0TmaJg3RQYG0RpPgsIZrGVhpPCcCrvWfJfOea4Jglmvf1GlA295AtgQjKC4L6r1WjOyqAmLvKl8VeQH1rQDf7eondWzFwB0KtLppMi5dsaTaYiHzwBOnafSE1mvNdMJNAWBvoRhljt5kBEgQB+ABJhRwddrga+tA86er9JVKRawxyc724/MqV1jQrwOmAqwlujNOoApp0xRlIbFnxqiEKJPsRjx/0iG6BAwMvS0owOXVjlxRLFVU2qik29Wx2m0z03yeFBRk4YfG9lSlKIiFNXqFcxexD1iYzTQG7lbRVLUFk+iNBTF9M5evOz2a2lbjB6O1r7k/elZiw4pagJJ0V0NrVpbAfZaY881ox4kQ283AN/fAty5RvXxYLoJydBeUjOUcUJIMkSn7YltUtoFPsAdUmSIzpsc5kKA0UCSooouJQrARqMUXDhIGrmOai6SPJIUHTFDpf6yHnJzh8yr7WeTEKLt0Rjh/0mGKP38744eXFXjBFXR9hQiNGqH9bBiK66sduGn9g4s6Q7BHU9oDT1HOAzyNgMjoO0MJpJaQf+v3X6cX+kQsYUcrzGqMbId329u11LoKI5hJP+UNkdSzp1TkqFT56odVdlx3vWOc6ZwOW0e8KNCJZxA0QTZwTbwQj+KRwsnFTFe0gr8tAi4cilw2Izs2mambD6b591zErD3ZKXU+O8mibxub4JCiLZHY4T/Z1rPvK4+/MzRodU6kAxJZGj0u9FU5PtDSyfWBsNwxRQZ6h+URLkRmqHh38YoIdXNZnf24uY6tybJTQU6ifyMfq6lAzNGdEmKbq9v0dIae/oHQFJklEOrCe0HVrUBd6xWZIg7qtl0Vsx+Le5i09FlvRCjQuwrZCATM8pUyclzcH6SFLlCqu/UH6oAKqeZfc6M9vk5x0iKWE/0s2JgngtoDedkSPPuokKIxjAkbFz4Wmsnbqt34+gSqzhoo9y5nlDQCNaE0Mmd39WHrmQ/4vKtNwZLNMdHKsMx/Nzpw+XVTny+pBkTJSKb0zXngkoH/qe1C2xE7Yknda8CyaWHUYjOGFARAP7WAFy8WByt0TpaY31/ykFjChTlzBmdK+40x9omTzl6BCh00hUD5ruBm1cC+04BJsjGxaiJ4dEzgdtWAa9VK+GY0Y+E8T4hhGgMY8reKQ9Z23BiGRtJyo71aHefU+pVlClnoTbJkJFSb8ZgUvKRYRCgeMmaYBivtnbii7VuHFls1UjRaO1O3p+eyBLrJa+rceEXTh/W9IQ1cRkqBer1IBlisT77DP1PDfDlNUrid6wOvnxudGQylcJDae3HtgL/tQHOkF6tSe470wik1B83eJXYCZXnSIpk3o0Og/2nAifOAR7arARkMj1ueji/EKJRjBK/8jkZ1wXDWtrIxEIL9ixIj5NhZGeNKYXc1T+qxKo1XL21zo1vNnnwhqdL6zM0iiGQt5oQgZQsN3sV/YYiC/Wtmvoca9D2kRS6rEeLiDmVIUlO/9YWQElfFIGk/lqfcy1nQ0/2tGGzQiovUUSB0tp0FsTByiwGJEJUlPv8LJUm94MC4BMbUBlQzVZNuNTJI48CgYYg8EatksO/dRVw4SLgqJnAxCkqJUzm7/Dzl/OPWN2+Gljnlb5eND0hRKOYgPwCpXO2ojuEG2vdGhmS2qHdE0KSIe7q31Tr1po8Lu0OaQp9bLrKPkNyCALDIZCad+xVVBuOYbq/F0/avLii2gmSIiNvJuTjs3GDg6TojHI7HrG248OOHjhi+lOdIxnqjqt6hB8WABctUs45yZCk4AzvTKXD2UzJa9+yUkmbM0LHyBDHhGMjhyAwHALsU0RSRKW0pa3An2uBm1YCR24jRemwUSOfI5WqeuMKYEUbfVtFiobD3Oh/E0I0ihEODwzAHUtgki+oOWP56Kzk4z0dWWLVCOSvXX4w3ZAqfZQul0MQGAsCFOCY6g/iaXsHrq1xSZ+iUdbwjXeNoKrmwUVNuKTKiadsXkz2BzVRlLGMZS4+k4oMtUdUg0KmyV0gxdlZi4iRbO43RUXi6MD+thKo7c6FJcg1jYBAKuWVfcN+XQHQwScpMjKZSeezXZESMQkDYf0F+tNqwkKIRgEnFa9W9YS03ihsGDlex8Isn2cR9uutXdjSG4E30a+RIaFDozA8eesOCHBjgqSIc/H3LdKnKNvrCMnQhZUOrSfRnK4+2GMJhLdKdDgAACAASURBVAb0s6WfigyxW/uL5cAN4kBl1XkkGTp2NvCl1cBfG4ACvxK02GGSyy+CwAgRSImisFfRFh/wumxwjGo+n7MAeLlCqWsSQzMfQohGMPqUlqXELLu0s+7l7oZWHCuNIoclhEwlZNPV08vteNjajtU9YXQbTKZ3BKYjb8kgAqkNij97uvBgk0eLWEiD5N2nsI6VQKVqhy6ucuDx5nb8p6NHa9BKqXw9bHCo1EugJQysaVcCCiRDbFQ4URqujsqJGssO9cHTVZ0HaxYe3AS8VqPU5IIJSZHL4DJpmlOnNjpWtwEPbwZOn6eaKTM1bCz2apbPHDsLuHutqseiumOPieejEKIRLBckQzXhGD7o6MFdDS0aGdpP1OWGJEQkQ+wXc1aFXWu6OquzV9tFNlojxxGYjrwlgwik+hQ1RuIo7Ivg3fZuXF/j1og4e+aM1fGXz+2aVFFI4dIqp1a/Rbl8RoaY/qoHMkQzZI68P6by5R/fqtLktHqDyVKEnQ3nj0Xvf6oFVrcDW31K6rdrW70QyaocgsB4EEilwrKZ7ywn8NNi1WuHKZpCioYmhVrEdhZw1xrgAytQ061I0XjGQq+fFUI0gpFjrw06AM84OrRCYnGYdu0wpXA5oLAJp5TZcL/Fg2n+XjRHleM0AqjlLYLAmBGoDsfwgtOn1RUdV9oMblqw51XKLuXn2LBgZOjwYisuq1Zk6BNfEE4diSikGq66t0WGXpGGjlndMad4wmEzgK+vA9Z7AfaREQI05mVOPrgbBPqSQHMvMM0B3L9B9bY6QFQjdzvnz5gPPFOi+jt5TNqoVQjRbiYX/0w1tDdau3BHfYvWGFIcq+EdqxPLbPh2Uxve93aDTqqIKIzAyOQt40bAn+jHpmAEf/F0abL4TGuVSO7wc3UkaxnJ0NU1Ljzt6MDCQAj2aAIhHalDRvsB5savalNf+FctAw6fMfSOaTaiJWa6BsnQlUuBX5YpSW2SIQkIjXu5kxMMgUByECApqg4A71uAb29S/XbMNOfG8qyUv79jNfBGDdDQMwS4Bn9ZCNEIBrg0FMUTNi/OKrdr6TgjcSLM+B6mKTE6ROfpzbYuTVGuS4f9SUZgEvKWPESADX7ZD6egN6I1cb2nsRXnVzq06AajHGack+N5ZsrlsybrymqnFh2f3tkLVyyp7e7rwaFlLjzTP0iEZjiB31Qqx5y1LHtLzdBud4zH4lRt/5lDpgMXLwK+sV6Roal2wCUNV/Nw5TTmLXXFVMNR9he7ehnAKNFek2QjZPs5uv3/D5qmUgyfKFBNqo1pFcM/lRCi4fHR/rq5N4KvNrRKbcJu5H1TqXLfaWrD8u4QSIbopMohCGQDAeqc0d46k/2oj8Qxu7NXq2G7psalkaLxkAMzfpZk6LoaF37u7MCy7hDc8STCA/oQUKC9kQxRPYm7ntctB85doFK3SIbYlHB7Z0D+n348SIb+t14pf1UFFBkKJ7OxEsg1BAGVmklStNwDfGeTpM7tbo3ba7ISofjqWtXbyYw2JIRoN6NOd35tT1jrym5Gp2gkz0wRBUaHTiht1ogjVb9Y6C6HIJBLBOjAz+jsxc8dPlwv/YpGHCGbWGjBUSVWkEg+5+zQiGVLXD+eLGuG6Hiv8CgyJDvD6Sc7wzlXbGx7whzgoc1qhz6Xa4BcWxBoDAJ/rgPo6NMuGSUSkYWh14QvrlDNqs24ly2EaJj1gmSIDURX9YRxQ617xA7FSEiEkd6zfarcW20BTZ5cUuWGMSz5U1YQYDSDpIiS739s6cRXGlq1Jq5GmnuZeBaSoVvq3HjR5cPKnhBIhiI6qoInGXKGgE9sKlVGHKChnZ/hiM1Y/rbHJFWv8a2NwN8tqrg9K5NdLiIIDIEAlQwpJ/1WvaTOjWROsxUB04zZ8NZspEgI0RCTiC/HBgbBQm3KRrMuJhPOhxHOmWrU+KTNi3VB6Tc0jEnJn3KAQEeiXyNFv3H7cV6lA4xoGmHepfsZUpGh62tdeMntx8JAH6iwqZeDxdShJGDtBea5gedKgTPnZ48MjMTZMPJ7GIk7ZS5w9zrg7UZpuKqXeWP0+0z1J1rnBZ4sBC5cCBw8TdaFodYi1ltRttwfBWL9RreOHZ9PCNGOeOzwW3eyH+WhKBj1uKjKIU7UEI7k6eU2/Nju1dKT2JtE+g3tYEbyS44R4MYGSdHMzl5cV+vS0juFFO1MClORIZIhRtVIhvQUGSIZcvQBc13Ao9v6DInjkz3H7+S5wMNbgH82AaVdQGdM1XHkePrL5U2OwPb9iSiu8uMi1bR1KEJg9tcvWqSiaeVdQLfJKh+EEO1isUilylmjCXzU0YNHmttxcplNCNFnCNGeWxtB9a6ralz4p7dbK2QP6kiOdxdDLy8ZGIHKcAzPOX24qc6t1cecV2nHESVWUE2NtpzuiItezrdvoUVLJbyx1o2X9RgZGgB6EwBrBbiz+fMS1XR13ykAmzKa3cHJ1POzDoP4knSyh8l9G1Rjx4qA+RwpAy+bhnm0YEI1AyZhp/Q++2OJuMrO6yM3Nh7ZAnzUrKLtZkqdE0K0i+nOuiH2zlnXE8b3rO04tdyGA4qaTOswDeXYkQwdVmzVhBSoKkcyxOiQHIJAPiLQ3T8AkqIVPSEtWvT7Fr8WMaKaGknRUHZu9NePKW3W6qtYZ8WUV71FhkiGLEFgqgNg7QrT5OikS4f6nZ2ddJIj4kvSef5C1d9pugOo7VZkiGlKcggC+YQAbZKkiKpzFFhgfyySonTOCSOci6mvp84FvrcZWNcO9CVUPVE+jWWm7kUI0S6QDQ0MwBFL4GNfEFdWu7BngUXqDnaxg04ydEW1E887fagKx3aBpLwkCOQfAkyh8yX6Nef/Vy4fGBk5ssRqOkKUigxRQOHVlk5NPMab0E/SOB0c9hqq7VFkSFJhsuPcMTJEoQo2t6W09mNbgTkuwNanarjyb8bLHQkCnyJACfjny4ArlipSZAQSk85n4Pxm5IzNlD9uVmnITEc2wyGEaBejzHqDtcEwfitF2MM6iWeW2/GsowMLuvRVfL2LIZeXTIQAc8pJitriSRT2RvEnTxcurDRfjWAqMkQytDEYAclQVEdqcqnGqx/bgG9uiwyxuWA6nQM51854kgxxF/nSxcBL5cDCFpVaQ6eJwhZyCAL5jIAnDCxwA8+WiOjKUOsbSdF5C4DfVioJ7o5oPo9o+u5NCNEusLRG43i7PYBvWFpxXGnzsKTA6Ok02z8fC9EnFDTi0GIrzq904GFrmyak0BSNaymGu4BSXhIE8haBVGrspmBEEwW5stoJknyKC1BxbXvbN9L/9yu04PjSZtxW34LXWrt0FxmKDwCBOMBalQ+bgccLVJG0pMjtTF6GcnjG8jp3jSdOBo6dDVy/XNVqLfMALWEgop/AYt6uR3Jj2UGAKWBNQYACCxQBYcrnodMlxfaza8Jxs4FvrAfeblAbHtkZndxeRQjRLvAv7IviO01tGhmi82AkZ2g8z0IyRDwuq3bitdZOLYrG1ELWW9G5lEMQ0BMCKfEUSuuXhaKY4g9qEU+KLpAUjWeu5PNnSYbus3jwZlsAW3r1FxkiGSrtVH1uvr5OST0fOFWaLX7WoUn37yRDR8wAblsF/KsJqAwA7RFFhtgMVw5BQA8IUCSApIiKlGu9wGs1wGVLgP1EhGWH6DrxICn6ziag0K+HkR3/PQoh2gWGLCxmXUE+OzW5uLcDi5pAie1Hmts0MtQrRGgX1iMv6REB+nOt8SQWBPo0UsRIUS7mWCavuX+hBSeWNePO+hatlcDm3gj8Sf1s7aciQ2Vdigw9tBk4aU5moyLpJhV6PF9KPOGEOcBNK1UaDcUT5BAE9IwAiREFWUiKqKp2+jyAGyt6nKOZvOcbVwDs4WSGQwjRLkZZCNGuJYi5s3y/xYN32gNoiMS1qJBsDO7CgOQlXSLAnjtUWJvqD+KqaqehhFSY7npSWTMebPLgb20BFPVFNTIU01Fkd/vI0NfWAZSHZS1LJp0BObdSkvv8LBUZeqse2OpTPYZ0OcnlpgWBbQhw6SMpaggC7zQC928Ajp8t68ln1zwhRCafMkKIdk2I2LeFUsUbgmFNpcvkZiKPb1AESvqieLS5HaeV23BQUZPWo0jPjVwPKGzS+qh9taFV28xgSnCXjiJDsQHAHwOKO4H3LQAjQyRDe0iPoayQwaNnAreuAn5XqcgQmzWKrLZBFz8TPpYvCmzwAr+vAs5bKIRICJEJJ8FwjyyEaNeE6KoaJ6Z3BuFNJHWlRjXcWMvfBIHPIuCKJTDZH8QPbe04s8KOvXXeuPWkMhsesrbhfW83SkOKDMV1FBkiGdrsA/63HrhrjUqTk8hQ9hw3dq7/Sx1Q7AeoNkUypCMxws9Ob/ldENgBgWg/4I0A7KN11dLszavPEo98/V0iRDuYi3l+YVPR7uQA5nX1aZ3sM5nPr6dzU0yB9QesPVgfDKN/cBCSKmeeeWG2J+3pH0BNOKaJLJAUsU/PtTUunFNhx+d00qCZES3W/J1SbsPXG1vx921kKKCnyFC/csC3+IA361RKywmzRTwh044TZbVZS8GC6ksWAz8qBDZ2mKtBo9nWPDM/L30ZioKs9wJ3rgb2n6oU5zI9z/Ry/muWAfPc5mi4LDVE260EJEPloZhWcHxRlfn6kgxF0lLF2NxlZrqNkKHtjEb+azgEuDFCUsRIESMqK3tCmN3Zi1+7/RopGmqe5MvrSh7fgtPL7Xjc1o4PO3pQEYqBZEhPkSFGI1a3A/9TA9y+SuX37z9FdnAz7UiRDJ0xT0nuvtuo0uS8UVVvoaPAouHWJXmgzCFAn4ZKakzHPXGOIkWZnmd6OT8jxKwdLO9SpChzo5D7Mwsh2m4MWFA9P9CHZxwdOMOAKlNjddiOLLHii7Vu/M7tR204th1i8l9BwPgIsIkrpbkZOb61zg3W5OxVkL9y/EoN0q4JoHzk69GiXSR4ejm0FJaoikpQEvcra4FjZgkRyrQDtddkgI1tz1mgGt3+tR6o6QY4HiKrrZfZI/c5VgSonMg6uS+uAI6cKetNar05Yz7wTAkw3w2wqa2RDyFE241uczSB99q7NUeCimpjJRBG+xzJ4dOODszt6tWkibeDTP4rCBgeAdZLkBRt6o3ge9Y2TaCApChf5znT5BgZIhmqDse0aBejXno5GI1Y1Qa8Wg3cslKRoX0lMpRxAQWSobMXAN/eBEyyAXXdakeYZEg/1qMXK5f7zDcEWsPAXBfwdLGKkKYIgdl/UnmPCnzvNQLNvfk2aum9HyFEUAWidHiK+6J4zunD5dVOHFZs3MaMI3Xk9i9sAguy72ls1dJuGB0K6minOb1TRc5mdgSaonH8tS2AR6zt+HJ9Cy6qdOCQPKgpYorcnlsbNUU89gmjNL4eI0ORfsATUT0v/lgtkaFsOWL7TAYOnQ5cuEilDFHJr6EHYN8nEU8w+6pnnucPJgBGiT5sBu5Zp8RbWE+UrXmYr9c5bAZw+VLguVKl9EnVT6OuC0KIoHZ/mRLDpox3NbRoZGifPE6JGSmhGe/7SIa+Z23HP709qAwpMqSnnWbzLOXypNlAoK9/ACRF7OGzIRjBW56ARorGO8/G+3mSISrhnV1hx0/sXk0MgpsXTJPT03wlGVrYArxcAVDZiGlyEhnKvENGMnTpEuCJQrVDzl1gNqyk0yORoWysLHKNfECA6okkRZUB4J9NwPek8bNGBrlhQlJEhc8FLaoFAkmREQ8hRAB6+wfQGInjH95uXFrlzNtUmPE6TqP9PHfA3/QEUBaKagXZRpwA8kyCwGgRoJNIZ3FrbxQPNrXh2NJm7FeYu5oi9koiGfpuUxum+3s10kbyppeDkSGmq6xsA14qV2lyR0kOf8Z3punoHD5DkaEnC4FPbIAzpBerkfsUBDKDABtAl3UBb9YDFBTI18hNtu/r0sXAPyxAY1BtmGQG/dyeVQgRoDUZZe8higacW2EXQrRV9SG6usalqWt16kydKrdTSq5uBgRIiiyRuKZIeXdDq0aKRrvhkK73M02OkSGSoYZIHCRDSZ3UDBHHljAwxwU8XwZcuwwgGZooNUMZd8RIhth35afFaufX3geEkmaYvfKMgsDQCDBVtDMGzHYBVy8TQpQiXucuUKIT67wAm9ka8RBCBMAWTeBf3m58u8mDE8tETIGOGusSbqx1Y01PGAPSd8iIc1+eaZwIdCT6sbYnrJGibze14ZIqBw4vtoJ9uzh/0kV4PnseJavdiIOLmrTGsYxSTdNZZIhEiDuxlHKdZFdO+fXLgSNmiAOSckAy9ZNkk6STzt7PioFpDhUZkhS5cS4I8nFDIJDKAFjTrlJ39/hE1iSuRZQjp+DKv5oAW58hhnqnhxBCBGgpYU/avFraCdNPPuuAmO135XBZtIaUbMTKBUIOQUAQ2BEBCrGQFFmica0/19vtAVxd49TS50iKMrVu8Nz7FlpwQaVDE4GZ3dWnpfzqJTKUcjiYlkKH/IqlwOnzFBmaOFmcj0wRodR5SYao3vdiObDcA7hDQDgp9UI7zm75zcwIcI1io1bOkwmTpBk0146UCiXTa7l2G/EwNSFilj0bFTIK8uWGFq2zez73F8mUg/XZ81JQgjvd9zZ6sLU3YkS7l2cSBNKOAIVHnnV04NJqJ44qsWpCBxQ8+Oz8Guvv3Kjg+sS5yfq+x5rbtd5IzlgC4QF91AzR0WBaFtOzPmoGLl8iBChFVDL9kwIVR88EGIljrRYFLChkIYcgIAjsjMBWH3DvelVnx3q7TM/PfD//XpMANm3+8hqA0TMjqlCamhCRDHUlVcPFG2pdmrORyVSXsTpC2f7cIcVNWvoPnTs6eXIIAoLA7hHwJvqxqieMV1o6wfo7SnJT/S1d85dkiP2PLqly4gWXTyND1qgiQ/06qBlKRYZIhv5rAx7dCpwyVxyNbDlCJEO3rQJ+XaEcGpIhClrIIQgIAjsjQLW5Z0uASxYDh0yXdYqpgyRFN6wA5rlVyjNJkZEOUxOiUP+AVj/0n44eXFYt6nIpx+240mZ8o9GDt9sCsEbjRrJ3eRZBIGMIRAcG0b6NFD3n6AA3Wdjgmelt6UihO7TYii9UOfGEzau1CNBTZIigMzLE3PO5biXxTKlnSj5nixCY/TpnzVfCFUtagTaJDGVsHZATGwMBay/wdgPwjfXAcbNlnUqtn4zqs1eTEUVYTE2IGB1iT5H/5+nChZWOtO3kpoiFXn+eVWHH804flgRCaIuL7JAxlnd5ikwj0D8IkBS1xpPYxD5FbQHcXt+CY7aRovGuB+dU2PGSy4+l3SHYtqXJ6SEylMLd0ae+SB8vAC5erMiQpKJkz9G6cikw1aHIUFQiQymzlJ+CwC4R4KYBNw+ofsnNhBQhMPtPNnD+Uy1Q5Ae6DJZAZGpC1BJPYlZnryZZS+na8Tosev/8xAILjii2ak7cvzt6UBeOI6ijfia7XNXkRUEgywiwGSqbohb2RfFqSycoy80+QUxFHU0KXarhKmuG2A7gEWs7FgX6tE0KEq98P1IpcmzyyWaflNYmGWJvD0lBybyDtd8U4PjZwPkLlaLcMyVARSDfrUbuTxDIDwTYpLWuB/i3Fbh9lYi+pIggBXB+UgTMcqqWCfkxWum5C1MTovpIXHNYbq1z4+gSq+kJEcnQ9TVu/Mrlx5beiEaG9NTpPj1TQs4iCIwPAaZVc94wAs01hv2BKIBwcZVDI0Uj3TgheaK09lXVTq1HGiNDjlhCi0IxGpXvBzkbc8wbeoC/W4DvbQEu2EaG9pYi5YzvOJMM3bcBeLVa9VQhGeqWDOh8nzZyf3mCQGIAICna4gN+VabESKQtgBJmuXWVWlfqe/JksNJ0G6YmRKWhKH5o8+LMcjtEbrsRJ5fZtF3oj31BzfFKk43JaQQBUyNAEvOxr0er/bm82okjS6yYWLh7sQVGhq6qcWrKdat7wprEN6W+9XLQmeAX5mQ78J1NwDkLgM9Ny3xkJLWTadafqcjQHauBt+qBzT7Ab7DUFr3MAblP/SPAVN+Pm4FHtgAniwiMJr995nzghwVAaaf+x3f7JzA1IWIU5BsWjyZjS6npke7cGvV9TMv5jduvyZCzv4ocgoAgMH4EQgMD2gbD4kAIv3D68MVat0aKdreOnFdpxystfq35K9N7SYZ0xIeQKkr+5sZPyZBEhjJPCFORIZKhQr8iQzGDqUGNf1bKGQSBkSHQEVWqjL+pBM5dkPn5m+8bOaz7PHyGEptg9MxIh6kJ0YZgRKuX4W7tnhlspLg7xydf/n5plRP/9PZojSZ7pXbISPNcniXHCDCuQ7GFuV19eNHlA9N0GZGljHZK6p81Q6zjYwSJTVcfb27Hiu4Q/Il+jQzl+BF2e3k+I1P5euJAY1AV8H9rI3DGPNW/It+/6PV+fwdMBU6aA9y1RiJDuzVWeYMgMEIEWANpCQL/bAKojKn3dWK897/nJIANtFlXtcE7QhB18jZTE6L1wTBurnNrZCjllOQLOcnFfVxb48LCQB9IhpI66GuikzkmtykIaAhEtinQbe6N4L32bjxsbcepZTZMKLBopCglakK57v9p7dIitXqKDGkqe/1AVQD4c53aQWRqBZv5sX/FeL+I5fNDY7jHJJXO89Bm4D0LUNwpkSFZdgSBdCCQHABIitjI+NrlQ89Bs6xP7EdEUnTzSmC9EKJ0mFh+nGNdMIwba92mT5VLkS9iQUzkEAQEgcwhEEgOoCwUw7+8Pbjf4gHltI8stuKE0mbcVOfWIkgkTd39A5o4Q+buJD1n5t4JnYbOGMBmhh9Yga+tA06cA+w/VRyITDtKjAydOhf4+jolXsG8/oCIJ6THuOUsgsA2BNZ5gRtXyHqWWs+IBTEx0mHqCJEQosYdyKAQIiNNbXmWfEUgPjgIkqLqcAxT/EE85/CB0Vmm0bF3EclQeyKpkSE9lH6QDPUlgLJO4PUaRYZOm6fI0ASJDGU8MnbKXODRrUoeuKLLmB3k83Uuy32ZBwEhRDuSQSFEBrN9IUSKEKVqF9hEknVVcggCgkDmEejrH0BTNK6lqb7s8uMPLZ0o6IvqJjJEgQdK07KB4Uavqlv58hqJDKV2UDP1M5WyctA0gMTz3vXAf6wqVZH1W3IIAoJA+hHY0AHcvlrVzzBlLFPzWy/nFUKUfhvL6RmFEClClKpduNfiwdZeIUQ5NUq5uGkQYJ0eSZEnnkRNOIa6SBydyX7dRIZSfTqYR/7Etoarx8ySyFCmHRo6Y1TrO3s+8KNC4BMbUNOtxCw4JnIIAoJA+hHY6gPu3SANWlPrmxCi9NtYTs8ohEgRIvZgYi+mH9jawd5McggCgoAgMBQCqchQewSgk/BGrWq4mvqilJ+Z3T1mZOjsBaq30xS7anzLom85BAFBIHMIsDbvBwUAhWI4B82+zgkhypyt5eTMQogUITqi2Irra1z4tduv7VTnZDDkooKAIKALBBiF6I6rhp8vlgNfXAEcOVMchGw5SKfPA35SBExzqMa3JEOs45JDEBAEMocAo7C/rgCuX66iRNma7/l6HSFEmbO1rJ451S+D3d/ZJDGlsmbWn8eVNuMbjR78rS2g1TRkdTDkYoKAIKArBKgmx8jQm/XAjSslhSRbDgtrhyhSccVSpeTXFFRiFroyHrlZQUCnCDT1An9rUO0EjpstG0DcCFvdrnrP0ac2wmFKlTmtX8bAIJZ1h3B9rcv0hIi9UH7Q7NUUr1wxyb0wwsSWZxAEMoVAbTfw20pFhugYsEmfFBln3kEiGdp3CnDLKmBJqyJDEhnKlJXLeQWBHRFwhQCmqDJtjjL32doIydfrMFK2zANE+xUp2hEtff5mSkIUGxhER6IfMzp7cVWNuQkRG9KeX+nQFK6oMOdL9OvTkuWuBQFBICMIsGYo1g/4okB1t4pO3LZKIkOZdlQYEWJD20OmA2fNB65aCty6CnihDKgOZGSo5aSCgCAwBAJc/zZ4gT9UAecvBDg/M70G5PP5r1oGzHACHVH1/TAEbLp62ZSEKNg/gNpwDO+2d+OSKqdpI0QkQ3sWWHBNjQvT/b1ojycRpfcjhyAgCAgC2xBIkSH24fhVOXDTSuB4iQxl3BkiGWLT1UsWA78oBf5rA5Z7FBkSeW2ZnoJAdhFgJIRCMtMdwDXLVFTczKSI69K7jQAzBoIGSSwyJSHyJ/u15oevtXZq0RGz1g5NKLBg/8Im3FHfgnU9YVAGWOhQdhdZuZogkO8IcAdwbTvwx2rg6mXAwdOV7HM+714a4d4OnQ5cuhh4shBY0AI4Q0A4me/WIvcnCBgTgcFBJV6yrh24YzWw/xRV02eEtWYsz8Ao2WvVSlzHHzPGmJuSEHkTSazsCeEllx/nVNhNGyHat9CCo0ua8c1t/YeEDBljUstTCALpRKAqoCIUVywBjpqpyJDUDGU+XeacBcBLFcBSD2DvU2SI9a9yCAKCQG4QICmioMw3NwJHz1I1fWMhE0b4TGp9WtkGeA3SrcWUhKglnsTMzl782O7F6eU20xKig4uacEGlAz+1e1Eu/Ydys8LKVQWBPEOATjcjEW0RoLwLeN8CXLdcpW8xjcsIX+b5+AyphquHzwDOWwg8sgVY3KrGgek6cggCgkDuEeCa+NNi1XuN0fJ8XEuycU+U//9xETDTCbSEcz8u6bgDUxKi5mgC73u78YDFgxNKm01LiI4pbcZdDS34s6cLjZF4OuxJziEICAI6R4BkiOlZi1rUFz/T5BgZIhkyc858pp2MvSerdEQWK79SpeqFOA5GUnHS+dSQ2xcE0BgE/lwH3LUWOGaWeQnRCbOBBzaoDbPmXmMYhikJUUMkjjc8XbizvgWfLzEvITq5zIZHmtvwsa8HDpHbNsaMlqcQBMaIQCoyZO0F5rmBX5YBFy5SaSGUfM40ITD7+RkZIhl6tkTVbDEvPyYNV8dozfIxQSAzCDj6gI+bVQT3ZBPLb39+FnDnGuCNWqAhmBmss31W79eXAAAAIABJREFUUxKiukhck5m+pc6No0qspo0QMV2Q6XKzO3vBNEI5BAFBwLwIpCJDJEOPbVVk6LDpqnBYIkOZJ4RMk2NkiAIWTEEhGRLRT/POR3ny/ESAc3O2S0XPmTZm1o0cZg3cshL4QzVQ15OfYzXauzIlIaLk9m/cfq0p6xEmJkRnV9jxK5cPy7tDaE8IIRrt5JH3CwJGQsATARa2AM9LZCirTg5rh9jc9sYVwBwXIJEhI80qeRajIUDpbcrfswXB2QvMS4iOmAGwOetvKpX0thHG2ZSEqDocwwsuH66sceGwYvNGiNiQ9Y8tndjUGwGlyOUQBAQB8yJQ1gU8VaQK+in5zDQ5iQxl3uEhGaJzcc96gL2eJDJk3jkoT57/CHDDYlOHakNA6WmzRogOmwFcuRR4oVw17M7/kdv9HZqSEFWEYnja0YELKx04pKjJtClzl1Q58HZ7ACSIPf2SrL776SLvEASMg0BiAOhJAK4QUNIJvN0AXL5EZLUz7eCQaO47BTh6pkpLvHkl8I31ysGqN0jqiXFmiTyJILAjAmyKXB1Q6yWbk2Z6vcjX8x8yXa1fTxcDFV07YqTX30xJiEr6oni0uR2nltlwQKF5CdGV1U5M9QfhiScRkWR1vc5huW9BYEwIkAzVdAOT7cDjBcBlSwAW9jOFSyJDmXN0SIaoTnXrKqVWtaQV2NgBkAwZpeP7mAxSPiQI6ACBSD/gCQNT7SpCkq+EJdP3dcBU4NR5wKNb1YaaDoZut7doSkJU2BfFg01tOLakGfsVWkwbIbquxoVFgRD6+geQZMcxOQQBQcA0CDAyRDL0wwLgjHmSIpdpByJ1fkaGblulBBSKO4G+BJCUAL1p5p08qL4R4FzlnGVbAvZnS81rs/1Mbew8uAko9Ot7TFN3b0pCtLU3gvssHhxRbMXEAvMSohtq3VjZHUZ8YFDUjFIzQn4KAiZBgGlyjAxRKemgaRIVypZDc9Ei4C91AMmQL6rIkOxHmWTSyWPqHgEm08QHgJVtwA0rzEuI9pmsMgruXQ9s9el+WLUHMCUh2twbwdcaWnFwkRV7m5AQ7bm1UXvuW+vcWBcMa2RI4kPGmNDyFILAUAjwSzwQB+x9yhn/WwNw6RKJDGWaCLFmaP+pKk3u4sXAjwpVipxEhoayVHldEMhfBOgrkRRRAIVpr2yozDTjTK8j+XZ+PvfnpgF3rwU2d+TveI3mzkxJiDYFI/hyfSv2L2zCBBMSIpLAg4uacHdjK0gOhQyNZsrIewUBfSJAMlTaCfzbqpoKsiCYanJSL5RZZ4Zk6MQ5qrM9SegWH+CVyJA+J5HctSAAaD4TSQDJwMHTFCnKN8KS6ftJbfSwOStrII1wmJIQbQhGcFtdC/YpsIDRkv/PZP8mFlrA/ktMG2T6oByCgCBgXAQYGeqMqcLX9y3AQ5sBdljfw4S7mpl2EnZ1fgoo3LVWdXSvDADRfqBfdqGMO+HkyUyBANPE7luvJPMpnb+ruW/k1xgVY9oc6yE3eI0x5KYkROuDYdxc59bI0B4mI0MkfyRER5U04wGLBwVCiIwxk+UpBIEhECAZYlTir/XAV9YqMkSFICN/WefTszFNjpEhkqGuuCJDwoeGMFZ5WRDQCQIFPuCBDcBRM4GJU8y3njKzgKSIbQPWCyHSidXu4jZZN3Njrdt0kaFUJIzKeseWNuPbTW2g4p4cgoAgYDwEYv1AR1QVvL5Vr768mbolkaHMOi+p3PoT5gCXLgZ+XKTGQCJDxptj8kTmRYDKat/eBBw7C9jPhIQotel04wpVT2UESzBlhMjshIi9l04us+GR5nYUCyEywjyWZxAEdkKAZGhtO/B6LXD7auCE2aq4P/VFJj8zQ4xYaHzuAuBbG4F/WIAiv1KTY5qcRIZ2MlN5QRDQJQJUiXxki0TchRDp0nw/vWmzE6IDi5pwWrkNjzW3g01q5RAEBAHjIMBIBIv2N3UA/1MD3L0OOHZ2Zpx/IVU748rIEMkQ67UaepREr/S9Ns78kicRBIgA2xY8thU4bR5woIlTkIUQ6Xw+CCFShOhRIUQ6t2S5fUFgZwRIhla1Aa9WA7esUmTIzCkd2SZtlDL/VxNgCQLBhJLolcjQznYqrwgCekaAhOhRIUQQQqRnKwa03jtmriFKpcw9bJWUOZ2bsty+ILATAnTE2fiTAgpUOMs2ITDr9Vg7dMh0JcVL1SVJkdvJNOUFQcAwCDBl7mFJmRNCpHeLNnuESEQV9G7Bcv+CwNAIsNj3wY2KDO1r4mLfbBMzkqGLFgFPFwPlXVIvNLSFyl8EAf0jIKIKarNNIkQ6t2XKbt9S58aEgkaYUna7wIIjiqUPkc7NWG5fENAQiPQDrWGgtlupmf1vPXDxIokMZZoQsQfHYdOBU+YCly8BvrZOkaEPmwFHnxinICAIGBkBs/chouw2m7PeIrLb+jbzjcEI7qhvwb6FFo0UpeSozfJz7wILPlfUhLsbWrFZ+hDp25jl7k2PAMnQXBfw20rg/g2KDDFakWlCYPbzkwyRCD2+FfioWYlYMDJEMhRKmt4sBQBBwNAIbO5Q6bFUlWS6rNnWQ5IhZiDcsRrY2GGMoTal7DZJwFcbWnFQURP2KrCYrh8RI2NMmyMpJDmUQxAQBPSLACNDJEM3LAeOnGG+L+ZcOSKMDD1eAEy2KxJEJTkRT9DvPJI7FwRGg8BGryIDFKwhOcjVOpSr6+41CThoKvDVtQDJoREOUxKiLb0R3NPYikOLrdjHhISIaYIkRUwbZD2VfIkbYSrLM5gRAc5dLXVjgyJDE024U5krh+DypcDHNsAZUhEhWUfNOAPlmc2IwOAgsK5dpYuRDDF9LFfrUK6uy5ThQ6cD96wDtviMYQWmJEQFvRE8YPHgqJJmTCw0X4SIqYEkRdfXurC0O4TIwKCmiGQMk5anEASMiwCdbqZj0QmvDACbfYDUDGXHGZk4BThqJnDmfODKpcDPSoCKgESFjDvb5MkEgZ0RoHok6zaXtgLXLzcnGSIJS62HD2wACoQQ7WwoenmlqC+Kh6xtOKHMhv0Lm0yXMpeqlbqqxoVpnb1oT/QjKp0D9WK+cp8mRYBkiNPU3gd8YgN+Xgp8fZ3UDGVrh5RkiAXEz5UCU+2KDHXHTWqM8tiCgEkRYOPr9ggwzQFctTQ7mzHZWuNGc539pwJsQv3QZqDIbwxjMGWEqKQviseb23F6uR0HFpmXEF1W7cQHHT2wRhPo6x8whkXLUwgCBkWAkSGSoXlu4IlCgA1AmbIwmi8xee/Y8WJkiGRoYQvgkdJLg84yeSxBYHgE+pKAtRf4wApctmTs64ne1+IDpwKnz1OiMmxSa4TDlISoLBTFUzYvzq2wa2prqYiJ2X5eUuXA2+0BVIVj6BFCZIT5LM9gYASoXkY1sx8UAJcsVmSIedx6/2LVy/0zTY6RIZIhpszIIQgIAuZDoCcBVHUDbzeodVgv61e675PqeucsAH5UBJR1GcMOTEmIKkMxPOvoAAnBIcXmjRBdUOnA661dKOiNojMp3/DGmNLyFEZEgOlylHR+pkRS5NL9xb6781Fa9phZqtktmzHKIQgIAuZFoDMGFPiB12uACxaad0OKrR24McfvJNZSGuEwJSGqCcfwksuPa2pcOLzYatoaonMq7HjJ7cfKnjC8CSFERpjQ8gzGQ4BkiIW8GzpU809+EZmx78XuiEum/k4y9JW1wF/qAEvQePYlTyQICAIjR8AbBVa2AS9VqAhJptadfD/v4TOAa5YBL5YD1d0jxy+f32lKQlQfieO11i7cXt+Co0uaTUuITi234QmbF9P8vXDHpJNgPk9UuTfzIZDKVS/uBNZ7lUN+0SLz7khmy0FgX5HjZwPnLwSuXqYiQyRDq9oAOkNyCAKCgHkRcIeUoALrOE+dZ971+OiZwO2rgNdqgPoeY9iDKQkRRQTebe/G/RYPji81LyE6trQZdze04i1PAJaIyCUZY0rLUxgFARbuvtuomn/etQYgGWJ0KFvEwKzXIRm6dz3wx2pglhNgmhwjQyRDVJiSQxAQBMyLANeCt+qBu9cBx84273rMdfL+Deo7it9VRjhMSYgcsQQ+9gXxfWs7Ti6zmTZCxHRBpg2+6PKhOhwzgj3LMwgCukcglSJHKdPHtgJnzAOo6GNWgpLt52ZkiGRoUwfgl2VR9/NJHkAQSCcCTA9jmhjTxZg2lu31KV+ud/Jc4PtbVHNqRyidCOfuXKYkRO54EjM6e/GU3YvTys1LiD5X1KQp7VFxj8p7cggCgkDuEWC9ECMRTNG6c40iQ3tNMu8Xb7YdAKbJMTJEMhSTbgS5nxByB4JAHiFARbWnioBzFwJUWsv2+pQv1zttnsJhhhNwh/NogMZxK6YkRO2JJJZ3h7TIyNkVdtNGiPYrtIBpc9+0eLAuGEZkYFAr3h6HPclHBQFBYJQIpCJCbPLZGFQKRiRDb5hcxShbX/xsMHjSHJWSyF1fI6kmjdIU5e2CgCAwBALcqKLc/jov8M2NKl2O9YbZWqfy7TpnL1CRsuUe1ah2CNh09bIpCVEg2a9FRN70BHBRpcO0hGhCQSNIim6sdWN6Zy888aRGinRlwXKzgoDOEeAXbTgJVHQBf65Tnb+/tFpJuh5s4h3IbDkAJEPf3axEK+a6lYQsyakcgoAgIAikECAZ8oSB6Q7gxhUAydAEE0fuWdP6Zr3qQRQwyHppSkIU6h+ALZrAhx09uLzaaVpClGpEy35M77QHQDlyadCaWv7kpyCQHQT4ZcI0jH9YgLvXAifOARi1yBYhMPN19vhE9XWiilxpJ2CUL/bsWK5cRRAwDwJsyFrTDbzTaO6GrKnvi8uXAB82A7Y+IGQQkWJTEqLYwCB8iX7M7OzF1TUu0xOi8yrt+H2LH+uDYQ0X8yxx8qSCQO4RoGTpa9XAnauBU+YqMmTmncfUF26mf5IMEefrlwPz3IoMxaVmKPcTQu5AEMhDBHxR1f7glSrgPBM3ZE2ty6y1nOkEiEvMIOqbpiREycFBhAYGsDgQwnVCiDSlve83t+O/vh44Y4k8XIrklgQB4yAwMAgkBgB2PK/tVrtslNVmA9B9TZyTnvqizfTPA6YCp84FLl0C3LAC+HkpUGmQTuvGmSXyJIJAfiHgDAH/tSllNSqsZXqdyvfzX7ccWNyqokNJFsIa4DAlIeLYkRSt6gnjhlq36SNEhxVbtdTB550+VIn8tgGmtTxCPiNAMsQala0+4LeVwO2rVVE/yZBEhjLvaJAM/aAAeM8CLGxRZEhqhvJ5xsi9CQK5R6AqADxfBjBV7DDpB6dtJlH8h2TIIHwIpiREqalFZTUKCqRqacz6c99CC44usWpqcwW9kRQ88lMQEAQygAAjQyRDLEi9cSVwxAxg4uTME4F833HM9P0xRW7PSSoy9L4FqOsBghIQz4CFyykFAeMhUOBX6nJHz5RIPtdqCktQcc9IhxAiIUSg2hxJ0ZfqW7AxKITISBNcniX/EGCaHCNDJEPHzVZkiI56pgmB2c9PjPeerL7IF7UoMsRonRyCgCAgCOwOgY0dANU/JZKvvquEEO3OYnT2d4kQNe4QHWO0jJjIIQgIAulHgLVDbPTJXbV71ktkKFsELSWecMh04JwFwJOFStUv/SMsZxQEBAGjIsB1myQgW+tWvl9HCJHBLF0IkRAig5m0PE4eI0Ay5I8Bc1zqi5VpchIZyryDwbos7uqevxD4WTEw2wW0yL5PHs8UuTVBIP8QEEK041othCj/bHRcdySESAjRuAxIPiwIjACBVP+K1e3KGX+5QkUq8n0HUO/3d+A04Iz5wFVLgVtXAT8uUmS0KQj0Se3QCCxX3iIICAIpBIQQCSFK2YIhfwohEkJkSMOWh8orBNjMjySIfYbY84ZpW5+btuOXi97JRz7eP8nQMyVKKne5ByjvAlrDigwlpXYor+aI3IwgkO8ICCHa8TtLIkT5brGjvD82Ir2p1o09tu5IDMyqNnd9rQtLu0MIDwygf9AoQoqjNAp5uyCQJgT6B4FoP0Bp0jtWA+x/s5eIJ2Q8B581Q8SZjQM/sQHsHxI2SCf1NJmmnEYQEARGiADXca4fS1vVhlY+bv5k+564xt60UjWqHSGMunibqVXmSIhuqXNjQoFFSNHWRlxR7cQkfxDueEIjRbqwYLlJQSBPESAZaosA0xzAtcuVk84vkmx/eZnteiRDJJ8koSs8ypmhUyOHICAICAKjRYBkyB0CJtmAK5bK+p0SqblFCNFoTSm/37+1N4L7LB4cUWzFxALLDoprZowSnV1hx4suH1b0hOBNyJZqfluv3F2+IZDaSSQJYnrWijZFhn5ZBpw1X75IM03MmIbIdESmJTI9kWmKTFeUQxAQBASBsSLgjaiNlRfLgbMXyDpOMSD2zrtvg+qnN1Zc8/Fzpo4QVYVj+KXTp0VGDiu2mp4QHV5sxdU1Lo0UVYdj+Wivck+CQN4iwJ1Epmexx81Pi4HbVgHXLFNk6CCpGcp4ZIxkiCSIKnIUsCAZoqCFHIKAICAIjBWB6m6AZIgpuIfPEEJ02HTgiiUAN/qqAmNFNT8/Z2pC1BSN429tAdzT2IrjSptNT4j2KbCApOhrja1Y1ROWWqL8nLNyV3mKgCcCLGwBni8DLlwkDfwyHRFKnT/VcPWGFUpFjtLmlDiXQxAQBASBsSKQivizBvRr6xQZ2meyECI2E79nHfC3BqCpd6zo5ufnTE2IXLEEpvqD+KHNi1PLbaYnRHtubQRJ0XU1LnziC8IZk1qi/Jy2clf5iADT5H5SBFywEDh0OsD+N1IzlHkHYu/JwMHTga+uBda2KzLEJrhyCAKCgCAwVgRSEX8Ks1y3HCAZkr5xwKlzgR8WAFMdgCs0VnTz83OmJkT+ZD8290bwWmsnLqp0YEJBo4grbG3EmRV2POf0YVEghLa41BLl59SVu8o1AokBlZLFL4XSTuCdRuDKpYA0XM08CWJ0iDVD5y1UTW5Jhn5XCdRKzVCup4VcXxAwBAKsBWX683OlwJlSA6pt7pEQMvvhtWpgc4dqNG6Iwd72EKYmRLHBQfiS/ZjT1afJb+9baNFIkRkFFbZ/5oOLmnBBpQM/tXegPCS1REaa8PIs6UMg1XB1il3tmDGvmsWm/NKQyFDmSRHJ0CtVwIIWgD1CSIaCUjOUPgOXMwkCJkaAEX/WgjLif7DUgGrfaxOnqA2oOS7AFwVi/cYyEFMTIg4lMyu2bFObO7LEiomFoja3Z0GjhsOX6luwMRgxlsXL0wgCaUKAkaHJ28gQVeSYuiUpFZknQkxF3HcKQNlX1mx1xwFG6+QQBAQBQSBdCGzsAL60GiAJkHVd4XDETKUut8UHGLFVpekJESdPWSiKp+xenFvpwOeKmkxfS8RGtSRFN9e5wV5NcggCgsDOCJR0Ao8XAGfMU+lbEhnKPBliqhzJ0DGzgG9uBOi0kAxJzdDO9imvCAKCwNgRWO8Fbl4pEf+UeA1TlM9dCPyoCCjrGjuu+fxJIUQAaiNx/K6lEzfWusEo0fbpY2b+P/FYJ4Qon+ev3FsOEIgPAIE4MM+tet6IeEJ2iFAqMnTSHLVz+2o1UN+TAwOQSwoCgoDhEWAa7o0rsrO2pUhHPv88cqbC43dVQK1B110hRACaowm85+3GAxYPThD57f8jhEKIDL/mywOOAQGSIe6QvVkPXLxY6oWy9SWeigwxjeXdRiVkwbGQQxAQBASBdCMghGhHMnjCbOCBDcB7FqDZYHLbKdsRQgSgPZHEsu4QfuXy4dwKu5YuxrQxM0eH+OyXVTvxn44e2KIJhPolST81aeSnORFgrUplQEWGSIYe2gwwWpEtQmDW67CgmYXNbHT7rY0AI0NU9etLAElZlsw5GeWpBYEMIRBKArY+4D9W4LIlsr5TIIjp4OcuAH5VDizzAO0GLS0XQgQgMjAITzyJaf4gbqh1aYICrKExOyE6sawZ327y4F/ebo0UZWj9kdMKArpAgGTo2RLg2uXARYsUGdp/qnxhZpqokQy9XgOsbANYzMs0OUaGSIaMWNiri8kgNykIGBQBkqF/NQHf3gScKBteSl1uskoPZ++h1jAQMZi6XMqUhRBtU5rrHxzUehLdZ/HgKFGb08ggBSbOrbTjCVu7hg2JI7s3yyEImAmB2IDqtzDbBVyzDNhjkpCgTJMgnn+vScABU4E7VgPsFh/th6w/Zpp48qyCQBYRoG9DR5/9dZ4oUBERCglkY63L52tQZe+obepymzrUGmxUN1AI0bYJxwEuD0XxtKMDF1U5cEixqM3tXWDRVPduq3NjemcvWuJJLZqWxTVKLiUI5BwBfwzY7FOpWucvlC/IbH15kwyxK/r3twCFfmN/EefcyOUGBAGTI0Ay1BIGpjtUei7JEFspZGu9y9frHDJdZUQ8XQywN5NRyRDNXwjRdosAxRXeF3GFnVIFz6qw4xdOHxYHQmiLJ7dDTP4rCBgPAUYivFHAElSOOCNDrFu5bwNw/Gz5gsz0F/fB01U39DvXKDL0dgNgNWgRr/FmjzyRIKBPBNoiwOIW4BelAPvKZXqd08v5U2IK7///7J0HmB1V+f8lCamUECAhEECaNGmiEDqIdBRURBSld6UogjRB2k9Ril2Uv1JSN733tslutiXZTbIp23vvve/3/3znZCBZt9wy9+6de7/zPPPcLffOnPmc984533nf875hnEzBtlgJIpsEgOqOTmxpbMG7RVU4LyXnf4RBpK4pOjQhHRRFj2SVWnz2Q6YfRSDsCFAMMUTr3V3AjzYClywH6BmiGBo1TQNloAfycxcDf0gF1pYACRVGDDXoOUzYfc90QSIQSgSYqOWROCOGDlWo3OeCkOtlORaST7hn9ZQg2u8b2dbdjaqOTsytqselO/MkiHpk2lMa7v2MRT+GLQF6hjgA3LrOFAANtADQ8Y3IZHgKw1TIfV0JwHpPKrgatl8zXZgIhBQBpdnu/WEf183OzQOqWs09OaQ6zeHGSBDtB5QZXCmKVtY0WtnmItUj1Nd1SxDtZyz6MWwJcL0KPUMTZwOsfSPBEhwGFENnLwKeSDBPIymGwjlePWy/QLowEXAhAQmi3u/zV64AVhZFxgMqCaJevrjr65rAyX9fwiBS/37ZzjwsrG5AXWcX2pXvthfL0Z/cTICLaouagenZwMXLeh8cJI6c50LPkF1r6N5Yk/KWqW+1iYAIiECgCbR3AXXtwMICU1JB9/gD7/FXrwQoFiNhkyDqpZcliHqvwfS17bn4e0kNdjW1WaKoF3T6kwi4lgDF0KIC4NktwFe0qDZonjFbDN0XC0TlAun1gNYMufZrpIaLgKsIUAztqgX+ngZ8bcmBYkDiCJAgcpU5O9/Y6LpmXL+7AMPj0jCkxzqaSPUO8bpP3pqFhzNL8d+yWiQ1tKCsvROtCvJ33gB1xKASqGkDkquNZ4hi6NpVpu6CBsPATg7sdK7fWQc8mQB8lGESKLAeiELlgvoV0MlEIOIItHYCZS1AUiXw30zg4TiT5l/3fXPfHzIFGD4VuH41EC0PUcR9Pz6/4M31zfh+WhGOTMywRFEki6D9r31MfLolim7dU4h3iqqwrrbJEkWfg9MPIuAyApx4Uww9nWTC5OgZYhE6FqPTwBhYBsxe9P5ugMX+WN8iu8F4hiSGXPYlUnNFwIUEKIaYvOWdVJPIhTXPWPtM933DgGLoyCjg+xuAzeUu7GAfmqyQuV6gbW1swePZpTgzJdsqTLq/KNDPe3HclkzcvrcQ7xdXIbWp1UpEwYQU2kTALQQ46W7qAPIagc+ygIu0ZihoE4H9B1oWvFXyBLd8a9ROEXA/Ad5vmMEytcY8kLl9PXCc6sv9z/2fSW7OXAg8Hg9srXJ/v3tyBRJEvVDa29xmeUBu2lOAY7ZkKrlCj7DB0fFpOHFrJn6UXoTlNY2o7Oi0RFEvKPUnEQg5AhRDHBRzG01V8sfigVPm68lgsJ6M8qkjU7m+lAzsqFF4XMh9QdQgEQhjAhRDla3A8iKTTfTEucBoeYb+RxAdMxu4aY3xoO2tC2OD2O/SJIj2g2H/WNTWgUXVDXgutxznpuRgRHwahsT1nmggEj1GXFd1cFyaVbz2tfwKrFXonG06eg1hAvQIUQQxRI5hWp9mARRDLLzKSXqwBEGknodrhs5fbEIwKIZm5QIFTSFsMGqaCIhA2BFgqByLPr+WAjBsl1kuuV4mUu/LPa+bLBgyfu4i4LktJtEQEw5FwiZB1EsvN3d1g6KIBVq/vacQ45MyLFEUieKnt2s+aPNeK9nE2IR0nJWcbYUXMsxQmwiEMgGKIYbH/TIJYJgEw+ToGaIYYhhXz4FBvzvLhGLog91AbDmws8aIIaY61yYCIiACwSLA8C+GgZ21EOBDGgqAgz5z9l7n5rGDYojraL+9zhRkpRiKlPu0BFE/38LkxlY8k1OG87fnYGxiukLneoTO2WLpytQ8q5htW1e3Ksv3Y0/61+ARsJInVAG/SDKpVY+YqQEwWIO2PcDeGW0W5yppwuB9D3RmEYhUAvbaIRYZZbHRYN3/3HYe25P/TJKJpogke5Eg6qe3M1varbo7P0grwiStJepTEF6yMw9zKutR2d4JiiJtIhBKBGiRTOUcXQbcth6gGJJHKHgTAj5tZCrzN7ebeh+hZBtqiwiIQGQQsNcOzckzYdJuEyrBau+kOcAPok1dpsz6yLAN+yoliGwSvbyyzg5TS7+aX2GFhtkeEb0euJ7qzORsvJJfgSXVjUhpbEVxWwdaJIx6sSj9KZgEWNwzox5IrAQ2lALv7jIx48EaWCL9PPaTRnqGKIZY9DZSYtGDaec6lwiIQN8EWjqB4mYgpRpYUgi8kmKyp0X6/bmv62co4aspJiU511tF0iZB1E9vs+goRVFUZT0m78zr00MS6QLpsIR0UBQxFfcbBZWWMKIo0iYCg0mAYuhve4GH4oBb1hoxxEl6XwOB/u4sG3vNUFw5sLvWiKHReDuUAAAgAElEQVRIiUUfTLvXuUVABL4gQDG0pAB4Y7tZO8pU0kwprft97wwmLweick3RWhavjaRNgsiD3l5f14SrU/MliPpYQ2QLwglJmbhuVwHeKqjE7uY2D8jqLSLgPAGGyNFBmVABPLQZOG0+cIjSqgZtAjBqmqnrcfcmIL7C+f7VEUVABETAUwJ8GPPWDuC61cCEWb2LAImjL7hcvRJYX+op3fB6nwSRB/0pQXRgiJwtgHq+joxPA0XRD9OKEFcfIXkaPbAfvSW4BCiGWrtMatWb1xoxNExpVYMmiFjk8LsbgD/vAdIjLAY9uJaus4mACAxEgB7qH0YbMTRy2hcTf4mg3llIEA1kURH+/+i6Jly3K9+qvcMaPD2FgH4/kMkVqXlYUdMIhhxqKVGEf3mCePl28oSqNlPw8697gQuW9H7T12DoPBd6hrgg94Y1wB92AdGlQHmExaAH0dx1KhEQgX4IWA/GOoEVRcAVyio34AMxph9nTSZ60njvjsRNHiIPej2mvtlaH8O6OyxIKgF0oADqyYNZ52ZV1qO8vdMSRR4g1ltEwG8CzCTHBbRcPPtOKnDrOmDibOcn/hJTvTOlGLojGnhvNxBXYcRQpMWg+23EOoAIiIAjBHjv4QMZFoBm8W3dt/tnQDHENbas0RdT7kgXuO4gEkQedNnOplYri9oVO/OsIq30ErE4aU8hoN8NEyZYeCm/AvOq6kExmdHSjobOLg9I6y0i4D2B7m6gowsobTFFPxmqdcs64IS5wGitHQr4RMDOJveTGJPEgoNpRav3/ahPiIAIiIC/BOzsojFlwLw84KVtyirXnxhkUVp6h1gegZ60V5JN4Wx/+8GNn5cg8qDXqjs6kdTQgveLqvGN7bkYHpcGhc71LQjtrHPf2pWP+zNL8NeSGksUeYBabxEBrwlQDDW0AxvLTAXy85cYzxDF0FCtHQqoIDpoiglL/NNuk8SCmf0ohriGS5sIiIAIBJsA70EMl74/FvjWaiOGlFWub+8QxRDr8n1jKfD+biCpEqiO0JxYEkQefFsZitPc1Y31tc34YVoxjtuSiVHxCp0byCN2SEI6TtmWjQczSyxB6QFqvUUEPCZge4YYFsFaQ6oz1Peg198TQl/+x6eKzNx30jzgvljD3+OO0xtFQAREIEAEOKF/cDNwirKLevQwzM4K+sONJrscSyNwzhuJmwSRB71uL9be3tSKV/MrcVVqPo5OylDI3ABhg8Pi0kBRdMueQmyqb0aEfsc8sDC9xRcCtmeIYui325VW1Rdh48tnKIboeTt5PnBvLPCfTCC7wZce1GdEQAREwDkCnGNsKjMh03xgo+yiAz8kO3oWcNVKU4x1e7URQ5E6V5Mg8uK7WNjWgbmVDXgyuwynbsuWIBpAENkepPO35+CD4mpsrm/GruY2FLV1WB43L9DrrSLwOYG6dlPokyFyywqNZ4iZcZhAQWlVBx4AfRFB9mcYIjcuCrhwKfDAZuC/mcDWqsgNsfjcKPWDCIjAoBCgR6OoGdhVC2wuBz7YDbAotH3P0mv/LE6dDzyZCMzNAwqbBqULQ+akEkRedAXD5iiKplbU4eIduRJEHgqisYnpoCi6M60IbxZUYlF1gyWKvECvt4rA5wRYaO/NHcD3NgDfXAWct/iLGhNaM9T/4OfP5IBiaNi+WPO/7DGx5jkNRgy1ac3Q5/apH0RABIJHgGJoUQHw5nbgzmgjhpjoxZ97XSR99uJlwNRsI4YoLiN5kyDyofdVqLXvhAq2V6i31/FJGbh2Vz5ezq8AGZa2d6BFhYp8sMDI/IhdcJVVtFn486goYMRUDXyBHrztLESHzwDOWAg8Fm+8QpFphbpqERCBUCDAEgvMLMrx4OVk4NpVJlNaoO+H4Xb8SC7E2tOOJYh6EvHgdwki3wTRiPg0K20512C9UVCJVbWNlijyALneIgJW5jJmMKNrnzdxiiFmyAm3ASrUrscu2HfmQhNaMScPKIjw0Ap9HUVABAaXAMXQqmLgjR1mDQzTRo+YpvHA2/FDgugLO5Yg+oKFxz9taWzBI1mlOD05G4cmpCt0zsPQOdtrNHFLJm7ZU4DXCyqxprYJ+W0daOrqVtIFjy0wst5Y227qIqwtATgZ59NATs69vfHr/d4xs5Mn0BN30VLjGSL/9DqT5jyyrFBXKwIiMNgEuNi/qQPIbwLWlACvbzcJFFSA27t7O8fCQ2cApy8AHokDtlQOds+GxvkliHzoh+K2DiypbsSvcsstUWRP9PXqmedoZHwaKIou35mHZ3PKEVVZj7zWDjAkKlKzm/hghhHzkZ01pljczWtN4TiKIdWV8H4A9FYQcj0Wk1RMXmYKrjJ5Aj1DrPnEDH/aREAERCBYBDg34BwhrxGIygWe3QJcvkLJdLy9r9vvpxj61RZgSQFQ3BysXgzt80gQ+dA/TK5Q0NZhTeSv212AwxPScXCc6hJ5KwiPTMzApTvz8FR2GeZXNSCzpR0NnZpp+WCSYfkR1kJgnPjqYoBi6FClUQ2KV8z2DI2bCZy72ITJbasKSxPTRYmACLiEQEMHkFkPzM8HnkoELl0OHBkV+AdDtoAIl9eDpwJcD8rMrFE55iFXpCdTsL8CEkQ2CS9e7UKtsfXNeDy7FF9NybFEkbeCINLfPzwuDRRFF2zPxX0ZJfh3aS2yWtq96Am9NZwJUAzxydWMHPMkkDUlOFkPl4EpVK/D9gxRDD2/FVisJ4jh/DXTtYmAKwhkNQD/TjeFoC9YYsTQcCXV8Xo8pBj66iLg8XggthyI5EKsPQ1fgqgnES9+z2hpw99KqnFHWhEmbcnUWiIv1xLZgvCwhHScnZKDx7JKEdfQgrbubshP5IUhhtlb+cCBceIcAJcVAS8mm+xmoSogwqVdFJsUnXzqyjoeD8UBC/KB3EbTH2FmZrocERABFxBgmBzT+sdVmHWMZy9SyLQ/Y86kOcAd0SYMOqPeBQYQxCZKEPkBu7KjE/QS/V9hJc5JycFBPgoCWxhE6ivDDSmKbtxdYNUoqurotESRH12jj7qYAMUQJ+ELC4BH4wE+DVRdicB7xiiGxkwHLlxi1mwtKTSilP1BkapNBERABIJNgGKoqtXUGrpxjRFDDPvyRxRE6mf50OucRcDbO413qLI12L0Z2ueTIPKjf1hDhwkWllY34IHMEpydnG1N7CNV2Ph73WclZ+M3+RWYW1WPVTWNiKtvxu7mNoux6hX5Yagu+SgX6nPB/t46k02OCz7PXwKMng6o4GrgJgB2Wm1marpiBfDLJGBlEVDUZMIpXGI+aqYIiEAYELBDpVmAm14hptZmqYXfpABnKbuoz0KQiYjOXgg8sBngwy6Go5O1ti8ISBB9wcLrn6xF313dyGttx5raRryWXwFO6v0VBpH6eXqJyI+JFq5KzcNdaUV4u6ASS6sbLVHkdQfpA64iQDHElM5cM/SjjSYlKD1DFENaOxQ4QWQtsp1pajt9mAakVAOlzYotd9WXR40VgTAhwIn60kLjxbhro6kxxAQKFEPKLur7OEB+r6UAa4pNpj6KIXn+D/zSSBAdyMOn37jmpbqjE/Oq6q3JfKQKGievm+GHxyRl4vpdBXizoBLJja1o7eq20m761En6UMgSsD1De2qBmTnAzxOAU+f7fuOP1HAIb6/b9gwdM9tkbHphG7CjJmTNRA0TAREIYwJcK9TaBSRXA2/uAK5fDfDedJCKb/vsFdp/TKConJcPVLeZNVlhbEo+X5oEkc/ovvggEwBQFDHM68rUPHmIHFpLxXpFE5IycfveQmttUXl7pyWKviCvn8KBgO0Zohj6ySaTQIFF4/a/metn53nYniEOlIwp31AKlLeEg0XpGkRABNxGgGKofN9aodvXAxNmmTpouvc7c++/cqUJP+SaLIpPbf9LQILof5n4/JeEhhbck1GME7ZmYXR8uoSRQ8LozORsvJxfgVmV9VhR04gtjS1WCB3rQcnl67O5DvoHa9pMeBbjmZlOlZ6hMxYCnKjTe6GBMDAMyHbEVIDZhq5ZBdAzRDFU0Wqe0A66YagBIiACYU+AYzdTPjNEbkslsKIImJULvJwMsPi27v/OMOAa3BPmAvfEAAkVYW9Wfl2gBJFf+A78MGvosJbO3elGFDkZQhbJx+LaIoqiS3bm4YrUPDySVYol1Y1WcVyKIm3uJMC1Kr/cAvDJ1deXmjA5eoY4YdeaIWcGw94mFRRDR0WZwnwfZZgwOXqG+IRWXyd3fpfUahFwGwGKoYImYEkB8EicSehyyXIjhrRWyLn7P8XQ3ZvMQ0eWstDWNwEJor7ZeP0fpotObGjB+8XV1uSdXqKhcWnyFDnkKbJF4enJ2fhVbjlmV9ZbvAvaOiBh5LW5DtoH2rsAeodY44ZZzZQ0wbnBrzcBZP/NLrh6/FzjGXo1BUjVmqFB+x7oxCIQiQRsIZRYCczOBZhN9PQFwbkH2vfCSHjl/Z7eIYrM93cD5F3VFokW5/k1SxB5zmrAd3IdEUURw7p+lF6MLyt0LiBi8NCEdJyRnI1b9xTgxTwjjCiKtLmDAMXQtirgg90mrba8QcGZDIycZhYpX7faDJCbywHVoXDHd0atFIFwIUCv0Ow84MVtwK3rtGY0UOKMYujLc03GVoYjUgxx/ZC2vglIEPXNxqf/MICLtXN+V1iFG3YXWJnSbM+GXvc6JpCYhe7oxAxcvjPP8hatqW1CSXsHmrq6wO+8Aul8Mt+Afog3Y2a4oRj6Vzpwb4y5YQdqQNBxjdCyPUMnzgVuWGNSr1IMUZjSW6dNBERABAJFgGMxQ3FZ4LmkGVhTYrxCl68Ajp6lLHKBGqeYoY/3+9/tBFjTSXOigS1cgmhgRl6/g9nQouua8EZBJc5OyXFMBEhQHSioRsSl4ajEDGtd0esFlZZnLr+t3cr4p3me12Yb8A9QDHHx7D/TgNvWAyfNA8ZMD453JFCDjhuOS88Qi65ycPzbXiCxAihrMWJIa4YCbvY6gQhENAHeY/gwLL/RJE54fbsJleY6xhHTdP8P1Bhy9iKArKOVPdTj758EkceoPH9jS1c3Sto6rKxoV6XmY0R8GobEHTiZl7hxjsfELZm4eU8BXsgrx5SKOqyqbcTa2ibENTRjb3OblZGusbMLnd3dekriuRk79k4u1mcGM8Yw/z0N+Ck9Q/P0ZDBQA6F9XDuG/OT5JjTlrR1GkDLNOWs/aRMBERABpwjQA8HMcY0dJnPc3jogrgJYWwKsKgKmZJmMljevNQ9o7PuUXp0VhVYW0WmmoG1UrukLFmHVNjABCaKBGXn9Dt4UKIrW1zXhjrQijE/KsESRRJBzImh/lqxXRFHEdUUX7ci1akFRiN6VXoR3iqqwtLoRzADIcDqKIm3BJUAxFFNu1q3cshZg6JY8Q84Ogr1NKux0q9/dAHyWZcIm6KWjGNLXILjfAZ1NBMKdAOc9DIvLqgeWFgLvpAJ3bTQT8ytXABctM+uF6K2m17q3e5b+5j8Xet3GzwK+Hw2sKwUohtg32gYmIEE0MCOf37GzqdWqn3PZzjwrtGv/Sbx+Dow42p/rMUmZuGl3AZ7PLcfH5bXYVN+M/DazzkjCyGez9viDrZ2m0CefEr63G7gj2tS+0aDn/6DXH8NhU4zgPHW+CU384y6AT2u1iYAIiIDTBGwhxJC4TWXAx5nA81uBm9aYJC793av0P+fHAoYiXrbC1HPaqSyiXpm7BJFXuLx7c3F7B5bWNOK53HLLe8FEAPtP2PVzYHnQc0RRZNcwejSrFIuqG5DfarxF3vWm3u0tAda2YfzyH3aZ9SssBDpKTwYD/mSU3jeGJN6+Afh/GcD2aqBW6Va9NV+9XwREwAMC9ApRDC0qAB6NM2meWViVi/rlCXJe8AwkIpnC/LmtxkvHorfaPCcgQeQ5K6/f2djVhazWdsytasCDmSU4LyUHYxPSJYqCLAwpRIfFpeHsFFO/6LPyOiuMjiGNG+qaEFPfjK2NLdjT3Ia81nYrdTpTqGvzjQCzlyVXm6rjXNTJkK3j5gR/YBho4Ai3/9MzdMh0U9OD3jh65bbXKGTCNyvWp0RABEiACRGqWoG8RmBPLbC1yoRAbygF1peaiTdDcllPiAv5h03V+tDBGFsOnwmcuxh4cDMwNw9gEVau59LmOQEJIs9Zef3Oju5uUBQxTCuuvgV/LKrCuco6NyiCkKLosIR0sKgr1xkxXffVqfm4Zlc+bttbiMezSvF/hZWYXlGH+IYWSxR53eH6gEWAYuiZJPOkkAMkxZA8Q4EXhBRDp803cfvTc4C0OqC23cSPS97ryykCIuALAYqh+AqA95T/2wk8nmBCca9ZBVy9EmD6bK4PomfisBkSQ4MhhnhOiiFGY7CkAj12FEMduvF7ZfISRF7h8u3NTOjU3t2N1bVN4GJ/hc4FNlTO01BE9gOz/x2emI6zkrOtulEMq3u3qMpK4c01YJkt7Sht77SSZOje0r/9swJ5UTMwPRu4eFngBcBgDTyhdt6Dp5qJyFkLTRE+ptbOqO+/r/RfERABEehJgGMcF+GXtgCZ9QDXoLCo57u7gEfjTegz7zP0RjCbmYpqh8Y4x364aiWwuljlFHratDe/SxB5Q8vH9/ImQ1HEEK1rd+VjaFyaRFGQw+b6EkkURQfHpVneI643OnlbFibvzMOP04vxUl4F/llaYwnZkrZOq7icRFHfXwKKIcaRP7sF+MqC0BgoQk28BKI9fCpLT9w9McCMHJNAob69737Sf0RABESgJwFrntJtiqeuLjH14l7aBvx4EzB5OcD0/VwXxPsNH8JIDIXGGMd+YImFa1eZEEbWfdI8pad1e/a7BJFnnBx5V0pjK57NKcfFO3JxwtZMHJqQbq1t6Wuyrr8PjidpTHw6TtqahUt35uGHaUV4Ja8CMyrqsa62yRK1FLb2zjVIG+uaEVffDPYvPUqFbR0oa+9EbWeXVSQ23G9O9poheoYohnhjZtrPQEz+dcwvuA6fChwxEzhvMXB/LPDvdCC9XiFyjtysdRARcDEBjjlc+8NkKizCXNhkPD4p1aY20MYywF4DxHVA9r6uxDxUeSUZ+OFG4NLlKqAdqmMO12odOgM4Ya6JyODYy/7V5jsBCSLf2Xn9yZqOLmvS/J+yWtyZVoSvbMu2RJGEz+AIn764MwEDRdGRiRk4fovJUjd5R54V7sh1R/vv16TmW6m970orwi9yyvCPkhrMr2qwCsPuaGq11iKFc0FYDrxcM/R0krkp0zNEMaQK5F8Il0ANqBRDFy41oSzz880i2oYOPR30+sasD4hAGBHgPZmpsLn2Z0e1KYzK+8M/0oBfJJk1hjetBew1QFwHZO8Mu5q8DGCWuOPnAkdGmRT+TNgSqPuYjusbW4ohjrd3bgT+k2HEEB9OavOdgASR7+x8+iRvVuktbfhzcTW+v7cQJ27NsrxEWlcUWqKoL7HU8+/st1FWeu8MfG17jiV0n84pw2/yK/CX4mrMq2qwvEmx9c1IbGixstlRKKU1tyG7td3Kale0z6NU2dGJ6g7jWarv7EJjZxeau7rR2tVtrUFjkg6KK4Zf0o4Gc+P5rXSrTaboJxfVamALDgPbM3TBEiOGmOEpt3EwrUHnFgER8IcA76cMdaKQae8y3h2uyeTCeIa/MjkKiypXthqPT1GTyfqW3WCSp1D4MPtbYiUQW248PvPygL/sAX6TYh5Y3RkNfG2JCXtjkpuDJHJcOWYxRI4ClQXOv78B+PMeExkw2HMCf+w/VD4rQTQIPcFJL9M8c8LMbGcKnXOnGLLF0dC4vWDNoyMS0y2P0mnbsq0kDRdsN9nsbtxdgDvSinBvRjEezy7FC3nleLeoGh+V1WJaRR0WVBuP0ub6ZmxpbAEFE1OAZ+0Lv6tg+F2HLZBMGB5F0WBt9uDNNKxRucATCcAp84MjBiS6TJjc/p4hToqUXnWwvg06rwj4R8C+n1II8SFTXbsRPhQ9TJ28pw7YUQNsqTIZxNaWAAvygWnZwEfpJuHBC1uBx+OBe2NNAewb1pjsb3xowiQIpy0Ajp9j7h2sDcQ1J7qXupOBXV6B2f0oeCmEKZa1+U9Agsh/hl4fgRnnuL4kuq4ZP8suAyfOYxMzBiUdtT2p16vzosxksUuzPEhHJWXgxK37wu925uLWPYW4O6MYD2eV4pl9HqX/K6yyMtz9paTaSubA0MqpFXWYXVmPBVUNWFLdiOU1jVhV22iF5HH9UvS+NUyb6pph76yrRHEV19CM+IZmJDS0WN6ppMYWS3BRjG9rbEVyHzvXQm1varWEGTPt9dx3NLYhpa4T8wq68FRStxVnztAKDbCBZ8CnulzY/K3VwIvbgGVFwK5aYHetqRHCOiHaxUA28IUN8LuRWmMypjFrmi87BQkLHHONRnLVgfu2KmBLJZDUY6e3humq48rNznTIMeXApjKz77+Oh2t3mCFsWSGwMB+Yk2uydf430yQ34MSXmd6Y9poeH5Y1eDgOuHsTcOu6L8Lc6DU4KsoURFUWuMDfjwdjzBs7Ezh/MfCzBFP4nN5Dimlt/hOQIPKfoddHoO1SFOWwaGtlAxhiRa+CRInzomSwmVIU0YM0Ij4No+NNNjuuTZq4JRMnbM2ystrZHqVzUnKs4r0XbM/B17bn4us7cq0EHJfszMNlO/Msb+IVqXm4MtWsZ2INpet25YMeqJt3F+CWfft39hRaHqm70ovwo/Qi/CSjGPdnluChrBIwrfgT2aV4MrvMsjvaXs+da6Geyy23PFnMtPdy/oH7i9nVeH53E+5JaMf5S7usOHOGcQ3G4BBJ56QY4kJa1nW6fg3wSDzAxc+cJP1OuxjIBnq1gbd2AK+mAC8n+7a/lGwePjy/1azBeToR2H//eQLwSJwpiMmimPZ+X6zJ0PbDaIA7iyXftt4ImFvWAjeuMQlouH6Ha3euXAlcsQK4bLmp4cbSBd9YasLc6Olh8pRzFn3h8Tl5nllQP3G2WevD7G+jpwMjphoPkLLAheeYxFpztD8WX81pUJptryfg/XxAgqgfOIH+V0Nnl7We6JOyWisd99jEdCsF9GBP4nV+dwizIftShjNcj2JrzL6dBWiPSswA04hTeE3amomTtmXhtG1ZOCM5G2cnZ1sFgs/bJ8B6vtJj+Y0duZi8I9fKtEcxxv3Knfn41s4ifHNrBS6NbsQZS9tx6MwuCaHPgjPw2oKISSu+scyIIobGaBcD2UDfNkBvKsXGZRQbPuzMtHbJcuCipYAtTChO7P2ri8zidoYN779/eR5w7Gxgwiyz03Nz+AyABZTHTDdeHIWuBefeGQ4PzpjqnN6ha1cDn2QC6XVAg8orODpNlyByFKd3B+MieYoihjr9LLsU52/PAUWRBIk7BMlg95MVkrfPA0Uv1LB9O+sqjYhLs9Y1USwx6cOYhHQckpBurVejYDo8IR1j+9oTMzAuMcPKskdvFsUV90mJOTgnvhTnbKjFcYvaLDE0bGq3BFGQBBEHdYoiZvAbFwVMmG3C5xhCp10MZAO92wAFydGzTCgZRYm3O8OBuY+baSaknJTuv1PkMOMXhc7+O0UPkxdwzQ53em44qeUaEO4UQ/LiSBB5Ktb2D5Vj2CXFUIdC5bybdA/wbgmiAQAF49/MNsb1IvdlllhP8DmB5QR3sCfcOr/6gDYwdHMaRsZm4oiNBZi0phoTFzdj5MxOCaEgCiFPB029TxMs2YBsQDYQPjZA4UxhfcZCgGGYTLHNRDranCcgQeQ8U6+PyBTLaS1t+Ky8Dt/eU4hjt2RaT/UlSCRIQsEGKIYmbiqyxNARC1osMTRUniEJQglC2YBsQDYgGwioDVAMHTsH+PY6U+Iirc6kYvd6oqkPDEhAgmhARIF/A72ebd3dVlav3xVWWQvkKYq4RoRhUaEwKVYbIrAfYtLxpfU5GLmmGBNX1cgzpIE/oAO/nmqHz1Nt9aX6Ujbgnw0wnJKZAimGbl5rEuew3lRbl6lZFfiZaeSdQYIoBPrcqkMAWKm4WX/m36U11oJ2rgWhKJIYEYNg2wCF+EHrc/ClRdUYOrsFI2e1yzMkQSRBJBuQDcgGZANBsAGKIa45m7wM+He6SSNf22bEkIqwBmbiLkEUGK5+HXVLQwseziyxsoKxaGuwJ8M6X+QKMAqhYbHpGBWThZGrSzB0VosGvyAMfnqa6t/TVPETP9mAbCCcbICJOlhQl/WmWOdKW+AJSBAFnrHXZ8htbbfWEz2YWYKTt2YpbE5esqCIYoqhoXFpGB2TjQkbSjB+eR1GRLVLEEkQyQZkA7IB2YBsIEg2wGyiJ883Na0+ywJyG72eRuoDPhCQIPIBWqA/UtPRhZTGVnxaXov7M0pwyY5cK/vchKRMK5WyPDiR68EJVN9TDA2JycDQDbkYvdqIoaMXtGLEDNUZCqenjroWPUWXDcgGZAOhZwNMzc4U8WcsMHWv7t8MfJoFpFQDNW2BnnXq+CQgQRSCdtDe3Q2KInqKEhtaMKOiDs/nluP63QWgKArUpFjHjUyhZYXJxaXh4A25GMI1Q7NaLM8QxdAQZZPTU9EgPRXVJC30JmnqE/WJbCA4NkAxdP1q4PmtwIwcILHSeIYohtpVbygoM3UJoqBg9u8kxe0dWFrTaImi05OzJYgUQueYDVAMHbw5HWNiszFmdSmGac2QBJAEkGxANiAbkA0E1QZOX2DE0NJCoLjZvzmjPu0bAQki37gF9VMtXd2gKKKnaPKOXMcmw/IIRaZHyO532zNEMTR+fRmOWlqPETM7gjoI6OljcJ4+irM4ywZkA7KB0LUBZpOjZ4hiqKUzqFNMnWwfAQkiF5lCbH0zvru3EEckZmB4XJqEkTxFPtmAtV4obi+G0zMUk42x64sxfnk9jpzXhuHTtWZIk4bQnTSob9Q3sgHZQDjZwPCpwBEzge9uAGLLXTQhDcOmShC5qFNTmlrxbG45vr4j1xJF9pN+vUa2p8fb/h8Stxcj4tNwaGwOjlprPEOHzMg5PWYAACAASURBVDFiaMiUbnmIFCoiG5ANyAZkA7KBINgAxdDXlwLPbjEJFFw0JQ27pkoQuahLmWRhSkWdJYpu31uI81JyMFZ1inzykngrIsLh/fQMMa32wbEZGBmdh0NWl+LIJQ0YO7cdB8szpME/CIN/OD3Z1bXIUyEbkA34agNjZwLnLQZuX2/E0JRspdce7Om4BNFg94AX52/qMpnnmJJ7U10z3i+qtkRROEzWdQ2B93JZNYbi0zF6Yx4OXlxjJVAYPrPDEkPyDGlg93Vg1+dkO7IB2YBswDsboBh6fzewqcx4hlhrqKnDiwmh3uo4AQkix5EG/oDdALq6YYkieoq0pijwYsLNgs32DI3cnIHDY3Jx2OpyHDyrVR4ReURkA7IB2YBsQDYQRBv4fM3QeiOGOJfjnE7b4BOQIBr8PvCpBfwC0VOkNUUSQwOJNdszRDF05OpKjF3YhINndGoQDOIgqKen3j09FS/xkg3IBsLRBuw1Q7/at2ZIYsinKXBAPiRBFBCswTno/muKmH3u/O05GJuYrjU1yj5n2YCdVntEbCbGbMyzPEMUQ4fM6sSwaUqeEI6Dra5Jk0jZgGxANhB6NsA1Q+cvNtnkKIamZgN5jcGZK+osnhGQIPKMU0i+6/M1RU2tYEruD4qrLVE0kMdA/48Mr9KwuDQcEp+OQzfmY8TiGitMjp4hiqGDpoTegKFBXH0iG5ANyAZkA+FoAxRDH+w2qbW3VxsxpDVDoTW1liAKrf7wqzXxDS34cXoxjt2SiVHxqlMUqcJvyOa9ODguDaM3Z+KImDyM1ZohhQcqPFA2IBuQDcgGgm4Do6YBx84BfrwJiK/wa4qnDweYgARRgAEH8/BpLW14v7gat+0ptERRpAqCSL9uiqHDEzJwVEwejlxVicMWaM1QOD5x1DXpSbpsQDYgGwhtG6AYum29ySiXVhfMGaHO5S0BCSJviYXw+8vaO7GutgnvFFbh5t0F+PLWLBySkA6uJYl0kRBJ1z88NsPyDB29thyHL2jC6JmdGDpVa4Y0cQjtiYP6R/0jG5ANhIMNMCT9kOnAl+cBN60F3kkF1pUAZS0hPIFU0yBBFEZG0NrVDYqihIYWfFhag/syS3DqtixwLYlEUeSIwmHROThkeRUOnd+METM7LDGkNUOaaITDREPXIDuWDcgGQtkGONYOmwqcMh+4Nxb4RxqQUGHEUGtnGE04w/BSJIjCsFNrOrqQ3NiKT8rr8GBmCS7akYtjkjIxIi4NXF8SSd6SSLhW9unwuDQwmxzF0LCVpRgxrwkjpndBBVc1eQjlyYPaJvuUDcgGwsEGhkwBRkwDJs4GLloGPLgZ+DgT2FoFVLeF4UQzDC9JgigMO7W9uxsURTmt7Uja5y26flcBjk7MsERRJIiESLpGiqEjEzJxVEwBxiyrxsFzmzFsRoclhg7SItqgL6INh8Fd16BJqmxANiAb8NwGKIbGzwJuWAN8mA4kVQI5DUYMtXWF4UQzDC9JgigMO7XnJe1qbsMbBZW4YXcBTtuWjcMS0q0sZJEkGsLxWukZotfv0M1ZGB9TgPFrKjFmXguGTevCQVO0ZkiDueeDuViJlWxANiAb8N4GDp4KHDYDOHU+cONa4M0dwO7anrMw/e4GAhJEbuglP9tIb9G2xlb8p6wWd6cX4+yUHEsUhaNIiKRrohg6KiETx8QU4ojlNZYYYp0hiSHvBzVNBMRMNiAbkA3IBry1AYqhMxcCP9oE/L8MYFs1UKMQOT9nrYPzcQmiweEe1LN2dgMtXd2gp4jJFh7JKsXVqfk4ZVuWJYyGxu1V0gUXra0asjkNI+LScdjmbEzYVIjxq6swZq48Q94OZHq/Jj+yAdmAbEA24I0NMAx96BTg8H1eoatXAg/FmeQJqbVASyfAOZc29xGQIHJfn3ndYn43+QWt6+xCVks71tc14V+lNXgsqxRnp2RbRVwpiiLJu+Lma6UYGp+QhYmbinDYkjqMmNWGYdPlGfJmUNN7NQmSDcgGZAOyAW9tgGJo9HTgnEXAzxKMV2hDKZBZD9S1m7mW9JDX09SQ+IAEUUh0Q3AbQWGU2tSK6RV1eDirBBfvyMWkLZkYE59upeh2s1gI57YP3ZyGkXHpGLs52xJDE1ZVY+SsNiUNUOII2YBsQDYgG5ANBNAGbCE0aQ4weTnwaDwQlQvsqQXq24M7h9PZAkNAgigwXEP6qMxCR1GU2dKGtbWNeK+oCrfuKcRJW7MsURTOosLN10YxdExCNo7dVISxS2sxanYrhk7r0iAYwEHQ26eHer+eOMsGZAOygfCzAXqFTpgL3LwWeHcXsLYEyGowYqhDWeRCes7raeMkiDwlFYbva+vuRnWHKeT6x6Iq/DSjGFel5uMr27IxLjHDqm2jukWDH0r4hWcoB8duKsYxq6otMaTkCeE36GoipT6VDcgGZAODbwNWXaGpwJFRwOkLgKtWAndvAn6fCsRXKJ12GE6JIUEUjr3q4TXxoQZFUVVHJ/Y2t1lri1jM9dmccquYqy2K3OxVCYe20zM0MSEHkzaWYOySeitMTp6hwR8wNWlRH8gGZAOygfC0gRFTgaOigEuWA89vBaZkAetLgT11QFUrwNpCXVos5OFs0x1vkyByRz8FpZUNVhhdOxZVN+BXueVWJrqjkzKUbGGQMtDRMzQqLh1HbM7BpE0lmLiyFiNntStETiFysgHZgGxANiAbCKANsMjqNauMGFpaaIqsNnYEZSqmkwwSAQmiQQIfiqft6O4GRVFBWweSGlrwQXE1zt+eI0E0SIKIYujYhBwcv6kER8gzpME/gIO/nnKH51Nu9av6VTbgmw2cvxj4YDeQVAkUNgEUQx3yCIXi1NWxNkkQOYYyfA5EN3BrVzdi6ptxf2aJ1hQNliCKzcKxG0tw7MpajKJnaEq3RIFEgWxANiAbkA3IBhy2AXvN0Lgo4LQFwP2xQEw550IKjQuf2W3/VyJB1D+fiPwvH4JQFOW1tmNWZT1+kVOmNUWDIIqGbsjFqMVGDGnNkG9P+fR0VNxkA7IB2YBsYCAbsNcMXbwMeCbJpNTObTRzITmGImMqLEEUGf3s01UyfC69pQ0LqxrwXG45bttbiCtT8/HVlBxM3JKJQxJUt8jJpA1mzVAGRsVkYej6XHxpWRm+FNWqJ4EOPwkcaGDU/zV5kg3IBmQD4W0Dw6YAY6YDx8wGzl4EXLkS+O4G4NdbgQX5QFqd6gv5NHF08YckiFzceYFuur2mqKitA9ubWrG2tsnyGL1ZWIlb9hTglG1ZlihyUhRE8rFGxWVgUnweJkWXYtSiOiOGpqrOkCYm4T0xUf+qf2UDsoFg2wDF0EnzgBvXAK9vB2bmmtpCO6qBoibVFwr0/DIUjy9BFIq9EqJtaunqRkl7JzbVN+MP++oWXbozDyduzcLo+HQlX/AxrM72DI2LzcWJ0WWYtKIeo6I65BmSZ0g2IBuQDcgGZAMO2gALrH55LnDp8n11hXYC0aVAcTPQ0hmiky81KygEJIiCgjk8TtLZDVAUVeyrW7SyptHKRPeT9GJLFEWyd8efa7c9QxRD4xY3WmJo6FQlUAj2E0OdT0+pZQOyAdlAeNsAxdA9McBf9gAri4E9tUB5ixFDnONoi1wCEkSR2/d+XTnvGyzoyvTcH5XW4p6MYmt90eU786w1RmMT0nGQjx4Tf8SFmz5reYY2Z2BcTJ48Qw4+AdSEJrwnNOpf9a9sQDbgiQ0c9Blw+EyzRuiyFWad0L2xwH8zgW1VQHUbIA3k11QwrD4sQRRW3Rnci2nr7kZ1RyeyW9qR0NCC1bVNWFzdiLcKKnFuSg6GxqVJFPUjCkdtzsCkuHycuKEc4xbJM+TJAKf3aCIkG5ANyAZkAwPZAMXQ0CnAuYuBN3YACwuA1cVAYqUpslrTBrR1BXfOpLOFNgEJotDuH1e1zk7CsLGuGY9nleLC7bk4eVsWjkzMwPC4NK0x2ieOjGcoE+NiKIYqMGl5g9YMyUOkdQKyAdmAbEA24KcNDJ8KHBkFnDwfuHAp8Fg8sKEUqGsH2iWAXDWnDHZjJYiCTTyMz0fXM0VRcVsH1tU24a8l1XgoswRMvEBR5KZwtkC2ddTmTBwXW4AT1ldi3KImrRnycwAc6Emh/q+nybIB2YBsIDJsgGKICRMeigP+uhdYVwIUNRsxxPqK2kSgLwISRH2R0d99JmCH0u1oasXUijo8k1OGi3fk4qjEDIyIVxjdqJhsHLe+AsctM2FyGqgjY6BWP6ufZQOyAdmA8zbA8LgR04xn6KJ9hVWnZgNMoc11QgqN83k6F1EflCCKqO4OzsXSK01RVNvZhbzWdiyrabRE0WU78zA+KTPi1xYNXZ+HUYtMam1lk3N+cNSEQ0xlA7IB2UBk2IC9Vmj8LOCS5cBTicDSQiCvEajdJ4bkGQrO3M/tZ5EgcnsPuqD9+W0diKqsx8t5FbgzrQjX7srHNan5uGRfRroTtmZhLL1HcWkY0k8SgkCGsQXy2FwzNDI2EyM35YBi6EvLykzRVYWKKV5eNiAbkA3IBmQDA9rAkCnGCzR2JnDCXJM5jgLomlXAtauAO6OBF7cBM3KA/EYXTIzUxJAjIEEUcl0Sfg1q6uoGRdHOplbE1TdjQ12Ttc+urMebBZX4cXoxLtiei6P3iaJAipPBODbF0MRNRZi4phIjF9YbMTS1a8ABQE84I+MJp/pZ/SwbkA3IBvq3AYbEHT0LuGAJ8ONNJnPc7FyTMIFJE+LKgR01Rgw1dYTfPEpXFHgCEkSBZ6wz9EGgor0Tm+qa8e/SWvwipww37y7A6cnZGJuYbmWlc3sdo6Gb0zEyNgtjowswaU01Ji5uxsiZnRJCehoqG5ANyAZkA7KBAWzAWhs0FThiJnDGAuCWtcAzScC/0oGNZUBFax+TC/1ZBHwgIEHkAzR9xBkCrV3doCjKamlHcmMrplfU4YHMElywPcfKSuf2OkYUQ8dsLMZxq2swdn6LJYa0Zqj/p4B6Sio+sgHZgGxANmCvDToqCrhwCfDQZhMOl1wNZDUYMdSqNNrOTMZ0FIuABJEMISQIMBtmTms7Pi6vtRIwfG/vF2uNrkjNs7LUnZeSg1O2ZWF8kslWNxjhbwOdk14tyzMUk4XDowstMXTMohaMnCHPkCY5muTIBmQDsgHZwP42wFA4JkQ4ZT5w3mLg4mXAFSu+WBt0xwbg2S3Ap1lATiOgzNkhMWULy0ZIEIVlt7rzohq7uixRRG9R7H5rjZbXNFreo/eKqvBEdqmVlIGiaCBxEuz/W2IoLg2jY7MwIboEE1fW4HB6hmZ0Qp4hTQL2nwToZ9mDbEA2IBswYohJEZ5IAN7dBUzPAZYXfbE2aHM5kFIN5DYCjVob5M7JnUtaLUHkko6K5Ga2dJlir1sbWzCrsh6vFVTg1j2FOCfEPEZDY9MxOiYbR2wowsSVtRi/sBUjZih5ggZ9TfxkA7IB2YBsgDZge4ROngd8dZFZF/RaCjArF9hSBRQ3Ay2dkTzj0bUPFgEJosEir/N6TKCzG6Aoqu7oREFbB5IaWzCzsh6/K6zCYyHkMRoRk4XxG0pwzMpaHD7PiKEhU7u1cHaAhbOaKGmiJBuQDcgGIsMGGB7HVNmPxAFv7zDrgpIqgYImU0SVYohjvjYRCDYBCaJgE9f5/CbQ1NWF3NZ2xDUYYcTU3axvdHVq/gE7C8FeuD0XZyVn46StZu3RyPg0OJm9jscaFpuOEZuycOj6IkxYUYujF8gzpMlNZExu1M/qZ9mAbIA2MHLfWiB6fs5aaBIhXLYCuHrlgfsPooHXtwPTs4HYciCnQaFwfk+KdABHCEgQOYJRBwkmgc7ublAUVXZ0WvWNdje3WfWN1tc1Yf99UXUDPiytwav5FXgwswTX7MrHMUmZGBLnjCiyxFBcGsbEZOOodaU4enkdDp0rz5AmSJogyQZkA7KByLGBg6YAE2abAqn0/LyaAnyYBiwqANaXHrhzTdCuWiCvEahsNWKoQx6hYE6hdK4+CEgQ9QFGf3Y/gfrOLuxtbsPa2iZMqajD6/s8SZfvzMPXt+fijORsHLslE4cnpmNUfBoOjkvDkM17PU7WYK8ZGru+GOOX1+PIeW0YPl1rhjQRipyJkPpafS0biAwboOgZNhUYNQ0YOxM4drapDfS1JcClywF6ft7YDkzLBtaVAHtrgfp2988jdAWRQ0CCKHL6OuKutKO7GxRFZe2dVojdzqZWbKxrwryqevyrtAYv5pXj23sKce72HEzamonDEtItUeRpdrrhm7Iwbm0pjlpWj0PmGDE0ZIrWDGmCFBkTJPWz+lk2EDk2QDF06Axg0hzg/MXAbeuAX28F/pEGzM41XqCdNcbzU9ZixFCH6gRF3LzLzRcsQeTm3lPbvSLAe3NbdzeqOjqR1tyGFTWNeK+4Ck/llOEnGcVW5jquQ/r6jlycnpyNE7ZmYeKWTByRaOoe0XvEMDnuQ+L2YmR0LsYtq8URc+UZ0sQociZG6mv1tWwgPG2AXiBmgTtiJjBxNnDiXOD0BWY90FUrgVvWAT+JAZ5JAt7fbdJj764FyltMZjglQ/BqSqI3hxgBCaIQ6xA1J3AEGKZsiyJ6jkraO5DW0gbWPUpoaLHWHy2ubsBHZTV4Pq8cd2cU45Y9hZZAGp+UieH7QuoohkbEp2HUhnyMnN9ohcnJMxSeEwRN/NSvsgHZQCTYgB0Sd/Qs4OtLgVvXAT+NAZ7fatYDLcg3oXAJFUByNZBWB5Q0A3XtQOu+zHBaChS4+YuOHHgCEkSBZ6wzuIRAe3c36jq7kN7ShqU1jfiorBZ/LKrCr3LLrSx21+0qwDd35Vv79bsLcH1yOb4Z3fo/WXTsrDpXrjCx1RctMwMMY63PXwKcswg4cyHwlQXAqfOBk+YBx88xMdnHzAYmzAI4KB0ZZZ7UHT4TOHyGCVcYM93EcDOjz4ipwMFTgWGM7Z4CDJ0CHKQU10pzLhuQDcgGQs4GeG8esu8+zfs17928h/NeznU5o6cDh0w393ne7+ml4RjAsYBjAj02x80BTphrxgyOHRxDOJawns95i4ELlhhvzkVLgUuWAxyD7PFooFemwv7WarMW6FdbTJHU/2QAywqBvXVATRvQrhA4l8xm1ExfCEgQ+UJNnwlLArzXUxQ1dHahuL0D2a3tVlKG7U2tVha76LpmbKhrsnb+HF3Tig3lXf+TRcfOqrOyCJibB0zJBjiw/DMN+PMe4Pc7gZeTgV9uAX6eADy4GbgzGvjOOuCmtWZQunIlMHk5QBF17mIz4DF04cvzzKDIwfGoKOCwGQBFki2UJIr0NDsSnmbrGmXnbrMBiiEKoNHTzP2a927ew22hw/A0ipwzFpqHZhfuEzUUMtetNgVMb18P/Ggj8NBmM3ZwDHkp2dTzeW8X8Jc9wL/SgE8zgTm5AMcgezwa6HVDKRBdCjAL3PZ9HqDsBuMFYnIEiqEuuYDCcu6jizIEJIhkCSIQIAJtXSatKAvOZTUAjLVOqQbiKoDVxSYl6RwKpiyzMJUx2e+kAm/tMGlLX9hmRNNTiWbwezQeuC8WuHsTcNdG4I4NRkTdstYMljeuMWlPez4JZOz3FSuAy7X7xYA1NZhNiU9eJy/TLgaygUizAX73eQ/gvaCv+ynvtbzn9rwPf3MVcP1q4KY1wM1rzb2b93Dey3lPvzcWeCgOeCweeDLR3Ptf3Aa8th14eyfwx1TgT7uN4JmaBXDsWFgArCwGYsqBLZXAjmrjzWFK64pWoFUenQCN7jpsOBKQIArHXtU1hQQBPk2jKGruNLUWGGvNsAPWXihtAYqaTXXu3EYgs97EZDM0gcIptQbYUWMEVHIVsK0K2FIFJFYC8RVGVPFJXkwZsGnfvrEM4FO+nk8C15SYsIfFBYB23xmwpsb8fPPkNSrHVFifoVeIgWwhEmyA33l6XXgP4L2gr3spQ8x4z+15H7Y9MLxP857Nezfv4XxAxns67+1JlcDWffd7PjzjGJBaa8YEjg3pdUBWvcnkxgdtHEM4llD8VLcBtW0mu1tThxFD8uiExFRAjXAJAQkil3SUmikCvhJg5h+KsoZ27f4woKDlpIOTD05CuKBYuxjIBiLDBvYXHrwX9HUv4b1W2dZ8Ha30OREYPAISRIPHXmcWgaAQYNg3B2jWhNDuOwPG0NPjxzCUlk7tYiAbiDQb4Hef9wDeC/q6l/Jeq6U2QRnadBIRcJSABJGjOHUwERABERABERABERABERABNxGQIHJTb6mtIiACIiACIiACIiACIiACjhKQIHIUpw4mAiIgAiIgAiIgAiIgAiLgJgISRG7qLbVVBERABERABERABERABETAUQISRI7i1MFEQAREQAREQAREQAREQATcRECCyE29pbaKgAiIgAiIgAiIgAiIgAg4SkCCyFGcOpgIiIAIiIAIiIAIiIAIiICbCEgQuam31FYREAEREAEREAEREAEREAFHCUgQOYpTBxMBERABERABERABERABEXATAQkiN/WW2ioCIiACIiACIiACIiACIuAoAQkiR3HqYCIgAiIgAiIgAiIgAiIgAm4iIEHkpt5SW0VABERABERABERABERABBwlIEHkKE4dTAREQAREQAREQAREQAREwE0EJIjc1FtqqwiIgAiIgAiIgAiIgAiIgKMEJIgcxamDiYAIiIAIiIAIiIAIiIAIuImABJGbekttFQEREAEREAEREAEREAERcJSABJGjOHUwERABERABERABERABERABNxGQIHJTb6mtIiACIiACIiACIiACIiACjhKQIHIUpw4mAiIgAiIgAiIgAiIgAiLgJgISRG7qLbVVBERABERABERABERABETAUQISRI7i1MFEQAREQAREQAREQAREQATcRECCyE29pbaKgAiIgAiIgAiIgAiIgAg4SkCCyFGcOpgIiIAIiIAIiIAIiIAIiICbCEgQuam31FYREAEREAEREAEREAEREAFHCUgQOYpTBxMBERABERABERABERABEXATAQkiN/WW2ioCIiACIiACIiACIiACIuAoAQkiR3HqYCIgAiIgAiIgAiIgAiIgAm4iIEHkpt5SW0VABERABERABERABERABBwlIEHkKE4dTAREQAREQAREQAREQAREwE0EJIjc1FtqqwiIgAiIgAiIgAiIgAiIgKMEJIgcxamDiYAIiIAIiIAIiIAIiIAIuImABJGbekttFQEREAEREAEREAEREAERcJSABJGjOHUwERABERABERABERABERABNxGQIHJTb6mtIiACIiACIiACIiACIiACjhKQIHIUpw4mAiIgAiIgAiIgAiIgAiLgJgISRG7qLbVVBERABERABERABERABETAUQISRI7i1MFEQAREQAREQAREQAREQATcRECCyE29pbaKgAiIgAiIgAiIgAiIgAg4SkCCyFGcOpgIiIAIiIAIiIAIiIAIiICbCEgQuam31FYREAEREAEREAEREAEREAFHCUgQOYpTBxMBERABERABERABERABEXATAQkiN/WW2ioCIiACIiACIiACIiACIuAoAQkiR3HqYCIgAiIgAiIgAiIgAiIgAm4iIEHkpt5SW0VABERABERABERABERABBwlIEHkKE4dTAREQAREQAREQAREQAREwE0EJIjc1FtqqwiIgAiIgAiIgAiIgAiIgKMEJIgcxamDiYAIiIAIiIAIiIAIiIAIuImABJGbekttFQEREAEREAEREAEREAERcJSABJGjOHUwERABERABERABERABERABNxGQIHJTb6mtIiACIiACIiACIiACIiACjhKQIHIUpw4mAiIgAiIgAiIgAiIgAiLgJgISRG7qLbVVBERABERABERABERABETAUQISRI7i1MFEQAREQAREQAREQAREQATcRECCyE29pbaKgAiIgAiIgAiIgAiIgAg4SkCCyFGcOpgIiIAIiIAIiIAIiIAIiICbCEgQuam31FYREAEREAEREAEREAEREAFHCUgQOYpTBxMBERABERABERABERABEXATAQkiN/WW2ioCIiACIiACIiACIiACIuAoAQkiR3HqYCIgAiIgAiIgAiIgAiIgAm4iIEHkpt5SW0VABERABERABERABERABBwlIEHkKE4dTAREQAREQAREQAREQAREwE0EJIjc1FtqqwiIgAiIgAiIgAiIgAiIgKMEJIgcxamDiYAIiIAIiIAIiIAIiIAIuImABJGbekttFQEREAEREAEREAEREAERcJSABJGjOHUwERABERABERABERABERABNxGQIHJTb6mtIiACIiACIiACIiACIiACjhKQIHIUpw4mAiIgAiIgAiIgAiIgAiLgJgISRG7qLbVVBERABERABERABERABETAUQISRI7i1MFEQAREQAREQAREQAREQATcRECCyE29pbaKgAiIgAiIgAiIgAiIgAg4SkCCyFGcOpgIiIAIiIAIiIAIiIAIiICbCEgQuam31FYREAEREAEREAEREAEREAFHCUgQOYpTBxMBERABERABERABERABEXATAQkiN/WW2ioCIiACIiACIiACIiACIuAoAQkiR3HqYCIgAiIgAiIgAiIgAiIgAm4iIEHkpt5SW0VABERABERABERABERABBwlIEHkKE4dTAREQAREQAREQAREQAREwE0EJIjc1FtqqwiIgAiIgAiIgAiIgAiIgKMEJIgcxamDiYAIiIAIiIAIiIAIiIAIuImABJGbekttFQEREAEREAEREAEREAERcJSABJGjOHUwERABERABERABERABERABNxGQIHJTb6mtIiACIiACIiACIiACIiACjhKQIHIUpw4mAiIgAiIgAiIgAiIgAiLgJgISRG7qLbVVBERABERABERABERABETAUQISRI7i1MFEQAREQAREQAREQAREQATcRECCyE29pbaKgAiIgAiIgAiIgAiIgAg4SkCCyFGcOpgIiIAIiIAICFvwFwAAIABJREFUiIAIiIAIiICbCEgQuam31FYREAEREAEREAEREAEREAFHCUgQOYpTBxMBERABERABERABERABEXATAQkiN/WW2ioCIiACIiACIiACIiACIuAoAQkiR3HqYCIgAiIgAiIgAiIgAiIgAm4iIEHkpt5SW0VABERABERABERABERABBwlIEHkKE4dTAREQAREQAREQAREQAREwE0EJIjc1FtqqwiIgAiIgAiIgAiIgAiIgKMEJIgcxamDiYAIiIAIiIAIiIAIiIAIuImABJGbekttFQEREAEREAEREAEREAERcJSABJGjOHUwERABERABERABERABERABNxGQIHJTb6mtIiACIiACIiACIiACIiACjhKQIHIUpw4mAiIgAiIgAiIgAiIgAiLgJgISRG7qLbVVBERABERABERABERABETAUQISRI7i1MFEQAREQAREQAREQAREQATcRECCyE29pbaKgAiIgAiIgAiIgAiIgAg4SkCCyFGcOpgIiIAIiIAIiIAIiIAIiICbCEgQuam31FYREAEREAEREAEREAEREAFHCUgQOYpTBxMBERABERABERABERABEXATAQkiN/WW2ioCIiACIiACIiACIiACIuAoAQkiR3HqYCIgAiIgAiIgAiIgAiIgAm4iIEHkpt5SW0VABERABERABERABERABBwlIEHkKE4dTAREQAREQAREQAREQAREwE0EJIjc1FtqqwiIgAiIgAiIgAiIgAiIgKMEJIgcxamDiYAIiIAIiIAIiIAIiIAIuImABJGbekttFQEREAEREAEREAEREAERcJSABJGjOHUwERABERABERABERABERABNxGQIHJTb6mtIiACIiACIiACIiACIiACjhKQIHIUpw4mAiIgAiIgAiIgAiIgAiLgJgISRG7qLbVVBERABERABERABERABETAUQISRI7i1MFEQAREQAREQAREQAREQATcRECCyE29pbaKgAiIgAiIgAiIgAiIgAg4SkCCyFGcOpgIiIAIiIAIiIAIiIAIiICbCEgQuam31FYREAEREAEREAEREAEREAFHCUgQOYpTBxMBERABERABERABERABEXATAQkiN/WW2ioCIiACIiACIiACIiACIuAoAQkiR3HqYCIgAiIgAiIgAiIgAiIgAm4iIEHkpt5SW0VABERABERABERABERABBwlIEHkKE4dTAREQAREQAREQAREQAREwE0EJIjc1FtqqwiIgAiIgAiIgAiIgAiIgKMEJIgcxamDiYD7CHR1daG9vR0VFRVISUnBpk2bvNq3b9+OqqoqdHZ2oru7230A1GIREAEREAEREIGIJiBBFNHdr4sXAVhiqKamBhs3bsSzzz6LW265xav9ueeeQ3x8PJqamixRJKYiIAIiIAIiIAIi4CYCEkRu6i21VQQCQKC5uRkFBQWYPn06rrrqKowZM8ar/Vvf+haWLl2Kuro6S1wFoIk6pAiIgAiIgAiIgAgEjIAEUcDQ6sAi4A4CFDKpqan4+9//jq9//esYNmyYV/uVV16JxYsXSxC5o7vVShEQAREQAREQgR4EJIh6ANGvIhBpBCorKxEbG4u3334bX/3qV/GlL33Jq/3yyy+3PEQKmTOWw3VUHR0daGtrQ2trK1paWnza+Vmu7dLarEj7Rup6RUAEREAEgk1AgijYxHU+EQgxAiUlJVi2bBmef/55nH766V6JIYonhtmtWbNGE/d9/Uox1NDQYCWaKCsrA/n6speXl1teNwoqiiJtIiACIiACIiACgSEgQRQYrjqqCLiGQE5ODj755BPcf//9+PKXv+y1ILr66quxfv1611xvoBtaX1+PvXv3WkkqFixYgBkzZvi0z5o1CwsXLrTY7tq1C6WlpZanKdDt1/FFQAREQAREINIISBBFWo/rekWgB4Hdu3fjzTffBJMjTJgwQYKoBx9vf83Pz0dUVBReeOEFfPvb38bkyZN92i+55BJcdtlluPPOO/HOO+9g1apVlijytj16vwiIgAiIgAiIQP8EJIj656P/BoAAQ4D4tDs3Nxf0Trh1LyoqAr0BXOfBWj6+bgyvysjIQHJyslc7P8PP+rtt27YNTz75JM4991wcfvjhgy6IBpuHvzyZsW/27NkW07POOgvDhw/HkCFDvOZqr+WaOHGilQb9j3/8o+V58rd9vn6ea5oYApiZmQnWnkpKStIeAgy2bt2KHTt2WPfRxsZGX7tXnxMBERCBiCYgQRTR3T84F08xtHr1akyZMsUK1fr444/hxn3RokVIS0vzO7sahc1f//pXPP30017t/Aw/6++WkJCAe+65ByeeeCJGjx7t9cTd6ZA5X3g888wz+Nvf/uYID395clKalZVl2ff111+PcePGWaLIFjjevo4aNQqTJk3CT37yE7CvBmujGFq7di3+8Y9/4Fe/+hUefPBB7SHA4IknnsCLL75o3Uv5cEmbCIiACIiA9wQkiLxnpk/4SYAi4v3338ejjz6KBx54APfee68r99/+9reIjo72e20Hn7Rzcnneeed5tfMz/KyvGxfqMzMcxel3vvMdHHHEET5N3J0WRL7wOP/88/HQQw/5xcNXjj0/R28hvSn0vL322mv45je/ifHjx3stNG3hdNBBB2Ho0KFgNj96nphsgccP9kaP7meffYaf/exnVijfKaecAu2Dz+Ccc86xbIyiiJ4ibSIgAiIgAt4TkCDynpk+4SeBxMREawE/w4k4oeJCfjfuXB8yc+ZMv0NVNm3ahFtvvRVjx471audn+FlfN4qhvLw8y5PBtSq+hnY5LYgGi4evHHt+jmm3KYpqamo+r+/0ta99zWdBRGFEUcSU6K+//jo2bNhgiaKe5w307/R6ffjhh7j77rvxla98BYcccoj2EGDAdX8URfQUMXxOmwiIgAiIgPcEJIi8Z6ZP+EmAE95bbrkFY8aMsQqA2k/C3fbKIqYfffSRFablz1oeZmijqPD2+pnuet26deAE3JeNE3Z6Meito4fF2/Pz/ZyoOyWIKCK4HovJA1js1dP2sA0sJsukEPTYhdrGNl133XU4+OCD/VpLdNxxx+F73/se/vSnP1lCi14if9auecvJDmX8/ve/b4Xwedo/ep93db285UVhygdL/nqMvbUHp9/PdPUMN+XaTN6XOE5ojzwG9HLW1tY6bV46nggMSECCaEBEeoPTBCSIDiTKJ/7XXHONJS68mQz5W/+Ha0IoqF599VXQW+fNufleChEmC2BIGK/B341iiAMhU03TY+VpeyiGOCn012Pmb/v7+nxMTIwVksiEFRRFnl5Xz/fxAQI9qT/60Y+sulEVFRVBDZ2TIAqssOnZ357+Hi6CyF57x1T1TPLCh2baI48Bs3Mq9LOv0UR/DyQBCaJA0tWxeyUgQXQglvj4ePz4xz/GscceCy6g93QidNFFF1lrOpjmmeFv3m4Ml5s2bRoefvhhnHzyyR6f124fQ+y47ui73/0uYmNjvT39/7yfHitm2qMHxBuPFYUGw8m4toVPlkNtS01NtUQnPVgMNfN1rRbFJwUVswH+5je/wdKlS8H6RJWVlWhrawv4ZUsQSRAF0sj4MITZC5kchSnn+QBAe+QxuPHGG60aboG0NR1bBHojIEHUGxX9LaAEJIgOxMsinkypzKehTLFsC46BXk877TQwu9r8+fNRWFh44EE9+I31h9566y2f6w9RiHDtws9//nNHhAjTOf/zn//ED3/4Qxx//PEeczjppJOshArMWsiF/6G21dXVWSFuFJ9M/HDhhRdaomig/u35f9sjR+706LE+ETMNUoxSFAV6kyCSIAqkjfGBSEpKCv785z9b3xF6frVHHoNrr73WkYiDQNqqjh2eBCSIwrNfQ/qqJIgO7B7GzDOF9y9/+UvLg9BzItzX78cccwz4NO33v/899uzZc+BBPfiNC7C5EPvss8/GYYcd5rEAsdvDzGkcvN544w3LU+HBKft8C9dBsT1PPfWU5QFhggn7PP29UiTQm/Tee+9hy5YtqK6u7vMcg/0PpkRmenlmVWToW3/X5cn/KBrvuusuK9EBEx4EepMgkiAKpI3ZHuIPPvjAKw+xJ98VvSc0bbe3fnFqTWogbVXHDk8CEkTh2a8hfVUSRAd2z/7JDZh6u7dBore/2aFivnpo4uLirAk1hdXIkSM9Pq/dFtbG4QL7v/zlL37V/6EY4oLqjRs3Wsc7+uijMWLEiAHbY3tMLr30UivbX0lJCVj0N1Q3eooY4sY6Pv5mnWMfcO3IqaeeGrR04xJEoTmpDJc1RBJEoWlf9v0+WK8SRKE6goV/uySIwr+PQ+4KJYgO7JLm5mYrs9KMGTOsWjOeZiOjaKCX5o477rBCDLiOxJOsY3wP38simzfddJPP2f6cClVjW+jZ4WJqDoaepv8mJ3q2GGrIWkoUQ6ytFKqbnUWLa39YU8jfCQbXFNEGbrjhhqDE3EsQheaEVYIoNPvF3+93pH5egihUR7Dwb5cEUfj3cchdoQTRgV3CSTxF0Zo1a8DaRgwX8yQbmT0hZoY6riPydHH9/gKE6a0Zp09vi7cD8Omnn47nnnvOWtxfXFx84EV58Rs9J1zPxPVDTGXO6/KkPbaHhOmGmZiCHH1NQe5Fc31+q+0JYz8zQ6C3vHu+3/aQOZXlb6ALkyAKzYm3BFFo9kvP76t+96yfJIgGuhPr/4EiIEEUKLI6bp8EJIh6R8MFxb/4xS9wwQUXWKLI0wGUWcf+8Ic/ICEhAVVVVb0ffL+/2gLEn9AtTsbZTtYw4toff9buMCHEvHnzrPVDTBTh6XUzAQVTbTMhBRNTuGVjJjxmxGNmvHHjxmHo0KEeCcC+uLAfmFyBGbooipm+3BNPobe8JIg8m9D11U+B+rsEUWj2S6D6O9yPK0Hk7Z1Z73eKgASRUyR1HI8JSBD1jorps6OiovD4449bhRY9HfhYsJOpr5mdKT09vfeD7/dXJnFgrR+KL6aB9vQ89vsohuhVoneJnimKMHqdfN04kX/++efBNOIUCPZ5BnqloGCWPNb5YU0et2xsK9dLvf322/jGN76B0aNHW6JooOvt6/9HHnkkuI6K3jpmnKPgpShyepMgCs2JtwRRaPZLX99X/b3//pIgcvrOreN5SkCCyFNSep9jBCSIekfJOhwsSMckBVx070nYGAdXrqM588wz8dhjjyEpKcnyDvQXOsaJLWt9/OAHPwATI3g7QNtrdxjex4k9vRH9na/3q4UV4sZ1PywOe/vtt4MTe64fGqg9DKnj+yjIZs2ahdLS0pBOptDz+ilWKFrWr18PhvudccYZOPTQQwe87r640MNEUUVRxH6lwAxEpXemRadXkYVhTznlFCsRB5NxBHrnOinanL+eNFvI03Z4zEC329vje7p2rqcdSBD1P8HuyUu/hzYvCaKeI4Z+DxYBCaJgkdZ5PicgQfQ5igN+aG1ttTwdc+bMwRVXXOHx2h5OpFjs87bbbrMm2fTW9BcyxUxnv/3tb8G1R0zK4O0EgZPvE088Effcc48VpueLGOKFUwxRzMyePdtaU+PphJDvo3iiiKKYCvVkCgd0MmD1DUURvXkfffQRfvrTn1o8ve0H+/2c6FMsMMkFC/z+61//QiDScGdnZ+M///mPJeIYpjdhwoSg7EcddZQl+ikweJ32dXv7Sq8mhSdth3YfrPZ7eh5fC/ZKEIX2BN9bO43090sQ9Rwx9HuwCEgQBYu0zvM5AV8FESc0HPzp1eDie944/dknT55sPZ33Ne0028AJLT0uDQ0Nn1+frz/Y2d8YAsZJMmvVUHwMNEDaT755PZyw8kl+f+3hmh+G5dGr5Ev9ITtE66WXXsLOnTt9vVxrvQtDvBg6xvC3ga7T/j/D6hhqxhAxekPcujHUkOu+uP6LtZQ8TSZhc+j5yjTsXE/GNOz0FDKrna9itTemTGu+YsUKa90Y7YcFdIOxc50Ywyn5fRgzZozHdtKTD5OVUMhdf/31VohpMNruzTl8fUAhQSRB1NPW3fy7BFFvd1/9LRgEJIiCQVnnOICAr4LIHvhZ+4ZChCFH/uxMc/3rX//aSltMUeTtIOK0IOLklaIoLS3NWiTPdNqehrRRFDGM6dFHH8X06dORl5d3APP9f6HgYrgbxZAn2ex6cuHE9L777sMnn3wCFhv1deN1vvvuu1ZiBCZI6Hmevn5n7Z0nn3wSc+fOBRMyuHWjJ4+iiOnGORlmGBdFUV/XPdDf2ZcURUxDvmrVKjQ2NlqiyCk+9MRRFLHfKKpZxyoYOxNuvPLKK7j55pvhjZ305MWEHc888ww+/fRTi08w2u7NOf7+97/7VJ/Kvi8y/JJC2K2b6hBJ2PE7K0Hk1m+w+9stQeT+PnTdFfgqiPiEl4VLn376aSQnJ/t93ZzMf/zxx7j33nutp889J1AD/e60ILIvqKyszErBzUkgvTgDtcP+Pwuacl3Nq6++itTUVPtw//NKEclBx/6ct69nnXWWdQ6Gq7Gtvm6cvD300EPgRJWTOk/bwfVVnDwy9I9rcdy+kQMnsxR63nDoixf5cK1PuPDx93tqc6IX7oMPPrDuHZx8h9rm6/dSgkhCwrbxcHiVIAq1O1PktEeCKHL6OmSuVIKo/66or6+3nsJzLciFF17osVBgONHJJ5+MBx54oN8nxb5OvOzBlmFHTPzABBD+LN6np+o73/mO154qJg+gd8jf7Hb990Lw/ssQR9ZgYnjV8ccf73F/2/3R85UePIp8in1/PHjBI9D/mSSI+p/wSxD1z6fn90O/hzYvCaL+74f6b+AISBAFjq2O3AeBSBFEdtKA3Nxca2LKiZ0nux2S5G0IjR0ydcMNN4CJGfo6F0MFud7I14kBvXTvvfeele6aBVX7Os9Af585c6aVGc3btTNcTzJlyhQrKQGTBwx0Hvv/LB7b1NTkc1a8PszZ7z8zDTfF4TvvvGP1Cye4XC/na/9wcT6F9FNPPWVlAQxUGm6/L9zDA7D//PHk2hzlIfIQ+CC9zc6ySe8mk8owIkB75DHgmkHOEbSJQLAJSBAFm7jOZ93suM6BHg1vJn5uC5ljBrXVq1dbk3eut+GkzpOdiRHoHfK2ThCFBUXROeecgxdffLHPc3HdFFM92xNFb18Z2sWF+0zxzLVcnlxTb++x28H1T9604fTTT7fqFpHTf//7X4/Pv3TpUrDWU6AKl/r61bazCy5fvtxKpuFv6JyddfDaa6+1+sftoXMSRP0/0Q8XDxE94yywPHXqVNx5551WeDQfvmiPLAZuXwvn6zigzw0+AQmiwe+DiGtBpHiI6Ol5//33rUQHDGNjGJM3Oz09viR74Gf42b7O5etxbdHCNMLXXXedNXln6u2+zjPQ331tx0DX19d5mc0uJSUlJNN0M6GGXfiUGQYvvvhisODuqFGjvBKLdh/xleGTDz/8MKZNm9Zvko1QvwFJEEWGIGpubraSpGzYsMHKvMi1otojj8Ff//pX614Y6vcltS/8CEgQhV+fhvwVRYogSkxMxP333w8mIWAGOK7t8GbnxJ+1V/af5HryMz/Dz/Z1Ll+Pa5+bx6coYi2ivs7hyd99bcdA19fXuZm1b+3atY5nX3PqC8dU6RRFy5Ytw1tvvWXVWaIosrl7+2qvKaMN0hbdukkQRYYg6uzsBEVReXm55Sli4hztkcfAqTIWbr3fqd2DR0CCaPDYR+yZI0UQ+Xqd3k589f7+J4w2n8svvxyLFy+2ajSxRk+obpwQMvEFi+eeffbZPgsit113X/0hQdS/fYdLyFxf/a+/i4AIiEAwCEgQBYOyznEAAV+FgtvWEPl6nfZEVq/9TwS95eMWQWQn44iKivIr+YXNhwkW/v3vf1tJKPor2HvAlzSEfpEg6v97IEEUQsaqpoiACLiWgASRa7vOvQ33VShIEPU/MbInwHrtnZNbBJFdoHfz5s246667rGKkvoRO2nbAcM0nnnjCKkgaHx9vrdNgaJJbNgmi3u3Z7l8JIrdYstopAiIQygQkiEK5d8K0bRJE/U9w7ImOXp3l5BZBxK89RdGePXusxeU333yzJYp8tQd7wnzjjTfipZdewrx58yxR5JbbiwRR/98Du3+VncstFq12ioAIhCIBCaJQ7JUwb5MEUf8THF8nvvpc/1zdJIh4C2Da9pUrV+KVV14Bi+Ey49zQoUN9XlN09NFH46qrrsLLL7+MhISEkE0u0fP2J0HUv11LEPW0GP0uAiIgAt4TkCDynpk+4ScBCaL+JzgSNoHh4zZBxLVELCY7f/58fO973/M7DfeIESNAUUSPE1NxZ2dnW6LIz69zwD8uQdT/90GCKOAmqBOIgAhEAAEJogjo5FC7RAmi/ic4EkSB4eM2QWSvJdq9e7cVOsdixhMnTvTZQ0S7YhHc0047DU899ZRrQuckiPr/PkgQhdoIp/aIgAi4kYAEkRt7zeVtliDqf4IjQRQYPm4TRPyaUxTV1dVZdVk+/PBDMGOcv/bBCTRF0UMPPYSkpKSQv5tIEPX/fZAgCnkTVgNFQARcQECCyAWdFG5NlCDqf4Lj74RXn++drxsF0f7f/bi4OCvrXF+FZ739OzPY8ZihvkkQ9W7P9vdcgijULVjtEwERcAMBCSI39FKYtVGCqP8Jjj3R0auznNwuiPbu3Yt33nkH999/P+677z7ce++9fu2/+93vrEx2oX57kSDq/3sgQRTqFqz2iYAIuIGABJEbeinM2hgpgiglJQW//OUvcc011+Cyyy6zimxOnjw56K9nnXUWDjvsMJ9DrVgDZ8KECVaYFbOdDcY1OHHORx55BDExMWANns7OTtd9q+ysc59++ik++eQTfPzxx37ty5cvR0lJSchzkCCSIAp5I1UDRUAEXE9Agsj1Xei+C4gUQVReXo7o6GjMnj0bUVFRmDFjxqDsv/nNb0BR5KvHiWLouuuuw9NPP42//e1vg3INTrBbs2YNioqK0NHRYa3Ncds3h1nnKIpyc3NBkeDvTjHEY4b6JkEkQRTqNqr2iYAIuJ+ABJH7+9B1VxApgqitrQ3V1dXWJJaTz2DvhYWF1qSZKZYvvvhirwURa97QO3TeeefhhRdesNI/p6amBv06nOJWVVWF1tZWV4oh133JHWywBJEEkYPmpEOJgAiIQK8EJIh6xaI/BpJApAiirq4uUBTxKfxg7DU1NZYg+uyzz3DRRRd5LYjsULnbbrvt8xTNzHg2GNfixDnZF+wTbe4iIEEkQeQui1VrRUAE3EhAgsiNvebyNkeKIBrsbqIg+v/tXQn4TdW7vlcX4RpCiQwZIkTRn4xNhhBR6Z+QEg2GkjnRYKZMDUQkNOCKMhQZGmQMkSFTuiEyz6JU333e1V3ld35n2nvtc/beZ7/refazz9lnn73Xetf0vWt9wzfffCMjRoxQuzxWVeZy5swp5cuXVzFr1q9f73Zx+P6AIkBCREIU0KbPYhMBIpBEBEiIkgg2X/UXAiREyWkJe/fuVfZLHTp0kBIlSljeIUIQ0IYNG8qwYcNk+/btyck030IEQhAgISIhCmkS/EoEiAARcBwBEiLHIeUDYyFAQhQLIbPff/vtNxXMc9WqVfLCCy9IrVq15IorrrBMiEqVKiXdunWTefPmyf79+80yxX8TAZsIkBCRENlsOvwbESACRCBuBEiI4oaKNzqFAAmRU0iGfw7sfLZs2SJvvfWW1KtXT5GhzJkzWyZEcMTw/vvvK89scFXNRATcQICEiITIjXbHdxIBIhAsBEiIglXfnigtCVFiqwG7OXPnzpWuXbtKyZIlLRMhbWt06623yueff06vbImtLj49BgIkRCREMZoIfyYCRIAIGCNAQmQMIR9gFQESIquIWbt/27Zt8vLLL8udd94psAPSBMfqWRMia2/n3UTAWQRIiEiInG1RfBoRIAJEID0CJETpMeGVBCNAQpRYgNetWyft2rWT0qVLS44cOUiIEgs3n55gBEiISIgS3MT4eCJABIiAkBCxESQdARKixEK+bNkyueuuuxQZypgxoy1C9J//+Z/CHaLE1hOfHh8CJEQkRPG1FN5FBIgAEbCPAAmRfez4T5sIpCoh+vPPP1Xgz99//10uXLiQ9APe5RB8dNGiRXLLLbcISI1VNTncnyVLFilYsKC0aNFCVqxYkfRyJBM71BWCtaLuTJPbgXgjBa89f/68qkOnymmKk9X/kxCREFltM7yfCBABImAVARIiq4jxfmMEUpUQQeAEKYFgeubMGTl9+nRSD3iXO3bsmMyePVuqV69uiwyBEIEM3XvvvTJq1CjZuHFjUsuQTMxQR/CeBxKJujNNeM7Ro0fl559/9tRx+PBh1R7RNp0opylOVv9PQkRCZLXN8H4iQASIgFUESIisIsb7jRFIVUJ09uxZ2bNnj2zYsEGWLFmiPL3B21uyjjlz5sisWbOkb9++UrZsWWNC9OKLL8qUKVOSlv9k4aTf8+mnn8ry5csFTihOnTpl3K4PHjyo6n3q1KnipWPBggUqsC7IMkib3xIJEQmR39os80sEiID/ECAh8l+d+T7HqUqI4O76448/loEDB0rTpk2lRo0aST2wK1StWjVFhkycKWiVOZCqypUrJ7UMycQMXvjgfOLNN9+UXbt2GfcrOLNo3769VKlSxVPHgw8+KNOmTVOkyAniZwyUxQeQEJEQWWwyvJ0IEAEiYBkBEiLLkPEPpgjYJUTZs2dXcXWaN2+uBLz169eLyQHygt2URo0aSYECBSzvqPzrX/+S8ePHy86dO5VamVOCmx27H/4nutAYDp+8efMq1cLevXvLpk2bTJu1itkERxTh3uXmtRtuuEFGjhyp+srx48eNy5nsBzjVr7yOA2J+2Wk///3f/y3FixeXNm3ayJo1a5JdPXwfESACRCAlECAhSolq9Fch7BKizJkzC4RYCDYgRZ06dTI6WrduLXXq1LHtnpqEyDoJcZMYhL6bhMgf4wYJUfR+RkLkj3bMXBIBIuBtBEivsq0GAAAgAElEQVSIvF0/KZk7u4TokksukUsvvVSRopIlS8r1119vdCBOT6FCheSyyy6TTJkyWV7ZJyGKLqiFEhCvfSch8sfwQkIUvZ+REPmjHTOXRIAIeBsBEiJv109K5s4uIYIbaZAi7BRBfS5XrlxGB+xssmbNqshQhgwZSIj+I7rg5TVCY5ofEiJ/DC8kRNH7JQmRP9oxc0kEiIC3ESAh8nb9pGTu7BIiUwHY6f9zhyi6oOY03k4/j4TIH8MLCVH0fkZC5I92zFwSASLgbQRIiLxdPymZOxKi6AKO04I/nxcebxIifwwvJETh26/u1yRE/mjHzCURIALeRoCEyNv1k5K5IyGKLuBoQYfnxOJEQuSP4YWEKHo/ICHyRztmLokAEfA2AiRE3q6flMwdCVF0AYdEKDn4kBD5Y3ghIYreH0iI/NGOmUsiQAS8jQAJkbfrJyVzR0IUXcAhIUoOPiRE/hheSIii9wcSIn+0Y+aSCBABbyNAQuTt+knJ3JEQRRdwSIiSgw8JkT+GFxKi6P2BhMgf7Zi5JAJEwNsIkBB5u35SMnepSoj27Nkj06dPl86dO0uVKlWkYMGCjh6XX365isME9+MmpOm//uu/BEJUnjx5JH/+/I7mMVyZr7zySsmdO7dky5ZN8G67eYdrdLhch7v0fPnyGee7XLlycvfdd8vQoUNl27Ztxn3t888/l1tvvdV2+eziEut/CGQ8cuRIWb9+vRw/fty4nMl+AAkRCVGy2xzfRwSIQPAQICEKXp27XuJUJUQHDx6Uzz77TF5//XVp166d3HvvvY4eELZBLhCLyYQU6RVlkLYGDRo4msdwZa5fv75UqlRJihYtqkhRLAE+0u8gQ1dccYWULVtW6tata5zv1q1bS+/eveX999+X3bt3G/cLEiJjCMM+gISIhChsw+BFIkAEiICDCJAQOQgmHxUfAqlKiE6ePCnfffedLFq0SCZNmiSvvfaao0enTp3k2muvNSZEV111lTRp0kS6d++udkeczmfo84YMGaJ2zRo2bKh2pCIRnljXL730UrUzVKNGDenRo4cxtuPHj5cPPvhAVq5cKUeOHImv8Ua5i4QoCjgGP5EQkRAZNB/+lQgQASIQFwIkRHHBxJucRCBVCdFvv/0mIEUHDhwQCHE7d+509HjvvfeUKp7J7hBIB1SoXnnlFVm1apVs2bLF0TyGK/PmzZtl+fLlMmLECPXuWMQn0u9Qt4Pa3W233SbTpk0zzvcPP/wge/fuVWTo119/NW7iJETGEIZ9AAkRCVHYhsGLRIAIEAEHESAhchBMPio+BOwSIm37AjuVf/3rX8peA2pkdg+ojGHHBWpo2H2IJIhHuo48YJcBJOD06dPxFd7CXX/88YeAZB0+fFg2btyoVPEqVKhgOZ86/1C1y5o1q1I3W7BggZw9e1Z+//13Czmyd+uFCxcUPngn1OeyZ89uy5YIRBBlQL29/fbbAkJz5swZe5lKwL9go/P000/bbo+R2nG1atWkfPnyUrhwYVV/uj7jPdOG6C9C4XUc7BJqrQLbpk0bWbNmTQJaNh9JBIgAEUh9BEiIUr+OPVdCu4RIT/ywUwERgQBhckydOlV69uwpd9xxhyJF8QqY+r5EEyKQoRMnTsiyZctUPmvWrCnwjKbfb/UMMgSh+sEHH5QVK1YoMvTnn38mvH3gHSBF2JF69NFHpVSpUooUWc0/7gcpuvrqq6VFixaqDezatUuSUYZ4QILDApAikzYZ7r8zZ85Uqo0PPPCAqj+ruHmdCMTCljtE3CGK1Ub4OxEgAkTAFAESIlME+X/LCNglRLly5ZLrr79eYEsDwdM0mQpaiSZER48eldWrVytVs+rVq9veWdFEAjthcEYwaNAg2bp1qyl8lv+/Y8cOpaoHQlukSBHbtlDwMgfHCo888ojMnTtX9u3bJ7/88ovl/PjlDz///LPMnz9fkWLsaJIQRScIkfDxOjEEGcYuYaT8R7quF4rc2iHCLvO5c+cETmWwkw2bPB7EwO028PXXXys5AYtmXtIk8Mu8E8R8khAFsdZdLjMJUXwVAAcNAwcOVDtYUBOEyqAd+yGtaga1q379+smXX34phw4dii8TDt517NgxWbdunSJFVatWVepfUIGLJOhFup4xY0blehuEFM4VZs+erUiRg1n11KNIiP5XqUg+9NBDancwUruIdZ2EKDHNGmQIbXTJkiXSq1cvuf/++3kQA9fbAMYLLJ6OGzdOQIqYiEAsBEiIYiHE3x1HgIQoOqSw7UFMoxkzZqg4OfAKlyVLFsvEQQuIl112mVSsWFHat2+vdhr279+vVnSj58L5X7UKIOofHu5gG4NYSDqfVs9wwX377bdLly5dlOvsDRs2+DLOTiyk3SJEcDSBXUrswMEtOXZU3TjQXl5++WXlZh0LA1bbib6/TJky8txzz8nHH38s3377rStliYYfVHhhH6fzG+/Z7R0irL7Dnu/dd99VO9CIEcaDGLjdBooVK6b6E+YHzA1MRCAWAiREsRDi744jQEIUGVLYw0D4hHAEAgPVMJAhOzspWqCCmiE8vMHgWpOhZDhTCC3lxU4iIJDCPbeJkwgdl6hkyZJq4kNA3FSc+NwiRFplEztw8HAIRxZuHCBDUAeD2qiJDR3s52CH1bdvXxk9erQrZYmGH+wZ7ahEuk2I4FDm+++/l4kTJ6pFDjio4UEM3G4DWGzDIsgTTzyhNBNC5yN+JwKhCJAQhSLC7wlHgIQoPMSwg4EbaKxgP/XUU0rIN9lB0apy2EVBwFgQEq84IAACS5culXr16hkTPhA/lBVOJ2BTdOrUKeXEITzK/rvqFiECMQcRwq4KAg1DBcWNAzZnIEPFixcXCP+a6Fs9586dWwUIbtSokSJGbpQl2jvtOnfxAiGCp004uoEaq9V64f32bOKIW3Tc3O4X/ptpmGMSIraBpCNAQhQecpAhBArFFn/lypWVOlmmTJlsCxjYVcLuEkgH7Ia8RIaAALzONW/eXAoUKGCkEqgFAwhjb775pmzfvl2RovAo+++qW4QIMaqwmwJX6bA/g3c/Nw6oyWFnCAIO7Oh0fVs9oy+BFKG9YbfIjbJEe6dd9/9uC37YISIhii6cW22rvN8cT7f7hf9mGuaYhIhtIOkIkBClhRw7Q7DTWLhwoXTt2lVq1KhhpBqkJ1N4Y4PKAFb34czAawlOI/r37y+1a9eW/Pnz2/Y6p8tbokQJ6dChg1I3hBc9CGpw9+335BYhgidHGCVD5RIeHjXOPJsLa05i6LbgR0LkrfbgZNvy87Pc7hd+n3eCmH8SoiDWustlJiFKWwEgQ3PmzFEemuBoAKvhsI8xnYxgVIq4P1B7gvqT1xICziLG0uDBg5UqE3TOTWylEPAVNhgtW7aUadOmCdx8Q1jzeyIhosAZbSxwW/AjIWL7jNY+3frN7X7h93kniPknIQpirbtc5qATIqiuwZ4Hti7wzgSboWeeeUZq1aol8JxmOoHoeE0PP/ywTJ48WXnUQoBXr6Xz588LSBHsm+AQ4bbbblOqWXa96mXIkEHgkhukqGPHjsrrFXY5jhw5IvCY5tdEQkSBM9qY4LbgR0LE9hmtfbr1m9v9wq/zTZDzTUIU5Np3qexBJ0Ta2xpsXSZMmKB2cWAzBDLkxM6Q9ioHGx24+QUZgstrryXgAFKEgI7wDjdz5kwVJ+mee+4RkCKrEykcK4AUYacI6nNNmjRRMY+WL1+uSJHXyh9vfkiIKHBG6wtuC34kRGyf0dqnW7+53S/iHd95n3cQICHyTl0EJidBJ0QnT54UGKxDlQ27ODBYz5kzp2UCEGmiuemmm1RcHgSjww5UtNgnXvoNkcWxowWbJ3gUi1S+eK/DGP++++6T4cOHK492UE2EvZbfEgkRBc5obd5twY+EiO0zWvt06ze3+4Xf5hnmV4SEiK0g6QgEnRBhZwhxgZo2baqcHoAMQdXLqYkDKmOIaYK4INHinnjtt7Fjx8pLL72kYs4ULVrUGA942AMpgipinz59lJ0WSJHfEgkRBc5oY4Pbgh8JEdtntPbp1m9u9wu/zTPMLwkR24ALCASNEGm1MBj5r169WsXruPvuuwVCf7Zs2YwF/9AJB+57EdMkWswTL/9mNx5LKA76O1QRQYq6d+8uM2bMUDZVCFB75swZX3ihIyGiwKnbcriz24IfCRHbZ7h26fY1t/uFC6IVX2mIAHeIDAHk360jECRCBAcKsJGB44CRI0fKgw8+qGIMYecCZMgkrkqkCQfe2kCKosU88fJvduOxRMIDdlkgRdddd52KyQRiNG/ePKVOCFLk9URCRIEzUtvGdbcFPxIits9o7dOt39zuF16fV5i/9AiQEKXHhFcSjEBQCJEWFOBFrl+/ftK4cWMpVKiQcbwdtyYYv78XgTkvu+wyRUi7deum7KzWrFkj2C06d+5cglu9/ceTEFHgjNb33Bb89Dg3fvx4QXDkaHnlb2zLyWoDbvcL+yM+/+kWAiREbiEf4PcGhRB9//33Mnr0aGnVqpUSwgsUKCBZs2YVeENL1qTA9/wjgMADHUhR7ty5lWvuRo0aKaIKwgpS5NVEQvRPHbI9p8fCbcGPhCh9nbCduo+J2/3Cq/MJ8xUZARKiyNjwlwQhkMqECCpy2G04dOiQzJ8/X5GhkiVLKlfQnCTdnyR1HYCUQjWvbt260rdvX8FOkVdtikiIvNNudPvx0tltwQ+ECIs/cOKCwNJQ2fXDAVVaOLNBMGgnFql0HDQ8F4cfMEjlPObJk0c5LXriiSdk3bp1CZJm+NhUQoCEKJVq0ydlSVVCpAOuHjhwQL744gsZOHCgwAU24uIkwlbIS0KZH/MCYSBfvnzSsGFDpT4HF+VetCkiISIhita/3CZE6DPoO++++65aYECf8sORN29eyZEjhyIuIEXRMI7nN5ArPA/Phc2iHzBI5TwWK1ZMqlSpIl26dFFx7nwiHjGbLiJAQuQi+EF9daoSIggGiOuzaNEiGTRokMCTnJ0Ao/FMvkG8BwIHXJQ77ab8mmuukaeeekqmT5+u4kN5LZCtW4QI7uGHDRsmDzzwgNx6663KPgQ2Isk+ypUrpxyEYMUXKo922z7UVWHDV6ZMGbnhhhuSXo5YuJUqVcrWTrLbhAg74mijS5YskV69esn999/v6QOxyTA233zzzcotPxZGTAgR2iTaJsId1K5dW4VT+Pe//+1pDLxeR07kD55UO3XqJOPGjRPE5GMiArEQICGKhRB/dxyBVCVEu3fvVqukEK5r1qypyBBi4dgV4Pi/tDsDIELwFIcDn53CBwIlSBEEJaj9bNy4UUCKvJLcIkRHjhyRlStXyqxZs1TAXBjNu3EMGTJEWrdurdSxIHjarXeQIQhazz//vLzyyiuulCUafnD0AVJktXxuE6Lff/9dqQnDmyb6DtqMl48vv/xSYDc4YMAAuf76641V5tAmoSrYoUMHmTp1qqxYscLT5fdy3TiZNwT6Xr9+vSJDXtz598r8wnz8gwAJ0T9Y8FOSEEhVQrR161YZPHiwigEE+xSrgg3vT0uAQvG4/PLL1apunTp11Co/vkNXP/Q+u99BtPr37y9on4cPH05Sb4j9GrcIEeJnAYc9e/YooWLnzp3ixvH5558LSNE999xjtONaunRp6d27twrQC5sCN8oS7Z1QOYOKrdX26zYhit2CvXXHyZMn1U7wmDFjpGLFisb2QwhhgN0IBLqGhgATESAC/kSAhMif9ebrXJMQRRf8rQpEQbkf+u5QSWnevLla6YcaF0iRU+UnIUo7rPzxxx8CUnT27FllWwXjeTeOzZs3yxtvvCEtWrSQwoUL265vqN6BWC1fvlx++uknV8oSDb9PPvlE7Sxbbc8kRGnbbaxv+/btU6QYtiVweGMV79D7MW5gt2nZsmWeWkiJhQN/JwJEIC0CJERp8eC3JCBAQkRCFCpUxPMdu27169dXeuEQbF988UWl5lajRg1lD1KiRAkVpDKeZ4W7h4QoCZ3fxiuw6o7Vd6zCYzU+XN3Fcw12QwiODDWa48eP28hJYv+CnTCQ/HjKcvE9JETW6gU7+Rg/6tWrpzxNXoylnc+VKlWSSZMmyY8//qgWD6zlhncTASLgFQRIiLxSEwHKBwkRCZEdwQNxnBA7CKuxEB63bNmi9PXnzZsnEyZMkCeffFJAiuw8G/8hIfLmIERCFH28ICGy1m5hp9KsWTNFhuBQwe54of+HBRnYJGEnFfZUTESACPgTARIif9abr3NNQhRewIGnI3jCgstW2DvAK1XlypWV61C4D/X7gbJAZx8ODCDEaYEi3jM89jVp0kRGjRolO3bs+LsP6DgoWKXFCjuebcfNOQnR35B66gMJUfjxQvcbEiJrzdXuTpzG++Iz4hdhzMEzmYgAEfA3AiRE/q4/X+aehCi8gKPdAteqVUv69Omjdj3eeecd5bkI3ov8fkyZMkXZgsALH0jRxYJFPJ9BiGBY/+qrryqDeN34L1y4oOxBEPvp4Ycftk24SIg0ot46kxCFHy90nyEhstZenSJEIEMIxnr77beruHPWcsG7iQAR8BoCJEReq5EA5IeE6C8BBztCUNmAbQx2TmAf07JlS+nXr5+KZYTo73v37lUxPuBpzO8HBNsNGzYoUoTyaoEu3jPcJiO+B7xDAZvQBA9er7/+urRt21YFW8U7sNuGOCEQXGK9h4QoFFFvfCchIiFyoiX++uuvAlfyH3zwgVStWjXmeBBrvCARdaJW+Awi4B0ESIi8UxeByQkJ0V8CjiZDMO6FF62lS5fK6tWrlW3MgQMH1K7HL7/8omJ8IPih349jx44p980wkIchciyBI/T3IkWKKMIIe6EffvghXX+B6hxI0Zo1a5Tr7NGjR6vV29y5c8cV0JOEKB2knrhAQkRC5ERDBBlCjCAEzYbHwdDxxer3okWLSps2bQQ733CowEQEiIC/ESAh8nf9+TL3QSdEmgghKGDjxo3VBA3PR6meYHSM4LWTJ09WtlFWBRCr8T7grvmFF16QunXrqijyCKCI3aJI7yUh8mYLJCEiIXKiZaIdwc4QarUm3gqhKgcbRdh4Qn0Xu95e9FroBGZ8BhEIEgIkREGqbY+UNeiECCpyd9xxhzzzzDMyY8YM2bRpk5w4ccIjtZO4bCBa+K5du+Stt95SwkQkYhLpulVCBCHlm2++USu47dq1U9HkQYoiPZ+EKHF1b/JkEiISIpP2o/+LcRaBeeEVLm/evBHHgUjjg74OMgR1OSy0zJ49W44ePSpQx2MiAkTA3wiQEPm7/nyZ+6ASoowZM0qOHDnU7ggmZrhqhY0QnAL8+eefvqxLK5nWKm3jx4+3TYiwuotVXgjJsZIOLAp7Izik6Nixo5QpU0YyZ84c1qaIhCgWou78TkJEQmTS8uAKG+rGUEmGjSZUb+HARhMcq+ds2bIJ1OUwFsGFN54fhPHbpA74XyLgBwRIiPxQSymWx6ASIpAhCOSPPPKIIkP79+8X2AgFZTI1JURWdfaBK0gR3rtnzx6ZPn26NGjQQK0OgxSFCkIkRN4caEiISIhMWibIEGwy4UwBHuFAhuDQJrT/x/sdjlrgCbR///7K3jMo47dJHfC/RMAPCJAQ+aGWUiyPqUqItm/fLsOGDVN2QVDvwsRZoUIFufnmm+WWW26Ru+66S9q3by9vvvmmUh3T1Xrq1CmBDRFWG7GKCbew8RxffvmlLFu2TGArc/LkSf04z55Rzm3btsnYsWPlxhtvtCyQFCtWTB577DF57733lC2S1YJ+9913Kqhr06ZNlboL6qVatWpStmxZgeMF1NXQoUNl1apVSg3G6vMTdT+8C86fP1969uypbKHiFdz0fTfccIOMHDlS1q9f70tbBxIiEiKTvnXw4EFZvHixPPfcc2pBSvcLq2cdJw62n127dpUPP/xQfvrpJ5Os8b9EgAh4CAESIg9VRlCykqqECKpZ8BbXqlUrJVxjFRFGt4sWLZLPPvtMkZd169YpMgR7Gp1AhoYMGaKip8PjHAL9xXPUqVNHkS84DgAp8nqCndTGjRsVJiAfVgWS4sWLC2yBsNODHR+rCaQRpAiepkAmP/30U5k1a5Zyc46gsTVr1hR4pvv22289ZdNFQvS/As+EDz30kJExvNeJod34OHT/HH0kQH/u3r278myJhQ+r446+X8eJw4IKxg2QIezwMxEBIpAaCJAQpUY9+qoUdgkRJn4E9GzWrJnaJYB7ZZMDBrHPP/+8ilmTP39+yxMlvAzBHgaunqGWBRU42AVhl6hDhw5K0AYBiGUjBFfbDz74oBQuXNiSbju81eXLl0/uv/9+tbvk9UYAJwfYpcBuBYRTLWjEey5RooQ8+eSTMnPmTEdWZmEIDVfg2JXr0aOHdOnSRebNm6dc6MIjnlcSCREJUbQ+QkIUvadiF71Ro0aSPXt25R0uGpbRfoNDlipVqihnOBjXmYgAEUgtBEiIUqs+fVEau4QILpOxwgcVpyZNmqgYEIgDYfdAkE/sCoBkQaiINhmG+y2UEEFXHaQIqnPwbrZlyxa10xBLxxyqciB58D4HkhPuXeGuZcmSRQoWLKgMhUGqvJ5MCVHJkiWlc+fOyrPTvn37jIsL+yKQosOHD6tdIbjPRf2BDMFQ2iuJhIiEKFz/19dIiKL3VOwG165dW5EhuMzWuFk9wxkDFq7gJTNcHLToueCvRIAIeB0BEiKv11AK5s8uIcqQIYOKI5MzZ05FBKBCZXJggoOdj92Vw1BCZLeqli9frgherly5BJ7o4p2oIQhh16Rt27Zqp8zu+5P1P+zGrF27Vu2gQQ8/3nLq+0qVKiXdunVTuzggLkFJJEQkRLoPhDuTEIUfCbAQhd15qCzDXjAcdlauedXpSvjS8yoRIAJWESAhsooY7zdGwC4hwuoeSBFIA3ZHIAiYHNAJh7cxxJWws3LoFCHCCibsgVAulC/eSRoEqnz58vLUU08pVTTjiknwA0wjxYMQQbXtk08+EZCEoCQSIhKiaGMCCVH4kQBkCKrMc+fOVbGHomEYz29Vq1ZVceOwo3z+/PnwL+VVIkAEfIsACZFvq86/GbdLiOKZtJJ5j1OEyK4xNdQH4QwAJAGGw15PECRgr9OvXz+l9mi1rkqXLi3PPvusLFy4ULnR9Xp5ncofCREJUbS+QkIUvqfBcQ1U2yZOnKgcKkTDMJ7f4OgGYzUTESACqYkACVFq1qunS0VClLZ67BIiRFtH1HUEeUUUdq+nQ4cOKe9uffv2tUWIYDv24osvyhdffCF4VlASCREJUTSBnYQo/EiA2ENQl8P4iMWUaBjG8xsJUXiceZUIpAoCJESpUpM+KgcJUdrKskuILg4QCHfSXk+IBwL34/DshwC18QghF98DHf4BAwYo9+XYbQpKIiEiIbq4H4R+JiFKOxLAIQoco8BJio4LV6BAAcvjjcbZb94806LBb0SACMSLAAlRvEjxPscQICFKC6VdQoRJHsFeR4wYoTzbpX2q975hxRaxf3r16mUrwGi5cuVk0KBBKo4Q7JGCkkiISIi0cB7uTEKUdiQAGUKcshkzZihnNRgnYXMaDrt4riG0AWw8Bw4cqOKYpX0bvxEBIpAqCJAQpUpN+qgcJERpK8suISpUqJDAdfiYMWMEQWG9nnScJgRJhIOEeISRi++BA4mhQ4cKXIwfPXrU68V1LH8kRCREF/eD0M8kRGm7mqnzllB8EZYBjmt0MNa0b+M3IkAEUgUBEqJUqUkflYOEKG1l2SVEcBvesmVLmTBhgi/iYiB2EILhIgAqYgqFCh6xvsNV9/Dhw2XdunUqoGpaFFP3GwkRCVG0vkFClLbv//jjjzJ58mRp3bq1XH311ZbHmVCsK1SoIK+++qpyXHPixIm0L+M3IkAEUgYBEqKUqUr/FASexurXr6/UGC655BLjCSt0AkvWd7e9zF111VVy9913y+DBg2Xx4sWydetWTx9whvDaa69Jq1atBGTOaj1de+21St0OK7XYJbJb3l27dikvdadOnVJxSrzec0iISIii9RUSor96MOIOIdjyxo0b5bnnnlOxhy6//HLL44zGGuEYsmXLpoK6YsyBIxe62/b6aMn8EQH7CJAQ2ceO/7SJgFORw/XE5dbZbUJ02WWXCfIAtbmePXsqYgRy5NXjmWeekRYtWki1atUkT548lgWV/PnzS8OGDeXJJ59UjhnslnPs2LHKdfe2bdsEpMjriYSIhCjaGEdC9FcPBhn67bfflNOV5s2bq+DdJrZDIEPFihWThx9+WD0TZAjvYCICRCA1ESAhSs169XSpsFNw2223qSCkVgKi4l7sKGXKlEkQVBWCgMnhlcCsdlXmkH/YEcG25pZbbpE77rjD0wfyeMMNN0jhwoVV/UUT8sL9lj17duWMAYSqVq1atssKVZrRo0cLVDf94K2OhIiEKFx/0NdIiP6a7rC4gUWO8ePHS/Xq1QXe4Uw0ELAD36RJExk1apTs2LHD03MqM0cEiIA5AiRE5hjyCRYR0ATAChnC5I/JDZMcdkZABIoXL250QG0LrqshaEM9QgsY8Z7d3iECHiBFuXLlEqiGXHnllZ4+kEfkFXm2I6igjlBX2F1Cvdktb5UqVZTqHSLYw9GD1xMJEQlRtDGJhOivHgzHMljowI45xnaMMVbnmItxhu3Q66+/Lps3b5aTJ096fZhg/ogAETBEgITIEED+3ToCmhBdPPnE81nHg4Bx/T333CNt2rQxOjBx1qxZU+BFCEJFPHm4+B63CdHFeeHn/4i7/kqUKCEdOnRQbnn37t1rvQEn+R8kRCRE0fo3CdFfHXLt2rXy+OOPKw+WWDiJhlk8v2FuWLBggbIbCqKqHNQPQQRhOwWHOBgr7RxYdMJOvF9sNpM8vPN1HkKAhMhDlRGUrNglRNhdABl65JFHZNq0abJmzRqjAx7PECQUdimwT4lnkrz4HhKi+EnIxbi5/ZmEyF8jzf/+LwlRtD5DQomsUOUAACAASURBVPRXe162bJk0atTI9o5/KMZQ8V2yZImyG4LDhqAlkKEtW7YIVNznzJmjFpAQ28nqgZ14qCf7xWYzaPXM8v6DAAnRP1jwU4IR0F6AMMlgsgmdgGJ9z5s3r9IN7927t2zatMk4t6aCFgkRCZFxI4zjAdwhIiGKNjaSEP3VifRCm4maHHDOkCGDZM6cWerWrStwABTUhJ0hkCHYZGHOxa66naNr167Sv39/effddxXB4k5RUFuU98tNQuT9OkqZHELtAJ56oIYAdYRok3y430CIatSoIX369CEh+g9/kpFw9Zrsa9wh8teQYrpwodsXHHqMHDlS1q9fL8ePH/ccCFqg1/mN90xCJILFNrv4heIMMoS5pmnTprJixQrPtZNkZQiqbtjdwXwLJ0gYN+0ciDl33XXXKdsukCLuFCWrBvkeqwiQEFlFjPfbRuD333+Xs2fPyscff6yITehEFOs7jPKxs/TCCy8oQ1fbGfn/P5oKWtwh8icpIyEy7TnJ/b9pP9XjCglRcustWW+7cOGCsk+B8I4FM13fds85c+aUcuXKKff+33zzTbKK4bn3HDx4UD777DOlVl6mTBljXHUcuU8//VTFgfNcgZmhwCNAQhT4JpA8ADBxnTlzRubNm2dr4sqXL58KkjdgwAD57rvvjDNuKmiREJEQGTfCOB5AlTmqzEUT7oO+Q3T69GnZuXOnUu3CmBwNq3h+0wGvX3nllUC728bi5Y8//iiTJk2SSpUqGeNasGBBtesGz32oLyYi4DUESIi8ViMpnB94rTlx4oR89NFHyhYonsnp4nvgZhmxdhCQc+vWrcZIkRD5k9Bc3CbsfOYOkXHXSeoDTPupbiPcIUpqtSXtZdjJgF3qc889J07sZJQqVUq6d++uNBn84JY/UUDrBUy7Gh263+kzwmXceOONApuiDRs2JCrbfC4RsI0ACZFt6PhHqwjAfgjuN+GlpmrVqpZXnEiIgklg9ITq1JmEyGrPdfd+EqLo/T7oO0S7du2SsWPHSrNmzVR8OpNxAg4ZILSPGzcu8LYusMsCKVq8eLEtJ0ih9UDbLHfHUb49NgIkRLEx4h0OIfDLL7+oeAbvvfee3HTTTbYIUf369WXo0KFqsjLNlqmgRZW56IJa6ITole8kRKY9J/b/IUzhcCKZ9lPd7rhD5ERteOcZv/76qxw5ckTZuTz11FOC8Ri7ELq+rZ6zZcsmV199tTRv3lwWLlyoHG9AqyHoCZ72ateuLRkzZlQe+Kziqu8H2URwbTwryN77gt6evFx+EiIv106K5Q32Qz/88INMnDjRlk5ygQIFVJyJ4cOHy/bt243RMRW0SIhIiIwbYRwP8JsNEYgQHKjgcIIUmfZTLZCREMXR2Hx0C8jQypUrBfPBzTffrMhQpkyZbBOiIkWKSKtWrWTChAlqfgEZCmJA1tAmgPhOd911l+TIkUORIt2f7JxBiuCxDu68mYiA1xAgIfJajaRwfmD8umPHDtvGrzB2bdKkiYwaNcoRY1dTQcspQgQ3wE8//bTceuutPOLAAIItgvTamZDxH+4QJWaQgfCoV+03b96sHJ8guKNpMu2nup2QEJnWhLf+D4P/KVOmqEDdRYsWtT0eQEi/5JJLpGLFiopcrV27Vo4dO+atwrqYGwRAb9u2rRo3oZ6p+5PdM0JuzJ8/X86dO6cWTVwsGl9NBNIgQEKUBg5+SSQCCMiGnZ0333xT6WlbHVBBiO655x559dVXHfFSYypoOUWIEBMFpAhxNHjExgCxZCDcWm0/+n4SosT0cpAhCJKrVq1Sjk+GDRvmiZ1cXe8kRImpd7eeCtINRwrYHUJIBl3PVs8gQ1myZJHbb79dZs2apexcYe/K9BcCcGAER0b16tUT2PFaxTf0fqjLv//++wKHFSBFTETAKwiQEHmlJgKQD3iY27Rpk8DtZoUKFSwPrIUKFVLB3caMGSPff/+9MWJeIUTGBQnYA0wDMJIQOddgoBIHEgRCD7sLCJRDhgxRwhPUj1avXm38MtN+qgUyEiLjqvDUA77++mt5+OGHBbtDsP/R9Wz1jN3m66+/XsUdwm4IHAk4oerpKbAMMrNv3z6ZM2eO9OjRQ83bwBq2QFZx1veXLl1aevfurcYLqAMTa4PK4V8dRYCEyFE4+bBoCBw9elQJSHCKUL58ecsDKnS8W7ZsqVTuYItkmkwFLad2iEzLEbT/kxBZs91KFBGAIAM1uXXr1kmnTp3USn21atVUUEusJDdo0EC++uor4+Zp2k+1IJYoHIwL+P8PsNuug+plDm3rzjvvVGTIREDXbrYRHw/CPwX0tC1aO0OaPXu28uRnSkDh+AJzJ9xvI/CtU7aGaXPNb0TAOgIkRNYx4z9sInDo0CHlXaZv375StmxZy4QIHoCwIohAcRCSTJOpoEVCZFoD9v5vV3DUgjF3iOzhrv8FEgSDcyxwIEAyXB7DVbHGV59hE4e6Mk2m/VTnh4TItCa883+QFtNxQLeLypUrK1ukPXv2CIKRMoVHwCkVRZBXkPi6deuqnSeMI1C3ZSICbiNAQuR2DQTo/QcOHJBFixZJnz59BNvmekKK94yVKRh3vvPOOyqCtil0poIWCZFpDdj7v6kgREJkD3f9Lx1gGepFL7/8snJ0Avu+0H5MQqQRi+9st10HbYdI70x+9tlnjsTHqVGjhgrCCjKE3Qqm8Ag46cQCpKhSpUry2muvybfffqsCtod/K68SgeQhQEKUPKwD/yYYUc6dO1dtlZcsWTKdABUqUIV+L168uLRv316mT58uWM0zTSREpgi683+7gqNuTyRE1usNQihUZ6Dzv3HjRvn0008FThMaNmwY0YaDhMgaznbbddAIEcI3IBjrW2+9pVSvdL+2c4aHOafaqbXa9t/dTrs5xwJnmzZtHFvg9B+izLHXECAh8lqNpHB+QGKmTZsmTzzxhIDcWJ3AQKKgdwwDT+h6myYSIlME3fm/XcFRtzcSImv1plfk0ec++eQTGTRokNx7773KED1//vwRbTicEjRN+6mud6rMWat3r94N+1GQoQcffFBgV6rr1+oZZChDhgzKuxzj4sSube1SHztzTgTCDRqRj40w73AbARIit2sgQO83FWyuvfZa6dWrl1qdhvqdaTLND1XmTGvA3v9JiJLrVEHHD8NCBLxD3XHHHXG53yUhsta+7bbroAiWIObwAAdVTQjk8AxnEo8MQVxh4H/33XfL8uXLrVVWgO/G7hzsBps1aybw/GqViOr7SUgD3Ig8WnQSIo9WTCpmCwMpYhA1b95cChcubHkgLVOmjIo7sWTJEjl48KAxRCRExhC68gC7gqOeiLlDZK3adu7cqVzlw8MjFgHgQe7SSy+N2X9JiKzhbLddB4UQgQxBXQ7u3e+66y7JnTu3gNTofm31nDNnTuXtFOQKbuOZ4kMAc+/ixYtt2wJfXE9UWYwPc96VHARIiJKDM98iooKpIgZR06ZNpWDBgpYnMnim69evn/JUB491pslpQqRVCnbv3i3btm1TMZcQd4mHNQwggKN+Ixk52xUc9URMQhRfz4EAit0hqBO1bt1arrnmGuUdSuMY60xCFB/O+i677ToohAhkCGM2vIxWqVJFEFAVAnWsdhjp9wIFCkjjxo1lxIgRjgQQ1vWY6me9Y2w3wHpofTg1TqQ67ixf4hEgIUo8xnzD/yOwfft2NflgEsJkFDowxvperlw5FfRx5cqVAgNP0+Q0IdJGp4jCjVhLUC/iYR2DV199VbnUhVejcG5w7QqOun2REMXXcyD4IAAyBFAILRC8rcR7cUrQMe2nut5pQxRfvXv1Lr0z8dxzzwm0BUzIENqE0zapXsXN6XxhoeTUqVPKlrd69eqW53HdH/XZqXHC6XLyecFDgIQoeHXuWokRs6R///5Sq1YtueKKKywPpBBoXnnlFcfcdJoKWqE2RHv37pUPPvhAkSDopWOy4GEdAxhLQwiP5I6VhCgxNkTaexcCrS5btkx5hJwwYYJ07NhRQCK1ABPv2SlBx7Sf6vySELk29Bu9GK6w4eEQ48Hw4cMjunnX9RzrnDlzZjX/wBZu/Pjxagf/xIkTRnkM2p9hz2U6Dut6QhwohNJgHKigtSLvlZeEyHt1krI52rBhg3Tp0kUqVqyojFn1gBjvGXELJk6cKPAyBOHNNJkKWqGECPnCBAv1Iuxm5c2bl4cNDBAXBILPqlWrVPDP0Ho2nYi5QxSK6F/fYeM3btw4adeunTRq1EhQD2jjwAu7Q/H2U30fCVF4nCNdtduuU11lDmRILzZhoQkxr7JkyWK5Pep2icW42267TdnArFixQsXAQWwtJmsI6PZqulPndDgNa6Xg3UTgHwRIiP7Bgp8SjMDatWvlscceU6oK2bNntzyhQW986tSpKhbKuXPnjHPrNCGC7QsCzcElsR0bKT1hB/183XXXqZ3Er776Sg4fPpyunvVEbBcnEqK0kGpj9aVLl8qjjz6qgibnyJHDcv8MrQ8SorQ4x/pmt12nOiHSqsiDBw9WC02h7czqdwjgIP0IAeFEPLtY9Zqqv2MXGQsnmMutqNKG1hcWDmvWrKkIKmKc/fHHH4IdKCYikGwESIiSjXiA37d69Wpp1aqVih2RNWtWywJXtWrVZNasWXLs2DGBAwPTREJkTfUqdCJL1HcSorQtG8FQ58+fLz179hS4nreKeyxVMW2s/u677yp1VpChjBkzWn5PaL5IiNLWY6xvJEThEYIt4ZQpU1QQTwTzDG1nVr/DXTd2oKEairmEyR4Cpgucut6w24cFRHifxSIYdutAipiIQLIRICFKNuIBfJ8O7IgVJeyeYEUIetx6QIx1xpY8VqAgYCEwJAQ4rGqbJhIiEiKo4ng9OU2I0B9hl4GV92+++UY+/vhjZbP19NNPK09ysfpjvL+TEFlrWSRE4fGCl84+ffooFU7MHfG2v0j3QdMAu0PoV05oGoTPdepf1e7477vvPrXIadfrH/4HN/6wt4Xnuq1btyqnDamPIEvoNQRIiLxWIymYH6z2YNUHsQvq1KmjyBAihEeasEKvgwxly5ZNGjRooAw5QYac2FInISIhCiIhAhmCIAhvjU8++aQSNGGfZ9Wtdmg/Df1OQmRtMCchCo8X7HwQqsHqQlpoe9TfoZ6FHVf0AfQFJnsIwNMcyAtIDMgMSA3IjcY53jMWPPG/IkWKCMgVQnOAbDERgWQjQEKUbMQD+D5tozBv3jwlfMU7UOr7EHwvT548ancJk6NTiYSIhChIhAgqLvv375d9+/bJ119/rdSGoD6k+5lTZ91f77nnHlm+fLlxdzXtp7pcsVQHjTNq+AASovAA2sVF1/vFZwjfcKiA2FpMZgjohU6ouUHdDWpvJs4uYIsEV+iwM8ZYxUQEko0ACVGyEQ/g+86fP6+M42fMmCFVq1a1LIBhkIVnoRYtWijPY05BaCpohXqZo1MFZwgWbYjStnCnVOawmAD1owULFkiPHj2UCurll19uuT9eLGCG+4zFC6glweYJRtKmybSf6jySEJnWhDv/d4oQadXr2rVrq+De7pQmdd6qVeHRx6HSiJ03E5VGaIKAFMFRA9TrmYhAshEgIUo24gF8H4Jr7t69WyZPniyIOaAFlHjPifKiZCpokRA5Q4BC2wEJUdpBwpQQIYglglnCaQLc1iNYMByUgLhgNycUf6vfIWhCBRb9tHDhwopode7cWXmEdMKLl2k/1eUhIUrbrrz+Te9ALFy4UG6++Wbjdgq7VSwAQC3LSU0Dr+OY6Pw51T/RTzGWOKVqm+hy8/mphwAJUerVqedKdPLkSUFQ1jFjxqgYRFpAifecM2dO5W4V9g4wAncqmQ7kJEQkRE61xWjPMSVEICkPPPCAPP7441KvXj0B4cRKLsiQFVu+SP0Vz8Cz4M4Yu7gjR45UKklOBVo07ac63yRE0VqZ936D3enx48flww8/VARe16Pd82WXXabianXr1k0FefVeif2ZI4RGwI7OgAED1Nhit370/0iI/NkOUiHXJESpUIseLwO8WcGWYODAgbYGTKxkY0X72WefVSo/ThXXVNAiISIhcqotRnuOKSHKnTu3wGnCTTfdJAhKCdUUrMRqAcTuGSQIQiaIEIyq27RpowITw73+0aNHoxXJ0m+m/VSXj4TIEuyu34x5Azs5gwYNMoo/pAk77FPatm2rXHjDlTeTMwhAAwR4Tpo0SY0zur/ZPSMg9Ny5c+X06dOOeJN1ppR8ShAQICEKQi27XMaffvpJrfJ16tTJllvf/Pnzy5133ikvv/yybNu2zbHSmApaJEQkRI41xigPMiVEIC4gRTigNuQEGYKwAzJ04403/i1krlmzRn744QdFhpyIE6YhMe2nWjAjIdKIev8M+5TNmzfL888/L7fccotSddP1aPWsiXvdunXlvffeE7QnhG5gcgYBeOoDKYL7fpAZq/UTej/GFHiu27FjhyJFzuSSTyECsREgIYqNEe8wRAATEGwXdFDW0AEw1vdChQpJs2bNZOzYsbJr1y7D3Pzzd1NBi4SIhOif1pS4T6aEKFb/svq7DqQII+qOHTvKO++8o1aIE4WAaT/V5SMhSlQNOftceCXF7gBsh5o0aWLsbhuG+gho/MQTTyjvZU6EbHC2xKnxNO38wnTBpXTp0spJw6JFi+TAgQOpAQ5L4QsESIh8UU3+ziS8r7366qsCN7zwFqcFlHjPV199tbRu3Vo5ZXBS1cFU0CIhIiFKRs/0GiGCe10Ypr/00kuyZMkSRYawQpyoZNpP9ThDQpSoGnL2uSBD33//vVpEgyomdjVNbN2gYdCwYUMZNmyYoxoGzpba/0+DK3O4NEddmZAivQD6xhtvqHbgf2RYAr8gQELkl5rycT63bNkiL774om03v9D9hteq2bNnqxgqTkFhKmiFEiKoBs6aNUupeUBghHEoD+sYgPxOmTJFuWw+ceJEuurWK5Fa0LV6LlGihHTo0EHgBj4IcYis4hN6f8aMGSVXrlwqcGLFihWVgwYET4QhNQyqE51M+6kuDwlRomvKmefrcdSuirWub30uVaqUcjP/ySefCBYXmBKDAFRmH3nkESlWrJgKpK7xt3rWzi+eeuop+eyzzwS2ZE6q4Cam9HxqKiBAQpQKtejxMqxbt06pK0BtAeoLVgfIcuXKyZAhQ1QMIi8Za4cSol9++UUwmUP3HcbAENx5WMcAQUOxEwgyBE9ToYmEKDE7c5H6JcgQAri2bNlSsGqLleDt27crMoQYY4lOJETR6ztRYQkSXa+Rno/5on379gJ38Tly5LA8X4S2Y8TEmjp1qiJD586di/RaXjdEAGM2FrJAiooWLWq73rTNF1ytY1cPcylIERMRSDQCJESJRpjPVwMadkzg4QrqD6ETVqzvMLIcN26cEsJOnTrlGKKmglYoIXIsY3xQVARIiKILyLH6k5XfofoCldWHHnpIeZCD+3wIlTCkTlYy7ae6vNwhSlaNmb3nyy+/FDhAgGBsoiqn651unM3qI95/w0X6hg0blHo85kZTb5aJUpWPtzy8L3gIkBAFr86TXuKlS5dK/fr1BcbYl1xyiWVCBHfB8A6E3RfswjiVTAUtEiKnasLac0iIkkOIQIbQX7HC/vbbbyuHJogpBjKUTMN0036qBWMSImv9zK27sQN5++23G9ui6HonIUpOTUKtDRocUG2vU6eOUpsDKdL1YPWMWGnwWtenTx9Hw20kBw2+xY8IkBD5sdZ8lmfTCQ4xiBCcDytQ4VSo7MJhKmiRENlF3ux/JESJIUSwFYKKEoyaK1SoIPAiByPpLl26qJXfZJKgi1uIaT/VghgJ0cWoeu/zH3/8IVDBXLBggWp7ut7sniGMZ8uWTQnn8+bNUyqesHnjkRgMDh06pLzCffrpp8qjLGw1oc5pt/6yZs2qdqfvv/9++eijj5T9sJMLot7rAcyR2wiQELldAwF4vxZg7XqegS4xXLCCDGHSdCqZClokRE7VhLXn6PZkd6KlU4XwhApkCHYbEEBee+01FVcEXuSgBoPFCLeSaT/V7YSEyK0ajO+9IEMQqv/nf/5HqlataluQ1vUNMgS1q7vvvlveeust+eqrr3gkGANog8BZzQsvvCCNGzeWAgUK2K5H7E6DFGFxpkePHjJnzhxHnSrF1yp5V5AQICEKUm27VFZTATZRKg+mghYJkTsNyrQ9+Y0Q7du3TwkD2KmBx0Ut8Dl5xmJF4cKFpXnz5jJmzBilogJX2sm0FYrUmkz7qcaJhCgSwt64rm1QXnnlFUFd6Xqze9aECLucTz75pPTv359HEjDo3bu3ik+GYOpweW63/vT/rrzySrnjjjtk8ODBsnXrVm80VuYiJREgIUrJavVWoUwFWBIib9Wn27kxbU9+I0R79uxRXrIef/xx5dJWCwpOnUGGYLxeuXJltZKOGDDw8JdsW6FI7YqEKPyOnq7/VPEyBxf4H3zwgSIv6KO6fHbPWmUOznzwvOuuu45HEjBAYFXgDTJ06aWXGtcj2jee16ZNG4FrbyYikCgESIgShSyf+zcCpgIsCdHfUPKDiHJljjZhV1DC5OqHOETajTvU1vr27SsNGjRwZMVV4wYSBLshxP2AS/zHHntMCRxu2QpFatwkRKlPiNDmsPqP8ApwwINdAd1OeY5e/6mOD4gtwnU0atRIxT6LNE7wOhEwRYCEyBRB/j8mAiREMSHiDRYQMG1PfiFE8KoIZyLPPPOMwI7OqRVXLUBpJwpwaw91vJkzZypPjhaqIim3khBFF4j9vkMEMgTbUMQfa9u2rVxzzTVGxvi6ffMcvd34BR/sYIMU1a5dW+CSnYkIJAoBEqJEIcvnKgQw2SHa9C233GJ7xS/WDhF0z9evX285CCqC9fXs2VPpJ9tZkQyKDdGFCxfkzJkzSliGygIIiZvHyJEjjWwMvEqI4DQEbq2hOvTNN9/ItGnTpHPnzoL2f/nll9vuP6GCD9RY0N6hQoR4LyBDMFjetWuXqmevDV0kRNEFW4QzgPE6dhDHjh1ruW+uXbtW9u/fr0IauGEzhrEFbQ9BPWvVqiU5c+ZUO5eh7Zbfo7eDVMcHi0KLFi0SzEde28X22pjJ/NhDgITIHm78VxwIYNDCBLt48eKEEiKQoaeffloJjhAe4z0QXwWqQhAO7eg6B4UQaYEFOwhYwY0X30TdB4PrXLly2SYIXiVEIEMIfAovWzACRywW6OODDNkJaBxOQMJqK3aa6tWrJ7169VI2G/AiB8cNqGcIG15LJETRBWF44wIpQr1it89qv4NtGtxSOx3nLd52hPqdOHGiPPzww8pWBDuXTgRkDdf+eS16W/IyPohJhHbq1XEq3vbO+7yLAAmRd+vG9znTOwsYxDCY2R1sMcFjRyJSMlWhspuvoBCi06dPy86dO2XChAlSqVIlgVBtFzMv/M9rhOjcuXNqhX716tVKMGzfvr2UK1fOOLChxlqrnIBEQh2pYcOGytvW/Pnz5eeff47UrTxznYQosUKs2+OYXtAyXejQ7Z3nxLYXt/DF3IMA0RgPQIqYiIDTCJAQOY0on/c3Atoo/N1335WbbrrJthBNQvQ3pK58QATyY8eOqeB4UH2EPrefSZHXCBHUlT7++GN58cUXlUF58eLFldqQUzjjObAzuf7669XO0+TJk5W9BsgQyJjXEwlRYgVctwnRihUr5N5775U8efJIpkyZbM8TbgnqfG9i26fGF7vlffr0URonBw8e9Pqwxfz5EAESIh9Wml+yfPToUSV4vfTSS1K+fHnLEx3UJqAqhBgECPgWKcHQsk6dOmoyTaaqhduCRCQ8nL4Og2eQouXLl8tDDz0kRYsWVbsXeqLy29lrhGj79u0yfPhw5UXJJJBhaD2g78DlMIKtwjajU6dOynEC3nfq1Cmnm0nCnkdClFiB0+1x7IsvvlDtE6p/fl5oCe1//O5su73qqqukSZMmaqz89ttvXbN5S9hAxwe7jgAJketVkLoZ2L17t7z33nvKnW+xYsUsEyIIdLCfuO+++wSriJESBHVEI4f74GSuMLotSETCw+nr2gsU1ObeeOMNadasmRQqVMhyfXpFQPAaIUqUyhDIEIhQt27dlF0S3gM7EZAhL9oKRWq3JETOCpah/dDtcQyECMFTSYYSW8+h9e6377CTAynCXI94VXA+Ay0UJiLgFAIkRE4hyeekQ8A0rgTUfGDz8Oijjwo8IUVK+A33JNtdq9uCRCQ8EnX90KFDyu1pv379pGzZsiREDgG9ZcsWFWcIThTg4AO7nCbCYbZs2VQAVzhOeP7555UHOThN8GsiIUqsoOzWOAaHOxBoP/nkE6lZs6ZvxxO/EQu/5xf2lYMHD5aVK1fKkSNH/DqsMd8eRICEyIOVkipZgveqrl27CiZc7N5YHYhz584tlStXlh49egi2yCMlCJQQ0iFQYlXc6nvs3u+WIBEJh0RfhyHrDz/8oAz/YeBqFze3/+e1HSJNNAcMGCAVK1ZUaqImqp/YjcUCAZxgQGgAGfLzSioJUWoSIrRJrPKb2pi6PZ7w/Yltn6H4QmW7TZs2yk37jz/+mOhpj88PEAIkRAGq7GQVVXuXQ/yhFi1aSJEiRSRr1qyWBWitM4y4Mzt27IiYfUyqM2bMkI4dO0rJkiUlWbroQSNEOk7O7NmzpXr16pbrM3Ric+u71wjR+fPnBUbCiLEBOx+slqMdx2tkrlVLUS4sIMB9MVRVsVAAV95+TyREiRU43RjHoIYLZyLwdIhYcAh/4NZ4wPcmtn05jW/evHmV11o4WNi0aZPfhzfm30MIkBB5qDJSJSvYSUCgvUmTJqn4QyBDIClWB0YIhdhhQtDIaCo/Z8+eFawUvfPOO0qYREwhO++zmj83BAk32wicK4AUQXBHkDyreHnlfq8RIuAKUnTgwAEVYBhkpkOHDlKtWjVFimLhBjs71AdiF8GDHHaF0B9AhlBffk8kRIkVWJM9joEMYdEMqs6Ik3w90QAACS9JREFUH1ehQgWjuGKx+gd/T2z7STa+WAACKWratGlU22K/j3vMf/IRICFKPuYp/0bo9cIJAvR8oe9rd8CEm2B431q3bp1y+xwJOB0AdtmyZfLvf//bdqBVq/lMtiARqfzJvu5W3Cer9RPpfq8RotD627Nnj0yfPl3atWsncMEdqRywMwLxL1Wq1N8e5ODIBLYZ6BOpkkiIEivQJnscg8dKeCDFTnPt2rUdi7cVqZ/wemLbj1v4xgrHkSrjH8uRPARIiJKHdWDehN0cTHadO3dWqj92B0zYqSCCOexWYgVigwAIL1pdunRRdhh2bJas5jPZgoRXGhAJUWJrAm1dk4BotlogQ9gNRWyoqVOnKg9y2C1NJTIEpDUWcPl+9dVXRySIsfovAn9C/RbjxPHjxxNbiTae7la/SvY4hp3LzZs3y+jRo1WgZ6fibcWqf/6eWsSIhMjGIMO/REWAhCgqPPzRDgIgMOPHj1f2Q4ULF7YswOiV7xo1asisWbPUaiJWFWMlxFcZMWKENG7cWJyM5xJpIk22IBGr/Mn6HXGf6tatm/S4T5Hqwep1r+8QgdBApWjx4sXKHTGIz8Ve5/AdLmjRxtEGsfAAByapmkiIEivIJnscO3HihGzcuFHNEQ0bNhT0Rx7EwGobgH3yqlWrUnXYY7lcQICEyAXQU/2VcLc9aNAgJTTny5fPMiHSK98QuiEUggzBziJWgnMFxCeAcwUMrlYFZav3J1uQiFX+ZP3uVtwnq/UT6X60DdjowBEH2owXE0gRiCeCEofaxIEMFSxYUPWvIUOGCJyXpHLkdhKi1CJE586dUw4V0L6HDh2qbN8wZqNP8iAG8baBUaNGRXW25MVxnXnyNgIkRN6uH1/mDg4Vxo4dqwKyQkccxMHKcdNNNyk1IKi/WVn5PnbsmDLUHTNmjDRq1EjZViA2kdWVp3jvR9Rs2HrAgB2qSkFJ8Ozz7LPPSp06dZRBNDxE+ekA0Yab9gULFsjPP//s2WrDKjo8cEElrnTp0qo9o2/Ur19f7b4OHDhQQE4PHz6snDJ4tiCGGQsKIdIBeqEKlMzj8ccfl3nz5imVy2S4Z9deSFGvIPMzZ85UC1lYoOBBDOJtAwjoi5AFTETAKQRIiJxCks/5GwGoREBoXrhwobz//vtKNQIqdPEeb7/9trKJsDrgYScJpAhOGKCfjvhFcGMc74qT1fuwugmBFIMyvIQFJem4OagnCOUQ2v10vPTSS/LRRx8ptR20Va8mrVoE0t29e3fp1q2b6k9Lly5VqiLfffedCkyIthfPDqpXyxkrX0EhRLBrAimCLVEyD3h7gwtskCE45Eh00iqhsJXDzuZPP/2kdmqxW8uDGMTbBoI27ya6X/L5IiREbAWOI6BXALFyjd2TnTt3WjpggwTHDCA38dgOhRYA/1uzZo2KgP7hhx8mbNUR6nzI6+nTp5XNR2g+UvU7BHDULWy2IJwjloifDqjqIEYPdoegvuP1BGEVK/g48DloCfWE9gWvlc2aNbO9e9K2bVs1FmA8Qp9lIgJEgAgQASKgESAh0kjw7BgCegUQgjNUySB8WDmwcojVynhth0IzrneKIEglcvURq5vIKwggyhyUpOPmnDp1ShEj4OynAyuL8HQFMpSMFXHTdqFtLkCG/EDgTMsb+n+UGe0LtomIsWR39wSLJFh9DtoCRiie/E4EiAARIALpESAhSo8JrxABIkAEiAARIAJEgAgQASIQEARIiAJS0SwmESACRIAIEAEiQASIABEgAukRICFKjwmvEAEiQASIABEgAkSACBABIhAQBEiIAlLRLCYRIAJEgAgQASJABIgAESAC6REgIUqPCa8QASJABIgAESACRIAIEAEiEBAESIgCUtEsJhEgAkSACBABIkAEiAARIALpESAhSo8JrxABIkAEiAARIAJEgAgQASIQEARIiAJS0SwmESACRIAIEAEiQASIABEgAukRICFKjwmvEAEiQASIABEgAkSACBABIhAQBEiIAlLRLCYRIAJEgAgQASJABIgAESAC6REgIUqPCa8QASJABIgAESACRIAIEAEiEBAESIgCUtEsJhEgAkSACBABIkAEiAARIALpESAhSo8JrxABIkAEiAARIAJEgAgQASIQEARIiAJS0SwmESACRIAIEAEiQASIABEgAukRICFKjwmvEAEiQASIABEgAkSACBABIhAQBEiIAlLRLCYRIAJEgAgQASJABIgAESAC6REgIUqPCa8QASJABIgAESACRIAIEAEiEBAESIgCUtEsJhEgAkSACBABIkAEiAARIALpESAhSo8JrxABIkAEiAARIAJEgAgQASIQEARIiAJS0SwmESACRIAIEAEiQASIABEgAukRICFKjwmvEAEiQASIABEgAkSACBABIhAQBEiIAlLRLCYRIAJEgAgQASJABIgAESAC6REgIUqPCa8QASJABIgAESACRIAIEAEiEBAESIgCUtEsJhEgAkSACBABIkAEiAARIALpESAhSo8JrxABIkAEiAARIAJEgAgQASIQEARIiAJS0SwmESACRIAIEAEiQASIABEgAukRICFKjwmvEAEiQASIABEgAkSACBABIhAQBEiIAlLRLCYRIAJEgAgQASJABIgAESAC6REgIUqPCa8QASJABIgAESACRIAIEAEiEBAESIgCUtEsJhEgAkSACBABIkAEiAARIALpESAhSo8JrxABIkAEiAARIAJEgAgQASIQEARIiAJS0SwmESACRIAIEAEiQASIABEgAukRICFKjwmvEAEiQASIABEgAkSACBABIhAQBEiIAlLRLCYRIAJEgAgQASJABIgAESAC6REgIUqPCa8QASJABIgAESACRIAIEAEiEBAESIgCUtEsJhEgAkSACBABIkAEiAARIALpESAhSo8JrxABIkAEiAARIAJEgAgQASIQEARIiAJS0SwmESACRIAIEAEiQASIABEgAukRICFKjwmvEAEiQASIABEgAkSACBABIhAQBEiIAlLRLCYRIAJEgAgQASJABIgAESAC6REgIUqPCa8QASJABIgAESACRIAIEAEiEBAESIgCUtEsJhEgAkSACBABIkAEiAARIALpESAhSo8JrxABIkAEiAARIAJEgAgQASIQEAT+D88bv3sOc0e5AAAAAElFTkSuQmCC;" vertex="1" parent="WIyWlLk6GJQsqaUBKTNV-1">
          <mxGeometry x="310" y="-120" width="83.97" height="90" as="geometry" />
        </mxCell>
        <mxCell id="uDt04_MFJMx3Z47wcWQL-37" style="edgeStyle=none;rounded=0;orthogonalLoop=1;jettySize=auto;html=1;exitX=0;exitY=0.5;exitDx=0;exitDy=0;entryX=1;entryY=0.25;entryDx=0;entryDy=0;" edge="1" parent="WIyWlLk6GJQsqaUBKTNV-1" source="uDt04_MFJMx3Z47wcWQL-33" target="uDt04_MFJMx3Z47wcWQL-2">
          <mxGeometry relative="1" as="geometry" />
        </mxCell>
        <mxCell id="uDt04_MFJMx3Z47wcWQL-33" value="用户标签" style="ellipse;whiteSpace=wrap;html=1;" vertex="1" parent="WIyWlLk6GJQsqaUBKTNV-1">
          <mxGeometry x="757" y="140" width="70" height="40" as="geometry" />
        </mxCell>
        <mxCell id="uDt04_MFJMx3Z47wcWQL-38" style="edgeStyle=none;rounded=0;orthogonalLoop=1;jettySize=auto;html=1;exitX=0;exitY=0.5;exitDx=0;exitDy=0;" edge="1" parent="WIyWlLk6GJQsqaUBKTNV-1" source="uDt04_MFJMx3Z47wcWQL-34" target="uDt04_MFJMx3Z47wcWQL-2">
          <mxGeometry relative="1" as="geometry" />
        </mxCell>
        <mxCell id="uDt04_MFJMx3Z47wcWQL-34" value="热度排行" style="ellipse;whiteSpace=wrap;html=1;" vertex="1" parent="WIyWlLk6GJQsqaUBKTNV-1">
          <mxGeometry x="757" y="200" width="70" height="40" as="geometry" />
        </mxCell>
        <mxCell id="uDt04_MFJMx3Z47wcWQL-39" style="edgeStyle=none;rounded=0;orthogonalLoop=1;jettySize=auto;html=1;exitX=0;exitY=0.5;exitDx=0;exitDy=0;" edge="1" parent="WIyWlLk6GJQsqaUBKTNV-1" source="uDt04_MFJMx3Z47wcWQL-35">
          <mxGeometry relative="1" as="geometry">
            <mxPoint x="670" y="240" as="targetPoint" />
          </mxGeometry>
        </mxCell>
        <mxCell id="uDt04_MFJMx3Z47wcWQL-35" value="人工打压" style="ellipse;whiteSpace=wrap;html=1;" vertex="1" parent="WIyWlLk6GJQsqaUBKTNV-1">
          <mxGeometry x="757" y="260" width="70" height="40" as="geometry" />
        </mxCell>
        <mxCell id="uDt04_MFJMx3Z47wcWQL-40" style="edgeStyle=none;rounded=0;orthogonalLoop=1;jettySize=auto;html=1;exitX=0;exitY=0.5;exitDx=0;exitDy=0;entryX=1;entryY=0.25;entryDx=0;entryDy=0;" edge="1" parent="WIyWlLk6GJQsqaUBKTNV-1" source="uDt04_MFJMx3Z47wcWQL-36" target="uDt04_MFJMx3Z47wcWQL-2">
          <mxGeometry relative="1" as="geometry" />
        </mxCell>
        <mxCell id="uDt04_MFJMx3Z47wcWQL-36" value="······" style="ellipse;whiteSpace=wrap;html=1;" vertex="1" parent="WIyWlLk6GJQsqaUBKTNV-1">
          <mxGeometry x="757" y="320" width="70" height="40" as="geometry" />
        </mxCell>
      </root>
    </mxGraphModel>
  </diagram>
</mxfile>
